<svg xmlns="http://www.w3.org/2000/svg" width="86" height="70" viewBox="0 0 86 70" fill="none">
<path d="M5.01574 38.3104C5.01574 33.1516 5.04283 27.9928 5.00602 22.834C4.98302 19.5952 6.39122 17.2397 9.10538 15.5655C16.6585 10.9058 24.2157 6.25171 31.7357 1.53969C34.8736 -0.429032 37.8801 -0.563426 41.0752 1.44736C48.4142 6.06055 55.7908 10.6129 63.2051 15.1043C66.4508 17.0602 68.0436 19.6573 67.9991 23.5347C67.8805 33.7497 68.0502 43.9683 67.9229 54.1833C67.8559 57.559 66.5755 60.7967 64.3175 63.2997C62.0595 65.8027 58.9761 67.4023 55.6356 67.8039C52.3494 68.1707 49.0391 67.3687 46.2816 65.5376C43.5241 63.7066 41.4942 60.9626 40.5457 57.7838C40.2003 56.5193 40.0268 55.2138 40.0299 53.9028C39.9681 49.4529 40.0811 44.9999 39.9788 40.5515C39.9103 39.2368 40.1614 37.9251 40.7106 36.7295C41.2597 35.5339 42.0904 34.4903 43.131 33.6887C46.4708 30.9187 49.734 28.0564 53.0252 25.228C54.803 23.7004 56.7018 22.773 58.5287 24.9792C60.3948 27.2362 58.9274 28.8813 57.1956 30.3524C54.6578 32.5068 52.1353 34.6823 49.5699 36.8049C48.5698 37.5799 47.7723 38.5869 47.2457 39.7395C46.7192 40.8922 46.4794 42.1559 46.547 43.422C46.6354 46.8588 46.5092 50.3013 46.5879 53.7386C46.6901 58.1203 49.8858 61.3021 54.025 61.2719C58.086 61.2421 61.3246 57.9633 61.3543 53.6114C61.4176 44.4069 61.3788 35.2014 61.3711 25.9964C61.4057 24.6719 61.0813 23.3628 60.4328 22.2088C59.7842 21.0547 58.8357 20.099 57.6884 19.4434C52.1237 15.9796 46.5487 12.5308 40.9633 9.09707C37.9271 7.22068 34.9456 7.19914 31.8813 9.14221C26.4321 12.6016 20.9255 15.9697 15.44 19.3716C12.8178 20.9977 11.5696 23.3167 11.5865 26.4417C11.6376 35.444 11.5701 44.4464 11.6161 53.4493C11.6391 57.8674 14.683 61.1016 18.7971 61.2637C22.806 61.4212 26.132 58.6261 26.4719 54.2788C26.7126 50.3426 26.7308 46.3959 26.5266 42.4577C26.4494 40.2622 25.3305 38.4264 23.6172 36.9896C20.9107 34.7203 18.2313 32.4196 15.5335 30.1401C13.7956 28.6694 12.8173 26.9382 14.5373 24.9418C16.2353 22.97 18.0912 23.6117 19.8286 25.11C23.2666 28.0756 26.7173 31.0278 30.1808 33.9667C31.0579 34.6582 31.7724 35.535 32.2736 36.535C32.7747 37.535 33.0502 38.6334 33.0805 39.7524C33.2123 45.105 33.5793 50.4798 32.8617 55.8079C32.3713 59.3039 30.5854 62.4857 27.8604 64.7186C25.1355 66.9515 21.6718 68.0713 18.1605 67.8545C14.6491 67.6376 11.3484 66.1002 8.91675 63.5489C6.48513 60.9975 5.10145 57.6199 5.0418 54.09C4.95849 48.8317 5.02545 43.5708 5.02545 38.3104H5.01574Z" fill="white"/>
<path d="M36.5157 31.4929C35.6756 31.5068 34.8411 31.3515 34.0618 31.0363C33.2824 30.721 32.5739 30.2522 31.9782 29.6575C31.3824 29.0628 30.9115 28.3543 30.5933 27.5738C30.2751 26.7933 30.116 25.9568 30.1254 25.1135C30.1348 24.2703 30.3126 23.4375 30.6482 22.6645C30.9838 21.8914 31.4704 21.1936 32.0793 20.6125C32.6882 20.0313 33.407 19.5786 34.1933 19.281C34.9795 18.9834 35.8172 18.847 36.6568 18.8798C38.2795 18.963 39.8131 19.6494 40.959 20.8053C42.1049 21.9613 42.781 23.5039 42.8554 25.1327C42.8447 26.8163 42.1735 28.428 40.9872 29.6185C39.8009 30.809 38.195 31.4826 36.5173 31.4934" fill="#0CD0A2"/>
<g clip-path="url(#clip0_61_4364)" filter="url(#filter0_d_61_4364)">
<path d="M16.7451 161.542C16.5828 161.37 16.4321 161.187 16.2941 160.995C15.962 160.543 15.6497 160.072 15.3481 159.599L13.849 157.235C13.2793 156.414 12.9807 155.664 12.9807 155.071C12.9807 154.477 13.3204 153.702 13.9983 153.528C13.9435 152.641 13.9084 151.738 13.9084 150.844C13.9084 150.315 13.9191 149.781 13.9389 149.256C13.9694 148.925 14.0303 148.596 14.1202 148.276C14.5361 146.932 15.4456 145.789 16.6674 145.073C17.1015 144.803 17.5657 144.584 18.0507 144.419C18.9221 144.093 18.5016 142.776 19.4629 142.758C21.7054 142.7 25.3936 144.6 26.8318 146.14C27.7479 147.143 28.2691 148.438 28.3004 149.79L28.2089 153.678C28.6081 153.774 28.9204 154.082 29.0194 154.477C29.1398 154.953 29.0194 155.604 28.6005 156.524C28.6005 156.554 28.5685 156.554 28.5685 156.584L26.8592 159.374C26.4722 160.003 26.0716 160.647 25.6206 161.238C25.0859 161.945 24.6456 161.818 25.1027 162.495C25.1925 162.617 25.2885 162.731 25.3875 162.844C22.4762 164.813 22.0009 167.471 21.4891 170.338C21.4038 170.816 21.3169 171.301 21.2164 171.766C21.1204 172.126 21.1082 172.604 21.061 172.99H4C4 164.132 13.622 166.946 16.8913 162.495C17.2676 161.948 17.1686 161.988 16.7451 161.542ZM37.4059 161.043L40.5899 169.314L42.1895 164.806L41.405 163.957C40.8154 163.104 41.018 162.136 42.1118 161.961C42.5308 161.893 44.205 161.901 44.5966 161.987C45.6112 162.21 45.7178 163.182 45.212 163.957L44.4275 164.806L46.0286 169.314L48.9079 161.043C50.9859 162.893 56.5784 163.265 58.8666 164.528C62.0384 166.284 61.9516 169.694 62.6447 172.837H23.6676C24.3562 169.723 24.2846 166.256 27.4457 164.528C30.2595 162.977 35.1025 163.095 37.4059 161.043ZM36.8179 155.496C36.53 155.502 36.2954 155.465 36.0379 155.325C35.6966 155.137 35.4575 154.816 35.2929 154.454C34.9502 153.693 34.6775 151.691 35.5428 151.118L35.3813 151.014L35.363 150.792C35.3295 150.391 35.3219 149.903 35.3127 149.392C35.2807 147.509 35.2427 145.228 33.6705 144.772L32.9971 144.574L33.4404 144.045C34.711 142.535 36.0364 141.213 37.3724 140.198C38.8852 139.051 40.4239 138.287 41.926 138.066C43.4738 137.84 44.9729 138.183 46.3561 139.26C46.7644 139.578 47.1605 139.961 47.5444 140.409C49.0191 140.548 50.2272 141.314 51.0895 142.406C51.6029 143.061 51.9944 143.832 52.2427 144.653C52.491 145.47 52.5992 146.341 52.5535 147.197C52.4682 148.732 51.8877 150.23 50.7132 151.323C50.9188 151.329 51.1138 151.376 51.286 151.465C51.9411 151.802 51.9609 152.537 51.7902 153.15C51.6196 153.664 51.4048 154.26 51.2007 154.762C50.9523 155.437 50.5898 155.563 49.8905 155.49C48.3168 162.299 38.806 162.532 36.8179 155.496ZM61.5006 161.942C61.3452 161.776 61.1975 161.598 61.0649 161.412C60.745 160.977 60.4434 160.523 60.1524 160.066L58.7051 157.785C58.1552 156.993 57.8672 156.269 57.8672 155.696C57.8672 155.122 58.1948 154.376 58.8498 154.208C58.798 153.351 58.763 152.479 58.763 151.617C58.763 151.106 58.7737 150.59 58.7935 150.084C58.8209 149.764 58.8803 149.448 58.9671 149.139C59.3678 147.842 60.2468 146.739 61.426 146.047C61.8445 145.786 62.2924 145.575 62.7605 145.417C63.603 145.102 63.1962 143.831 64.1225 143.813C66.2873 143.757 69.8475 145.59 71.2354 147.078C72.1196 148.046 72.623 149.295 72.6537 150.599L72.5654 154.351C72.9508 154.445 73.2509 154.742 73.3469 155.122C73.4627 155.582 73.3469 156.212 72.9416 157.1V157.098C72.9416 157.128 72.9112 157.128 72.9112 157.157L71.2613 159.849C70.888 160.457 70.5011 161.078 70.0654 161.648C69.5505 162.33 69.1254 162.208 69.5672 162.861C72.7253 167.156 82 164.456 82 173H65.2803L65.1203 171.88C65.0091 171.375 64.9146 170.843 64.8217 170.323C64.3388 167.608 63.8924 165.115 61.3848 163.179C61.4747 163.077 61.5616 162.971 61.6423 162.861C62.0049 162.332 61.9089 162.373 61.5006 161.942Z" fill="white"/>
</g>

</svg>