
<svg width="25" height="37" viewBox="0 0 25 37" fill="none" xmlns="http://www.w3.org/2000/svg">
<path d="M14.7151 23.4255H9.43256C9.43256 23.4255 9.56619 27.4736 8.91907 28.6483H15.2954C14.6482 27.4736 14.7151 23.4255 14.7151 23.4255Z" fill="#F4B88E"/>
<g style="mix-blend-mode:multiply">
<path d="M9.40088 25.912C10.3856 26.3763 11.3774 26.8194 12.5029 26.7139C13.3012 26.6365 14.0749 26.3939 14.7889 26.0316C14.6939 24.7057 14.715 23.4255 14.715 23.4255H9.43253C9.43253 23.4255 9.47121 24.6283 9.40439 25.912H9.40088Z" fill="#F5DCD6"/>
</g>
<path d="M21.9038 30.9414L14.5428 28.0681H9.66122L2.30017 30.9414C2.30017 30.9414 -0.277785 31.8664 0.0246757 36.347H24.1793C24.531 31.5886 21.9038 30.9414 21.9038 30.9414Z" fill="#F4B88E"/>
<path d="M18.7456 15.734C18.5276 17.0774 18.9039 18.2697 19.5862 18.3998C20.2685 18.53 20.9965 17.5452 21.211 16.2017C21.4256 14.8582 21.0493 13.666 20.367 13.5358C19.6847 13.4057 18.9602 14.3905 18.7421 15.734H18.7456Z" fill="#F4B88E"/>
<path d="M19.5651 15.3681C19.5651 15.3681 19.5756 15.2943 19.6037 15.1712C19.6284 15.0481 19.6846 14.8722 19.769 14.6893C19.8534 14.51 19.9906 14.3025 20.1665 14.2919C20.2087 14.2919 20.2544 14.2954 20.2966 14.3095C20.3036 14.313 20.3493 14.3341 20.3634 14.3447C20.3775 14.3587 20.3951 14.3658 20.4126 14.3834C20.483 14.4502 20.5393 14.5557 20.5779 14.6753C20.6201 14.7949 20.6448 14.925 20.6588 15.0551C20.6694 15.1852 20.6799 15.3224 20.6623 15.442C20.6412 15.5756 20.6342 15.7163 20.6096 15.8324C20.585 15.9519 20.5639 16.0645 20.5428 16.17C20.5146 16.2755 20.4935 16.374 20.4759 16.4584C20.4584 16.5463 20.4302 16.6202 20.4162 16.6799C20.381 16.803 20.3634 16.8734 20.3634 16.8734C20.3634 16.8734 20.3986 16.8136 20.4548 16.7011C20.4795 16.6448 20.5217 16.578 20.5533 16.4935C20.5885 16.4127 20.6272 16.3177 20.6659 16.2157C20.7046 16.1102 20.7362 15.9906 20.7749 15.864C20.8136 15.7374 20.8312 15.6108 20.8558 15.4736C20.8804 15.3189 20.8874 15.1676 20.8734 15.0129C20.8593 14.8617 20.8347 14.7069 20.7854 14.5592C20.7362 14.415 20.6588 14.2708 20.5463 14.1653C20.5217 14.1407 20.483 14.1161 20.4478 14.095C20.4091 14.0739 20.3986 14.0739 20.3529 14.0563C20.286 14.0422 20.2157 14.0352 20.1489 14.0457C20.0082 14.0668 19.8921 14.1723 19.8148 14.2814C19.7374 14.3904 19.6881 14.51 19.653 14.619C19.5826 14.8406 19.5686 15.0305 19.5615 15.1606C19.558 15.2907 19.5651 15.3646 19.5651 15.3646V15.3681Z" fill="#F2A57F"/>
<path d="M19.5651 15.3681C19.5651 15.3681 19.5018 15.2239 19.952 15.1923C19.952 15.1923 20.4549 15.2837 20.1595 15.9519C20.0962 16.0961 20.0399 16.2438 20.0082 16.4021C19.9625 16.6272 20.0434 16.9297 19.9238 17.1301C19.7691 17.3869 19.3717 17.2391 19.3506 16.9472C19.333 16.7221 19.5651 16.3353 19.6706 16.177C19.6706 16.177 19.9942 15.6882 19.5686 15.3681H19.5651Z" fill="#F2A57F"/>
<path d="M19.3505 16.9191C19.3505 16.9191 19.3365 16.9296 19.3154 16.9542C19.2943 16.9789 19.2697 17.0246 19.2486 17.0808C19.2345 17.109 19.231 17.1406 19.2239 17.1758C19.2169 17.211 19.2099 17.2497 19.2169 17.2883C19.2169 17.327 19.2204 17.3692 19.2275 17.4079C19.2345 17.4466 19.2521 17.4818 19.2626 17.5205C19.2802 17.5556 19.2908 17.5943 19.3119 17.6225C19.333 17.6506 19.3576 17.6752 19.3787 17.6998C19.4209 17.7526 19.4701 17.7842 19.5158 17.7983C19.6038 17.837 19.6671 17.837 19.6671 17.837C19.6671 17.837 19.6425 17.7561 19.5967 17.6752C19.5862 17.6541 19.5756 17.633 19.558 17.6119C19.5475 17.5873 19.5405 17.5592 19.5264 17.538C19.5158 17.5134 19.5053 17.4888 19.4912 17.4677C19.4772 17.4466 19.4736 17.415 19.4631 17.3939C19.4385 17.3481 19.4244 17.2954 19.4068 17.2461C19.3963 17.2215 19.3928 17.1969 19.3892 17.1723C19.3857 17.1477 19.3752 17.123 19.3716 17.0984C19.3541 17.007 19.3435 16.9226 19.347 16.9226L19.3505 16.9191Z" fill="#F2A57F"/>
<path d="M5.77493 15.734C5.99298 17.0774 5.61314 18.2697 4.93436 18.3998C4.25207 18.53 3.52757 17.5452 3.30952 16.2017C3.09498 14.8582 3.4713 13.666 4.15359 13.5358C4.83237 13.4057 5.56039 14.3905 5.77844 15.734H5.77493Z" fill="#F4B88E"/>
<path d="M4.95536 15.3682C4.95536 15.3682 4.94481 15.2943 4.91668 15.1712C4.89206 15.0481 4.83579 14.8723 4.75138 14.6894C4.66697 14.51 4.52981 14.3025 4.35396 14.292C4.31176 14.292 4.26604 14.2955 4.22383 14.3096C4.2168 14.3131 4.17108 14.3342 4.15701 14.3447C4.14294 14.3588 4.12535 14.3658 4.10777 14.3834C4.03743 14.4502 3.98115 14.5558 3.94247 14.6753C3.90026 14.7949 3.87565 14.925 3.86158 15.0552C3.85103 15.1853 3.84399 15.3225 3.85806 15.442C3.87916 15.5757 3.8862 15.7164 3.91082 15.8324C3.93543 15.952 3.95653 16.0645 3.97412 16.1701C4.00225 16.2756 4.02336 16.374 4.04094 16.4584C4.05853 16.5464 4.08667 16.6202 4.10074 16.68C4.13591 16.8031 4.15349 16.8735 4.15349 16.8735C4.15349 16.8735 4.11831 16.8137 4.06204 16.7011C4.03391 16.6449 3.99522 16.578 3.96357 16.4936C3.9284 16.4127 3.88972 16.3178 3.85103 16.2158C3.81235 16.1103 3.78068 15.9907 3.742 15.8641C3.70331 15.7375 3.68573 15.6108 3.66111 15.4737C3.63649 15.3189 3.62945 15.1677 3.64352 15.013C3.65759 14.8617 3.68221 14.707 3.73145 14.5593C3.78068 14.4151 3.85806 14.2709 3.96709 14.1654C3.99171 14.1407 4.03039 14.1161 4.06556 14.095C4.10425 14.0739 4.1148 14.0739 4.16052 14.0563C4.22734 14.0423 4.29769 14.0352 4.36451 14.0458C4.50519 14.0669 4.62124 14.1724 4.69862 14.2814C4.77599 14.3905 4.82524 14.51 4.86041 14.6191C4.93075 14.8406 4.94481 15.0306 4.95184 15.1607C4.95536 15.2908 4.94833 15.3647 4.94833 15.3647L4.95536 15.3682Z" fill="#F2A57F"/>
<path d="M4.95534 15.3681C4.95534 15.3681 5.01865 15.2239 4.56847 15.1923C4.56847 15.1923 4.06906 15.2837 4.36097 15.9519C4.42428 16.0961 4.48055 16.2438 4.5122 16.4021C4.55792 16.6272 4.47704 16.9297 4.59661 17.1301C4.75136 17.3869 5.14527 17.2391 5.16988 16.9472C5.18747 16.7221 4.95535 16.3353 4.84984 16.177C4.84984 16.177 4.52627 15.6882 4.95182 15.3681H4.95534Z" fill="#F2A57F"/>
<path d="M5.17341 16.9191C5.17341 16.9191 5.18748 16.9296 5.20858 16.9542C5.22968 16.9789 5.2543 17.0246 5.27541 17.0808C5.28947 17.109 5.29299 17.1406 5.30003 17.1758C5.30706 17.211 5.31409 17.2497 5.30706 17.2883C5.30706 17.327 5.30354 17.3692 5.29651 17.4079C5.28947 17.4466 5.27189 17.4818 5.25783 17.5205C5.24024 17.5556 5.22968 17.5943 5.20858 17.6225C5.18748 17.6506 5.16286 17.6752 5.14176 17.6998C5.09955 17.7526 5.05032 17.7842 5.0046 17.7983C4.91668 17.837 4.84985 17.837 4.84985 17.837C4.84985 17.837 4.87447 17.7561 4.92019 17.6752C4.93074 17.6541 4.94129 17.633 4.95888 17.6119C4.96943 17.5873 4.97646 17.5592 4.99053 17.538C5.00108 17.5134 5.01163 17.4888 5.0257 17.4677C5.03977 17.4466 5.04328 17.415 5.05383 17.3939C5.07845 17.3481 5.09252 17.2954 5.10659 17.2461C5.11714 17.2215 5.12065 17.1969 5.12769 17.1723C5.1312 17.1477 5.14176 17.123 5.14528 17.0984C5.16286 17.007 5.17342 16.9226 5.1699 16.9226L5.17341 16.9191Z" fill="#F2A57F"/>
<path d="M18.9602 4.81722C18.9602 4.81722 16.6425 2.27795 12.0774 2.13727C7.51939 2.37642 5.20873 5.00362 5.20873 5.00362C3.96724 8.99891 4.76208 13.6871 5.28963 17.7421C5.68001 20.7351 7.69173 22.8312 10.231 24.2908C10.231 24.2908 11.1278 24.8711 12.3236 24.9379C13.5123 24.8465 14.3986 24.2486 14.4021 24.245C16.8675 22.5745 18.7562 20.5065 19.2274 17.4643C19.6354 14.8371 19.7269 11.9321 19.6354 9.28027C19.5862 7.81721 19.4279 6.21346 18.9637 4.81722H18.9602Z" fill="#F4B88E"/>
<path d="M10.0937 12.9978C10.0937 12.9978 8.46186 12.4491 6.77722 13.2229C7.10782 11.4222 10.2239 12.1607 10.2239 12.1607C10.2239 12.1607 10.4279 12.21 10.4068 12.53C10.4068 12.53 10.3223 13.0822 10.0902 12.9943L10.0937 12.9978Z" fill="#9E715E"/>
<path d="M13.8955 12.9978C13.8955 12.9978 15.7489 12.4491 17.4371 13.2229C17.1065 11.4222 13.7653 12.1607 13.7653 12.1607C13.7653 12.1607 13.5614 12.21 13.5825 12.53C13.5825 12.53 13.6634 13.0822 13.899 12.9943L13.8955 12.9978Z" fill="#9E715E"/>
<path d="M8.02579 14.6719C8.02579 15.1924 8.32121 15.6144 8.67994 15.6109C9.03868 15.6109 9.32707 15.1853 9.32356 14.6613C9.32356 14.1408 9.02813 13.7188 8.66939 13.7188C8.31066 13.7188 8.02227 14.1443 8.02579 14.6683V14.6719Z" fill="#2F1807"/>
<path d="M8.41624 14.3694C8.41624 14.5241 8.28963 14.6507 8.13488 14.6507C7.98013 14.6507 7.85352 14.5241 7.85352 14.3694C7.85352 14.2146 7.98013 14.088 8.13488 14.088C8.28963 14.088 8.41624 14.2146 8.41624 14.3694Z" fill="white"/>
<path d="M16.1888 14.6719C16.1853 15.1924 15.8934 15.6144 15.5346 15.6109C15.1759 15.6109 14.8875 15.1853 14.891 14.6613C14.891 14.1408 15.1865 13.7188 15.5452 13.7188C15.9039 13.7188 16.1923 14.1443 16.1888 14.6683V14.6719Z" fill="#2F1807"/>
<path d="M15.7983 14.3694C15.7983 14.5242 15.9249 14.6508 16.0797 14.6508C16.2344 14.6508 16.361 14.5242 16.361 14.3694C16.361 14.2147 16.2344 14.0881 16.0797 14.0881C15.9249 14.0881 15.7983 14.2147 15.7983 14.3694Z" fill="white"/>
<path d="M10.484 20.5558C10.4875 21.0587 11.2015 21.4702 12.0842 21.4702C12.967 21.4702 13.681 21.0622 13.6845 20.5558H10.484Z" fill="white"/>
<path d="M13.6848 20.6331C14.0611 20.5417 14.1209 20.503 14.1209 20.503C14.1209 20.503 13.8606 20.394 13.4913 20.2814C12.5488 19.884 12.6121 20.3975 12.1127 20.3975C11.863 20.4045 11.6097 20.1302 11.3741 20.1653C11.1385 20.1935 10.9204 20.2357 10.7305 20.2849C10.3542 20.3764 10.101 20.503 10.101 20.503C10.101 20.503 10.1045 20.5628 10.4808 20.6542C10.4808 20.6542 11.2194 20.5382 11.6801 20.6085C11.6801 20.6085 12.1056 20.714 12.394 20.6261C12.394 20.6261 13.1678 20.5839 13.6812 20.6331" fill="#FF9193"/>
<path d="M13.8042 20.5031C13.4349 20.8829 13.0339 21.4702 11.9964 21.4667C11.9964 21.4667 10.8042 21.523 10.4138 20.5031H10.0938C10.1043 20.5277 10.1113 20.5523 10.1254 20.5804C10.2063 20.7246 10.2766 20.897 10.3962 21.0517C10.456 21.1291 10.5158 21.2135 10.5791 21.2944C10.6424 21.3788 10.7303 21.4456 10.8077 21.523L10.9308 21.6355L11.075 21.7305C11.177 21.7938 11.2579 21.8676 11.3915 21.9063C11.5111 21.9485 11.6483 22.0048 11.7573 22.0224L11.9155 22.0435L11.9929 22.054L12.0316 22.0611H12.0527L12.1055 22.0681L12.4783 22.0224C12.6014 21.9978 12.7139 21.945 12.8264 21.9063C12.946 21.8712 13.0375 21.7938 13.1359 21.734L13.2801 21.639L13.4032 21.5265C13.4806 21.4491 13.5685 21.3823 13.6318 21.2979C13.6951 21.217 13.7549 21.1326 13.8147 21.0552C13.9378 20.9005 14.0046 20.7281 14.0855 20.5804C14.0996 20.5558 14.1066 20.5312 14.1172 20.5066H13.8042V20.5031Z" fill="#FF9193"/>
<path d="M12.1194 21.8501C13.4172 21.6566 13.5966 20.8759 13.5966 20.8759C13.0655 21.6566 12.1018 21.6355 12.1018 21.6355C12.1018 21.6355 12.0174 21.6496 12.0245 21.7586C12.0245 21.7586 12.0526 21.8606 12.1194 21.8536V21.8501Z" fill="white"/>
<path d="M21.4817 10.7258C21.4817 10.7258 22.0163 1.73985 14.5744 0.104454C14.5744 0.104454 8.91906 -0.79941 6.7948 2.71054L11.184 6.25918C11.184 6.25918 13.361 10.3424 17.7432 11.8899C17.7432 11.8899 19.5579 12.3541 19.6705 15.741C19.6705 15.741 19.9272 13.8805 20.9718 14.0458C20.9718 14.0458 21.4993 11.7281 21.4817 10.7258Z" fill="#693D34"/>
<path d="M11.1876 18.231C11.1876 18.231 11.1981 18.231 11.2227 18.224C11.2438 18.2204 11.279 18.2064 11.3142 18.2029C11.3916 18.1853 11.4935 18.1677 11.6026 18.1466C11.7116 18.1325 11.8312 18.1149 11.9472 18.1079C12.0633 18.0974 12.1794 18.0974 12.2884 18.0974C12.4009 18.1009 12.51 18.1079 12.619 18.1185C12.6753 18.129 12.728 18.129 12.7843 18.136C12.8406 18.1466 12.8933 18.1536 12.9461 18.1571C12.9988 18.1607 13.0551 18.1782 13.1008 18.1818C13.1465 18.1818 13.1923 18.1923 13.2309 18.1993C13.2696 18.1993 13.3048 18.2134 13.3259 18.2169C13.3505 18.2204 13.3611 18.224 13.3611 18.224C13.3611 18.224 13.3611 18.2345 13.3505 18.2591C13.3435 18.2802 13.3365 18.3154 13.3189 18.3506C13.2907 18.4279 13.2345 18.5335 13.143 18.6319C13.0973 18.6847 13.0445 18.7339 12.9812 18.7761C12.9179 18.8183 12.8476 18.864 12.7702 18.8922C12.6928 18.9238 12.6084 18.9555 12.524 18.966C12.4361 18.9836 12.3482 18.9907 12.2602 18.9871C12.1723 18.9871 12.0879 18.9696 12.0035 18.9555C11.9191 18.9379 11.8417 18.9098 11.7679 18.8746C11.6202 18.8078 11.5006 18.7199 11.4091 18.6214C11.3177 18.5264 11.2579 18.4279 11.2263 18.3506C11.2087 18.3154 11.1981 18.2802 11.1911 18.2591C11.1841 18.238 11.1805 18.224 11.1805 18.224L11.1876 18.231Z" fill="#F5A586"/>
<path d="M15.2954 28.3599L21.6612 30.8464C19.959 32.109 19.8218 34.2333 19.8429 36.347H4.21694C4.23804 35.7737 4.21694 35.2075 4.17826 34.6975C4.07978 33.3857 3.71752 31.5815 2.46899 30.8746L9.05279 28.3036C9.05279 28.3036 9.2603 30.354 12.1126 30.3435C12.1126 30.3435 15.1301 30.4033 15.2954 28.3599Z" fill="#184892"/>
<path d="M5.95791 11.6683C4.95205 12.3998 5.1701 14.1724 5.17361 15.7585C5.17361 15.7585 4.9626 13.5182 3.64724 13.8207C3.64724 13.8207 1.11853 4.0751 7.43152 2.13373L11.6871 6.07979C11.6871 6.07979 11.1877 7.8629 5.96143 11.6648L5.95791 11.6683Z" fill="#693D34"/>
<path d="M3.24982 7.86637C3.24982 7.86637 -0.756022 26.0562 7.00245 28.6447C7.00245 28.6447 6.79494 25.7467 9.4362 24.9378V23.7983C9.4362 23.7983 7.30139 22.2157 7.05168 21.7057C7.05168 21.7057 5.61676 20.3165 5.28968 17.7386C5.28968 17.7386 5.00129 14.0563 5.33188 12.6108L3.24631 7.86285L3.24982 7.86637Z" fill="#693D34"/>
<path d="M20.9824 7.86637C20.9824 7.86637 24.9882 26.0562 17.2298 28.6447C17.2298 28.6447 17.4373 25.7467 14.796 24.9378V23.7983C14.796 23.7983 16.9308 22.2157 17.1805 21.7057C17.1805 21.7057 18.6155 20.3165 18.9425 17.7386C18.9425 17.7386 19.2309 14.0563 18.9003 12.6108L20.9824 7.86285V7.86637Z" fill="#693D34"/>
</svg>
