<svg width="615" height="403" viewBox="0 0 615 403" fill="none" xmlns="http://www.w3.org/2000/svg">
<g clip-path="url(#clip0_63_7679)">
<path d="M523.647 378.234H487.224V378.508H523.647V378.234Z" fill="#E6E6E6"/>
<path d="M393.14 381.216H383.581V381.491H393.14V381.216Z" fill="#E6E6E6"/>
<path d="M486.124 368.026H465.019V368.301H486.124V368.026Z" fill="#E6E6E6"/>
<path d="M134.099 369.873H86.6021V370.148H134.099V369.873Z" fill="#E6E6E6"/>
<path d="M150.854 369.873H143.89V370.148H150.854V369.873Z" fill="#E6E6E6"/>
<path d="M276.497 374.514H173.487V374.789H276.497V374.514Z" fill="#E6E6E6"/>
<path d="M289.547 311.519H77.2068C75.5427 311.517 73.9473 310.855 72.7706 309.679C71.5939 308.503 70.932 306.908 70.9302 305.245V6.88998C70.9321 5.22661 71.594 3.63193 72.7707 2.45578C73.9474 1.27963 75.5428 0.618047 77.2068 0.616196H289.547C291.21 0.618273 292.806 1.27996 293.982 2.45609C295.159 3.63222 295.82 5.22677 295.822 6.88998V305.245C295.82 306.908 295.159 308.503 293.982 309.679C292.806 310.855 291.211 311.517 289.547 311.519ZM77.2068 0.891104C75.6157 0.892956 74.0903 1.52555 72.9651 2.65014C71.84 3.77473 71.207 5.2995 71.205 6.88998V305.245C71.2068 306.835 71.8398 308.36 72.9649 309.485C74.0901 310.609 75.6156 311.242 77.2068 311.244H289.547C291.138 311.242 292.663 310.609 293.788 309.484C294.913 308.36 295.546 306.835 295.547 305.245V6.88998C295.545 5.29968 294.913 3.77506 293.788 2.6505C292.663 1.52593 291.138 0.893227 289.547 0.891104H77.2068Z" fill="#E6E6E6"/>
<path d="M527.396 311.519H315.056C313.392 311.517 311.797 310.855 310.621 309.679C309.444 308.503 308.783 306.908 308.781 305.245V6.88998C308.783 5.22677 309.444 3.63222 310.621 2.45609C311.797 1.27996 313.393 0.618273 315.056 0.616196H527.396C529.06 0.618002 530.655 1.27956 531.832 2.45572C533.009 3.63187 533.671 5.22658 533.673 6.88998V305.245C533.671 306.908 533.009 308.503 531.832 309.679C530.656 310.855 529.06 311.517 527.396 311.519ZM315.056 0.891104C313.465 0.893227 311.94 1.52593 310.815 2.6505C309.69 3.77506 309.058 5.29968 309.056 6.88998V305.245C309.057 306.835 309.69 308.36 310.815 309.484C311.94 310.609 313.465 311.242 315.056 311.244H527.396C528.987 311.242 530.513 310.61 531.638 309.485C532.763 308.36 533.396 306.835 533.398 305.245V6.88998C533.396 5.29947 532.763 3.77468 531.638 2.65008C530.513 1.52548 528.987 0.892911 527.396 0.891104H315.056Z" fill="#E6E6E6"/>
<path d="M615 360.541H0V360.816H615V360.541Z" fill="#E6E6E6"/>
<path d="M531.977 112.712H434.018V282.027H531.977V112.712Z" fill="#D9D9D8"/>
<path d="M452.83 89.0511V131.517H513.165V89.0511H452.83Z" fill="#D9D9D8"/>
<path d="M452.83 118.98H440.289V131.516H452.83V118.98Z" fill="#5E63F2"/>
<path d="M477.122 118.98H464.581V131.516H477.122V118.98Z" fill="#5E63F2"/>
<path d="M501.414 118.98H488.873V131.516H501.414V118.98Z" fill="#5E63F2"/>
<path d="M525.706 118.98H513.165V131.516H525.706V118.98Z" fill="#5E63F2"/>
<path d="M452.83 141.758H440.289V154.294H452.83V141.758Z" fill="#5E63F2"/>
<path d="M477.122 141.758H464.581V154.294H477.122V141.758Z" fill="#5E63F2"/>
<path d="M501.414 141.758H488.873V154.294H501.414V141.758Z" fill="#5E63F2"/>
<path d="M525.706 141.758H513.165V154.294H525.706V141.758Z" fill="#5E63F2"/>
<path d="M452.83 164.536H440.289V177.072H452.83V164.536Z" fill="#5E63F2"/>
<path d="M477.122 164.536H464.581V177.072H477.122V164.536Z" fill="#5E63F2"/>
<path d="M501.414 164.536H488.873V177.072H501.414V164.536Z" fill="#5E63F2"/>
<path d="M477.122 99.2922H464.581V111.828H477.122V99.2922Z" fill="#5E63F2"/>
<path d="M501.414 99.2922H488.873V111.828H501.414V99.2922Z" fill="#5E63F2"/>
<path d="M525.706 164.536H513.165V177.072H525.706V164.536Z" fill="#5E63F2"/>
<path d="M452.83 187.313H440.289V199.85H452.83V187.313Z" fill="#5E63F2"/>
<path d="M477.122 187.313H464.581V199.85H477.122V187.313Z" fill="#5E63F2"/>
<path d="M501.414 187.313H488.873V199.85H501.414V187.313Z" fill="#5E63F2"/>
<path d="M525.706 187.313H513.165V199.85H525.706V187.313Z" fill="#5E63F2"/>
<path d="M452.83 210.091H440.289V222.628H452.83V210.091Z" fill="#5E63F2"/>
<path d="M477.122 210.091H464.581V222.628H477.122V210.091Z" fill="#5E63F2"/>
<path d="M501.414 210.091H488.873V222.628H501.414V210.091Z" fill="#5E63F2"/>
<path d="M525.706 210.091H513.165V222.628H525.706V210.091Z" fill="#5E63F2"/>
<path d="M452.83 232.869H440.289V245.405H452.83V232.869Z" fill="#5E63F2"/>
<path d="M477.122 232.869H464.581V245.405H477.122V232.869Z" fill="#5E63F2"/>
<path d="M501.414 232.869H488.873V245.405H501.414V232.869Z" fill="#5E63F2"/>
<path d="M525.706 232.869H513.165V245.405H525.706V232.869Z" fill="#5E63F2"/>
<path d="M452.83 255.647H440.289V268.184H452.83V255.647Z" fill="#5E63F2"/>
<path d="M477.122 255.647H464.581V268.184H477.122V255.647Z" fill="#5E63F2"/>
<path d="M501.414 255.647H488.873V268.184H501.414V255.647Z" fill="#5E63F2"/>
<path d="M525.706 255.647H513.165V268.184H525.706V255.647Z" fill="#5E63F2"/>
<g opacity="0.3">
<path d="M522.159 18.6657H497.178L469.849 284.351H494.83L522.159 18.6657Z" fill="white"/>
</g>
<path d="M530.635 15.2967H450.97V22.0346H530.635V15.2967Z" fill="#D9D9D8"/>
<path d="M530.635 282.027H450.97V288.765H530.635V282.027Z" fill="#E6E6E6"/>
<path d="M533.732 294.51H447.365V8.71577H533.732V294.51ZM453.949 287.928H527.149V15.2967H453.949V287.928Z" fill="#E6E6E6"/>
<path d="M438.589 200.763H371.589V282.946H438.589V200.763Z" fill="#E0E0DF"/>
<path d="M432.757 209.877H408.593V218.451H432.757V209.877Z" fill="#E0E0DF"/>
<path d="M432.757 226.485H408.593V235.059H432.757V226.485Z" fill="#F8FAFA"/>
<path d="M432.757 243.093H408.593V251.667H432.757V243.093Z" fill="#E0E0DF"/>
<path d="M432.757 259.701H408.593V268.275H432.757V259.701Z" fill="#F8FAFA"/>
<path d="M401.585 209.877H377.422V218.451H401.585V209.877Z" fill="#F8FAFA"/>
<path d="M401.585 226.485H377.422V235.059H401.585V226.485Z" fill="#F8FAFA"/>
<path d="M401.585 243.093H377.422V251.667H401.585V243.093Z" fill="#E0E0DF"/>
<path d="M401.585 259.701H377.422V268.275H401.585V259.701Z" fill="#F8FAFA"/>
<g opacity="0.3">
<path d="M436.699 18.6657H411.719L384.39 284.351H409.371L436.699 18.6657Z" fill="white"/>
</g>
<path d="M445.176 15.2967H365.511V22.0346H445.176V15.2967Z" fill="#D9D9D8"/>
<path d="M445.176 282.027H365.511V288.765H445.176V282.027Z" fill="#E6E6E6"/>
<path d="M448.273 294.51H361.906V8.71577H448.273V294.51ZM368.489 287.928H441.689V15.2967H368.489V287.928Z" fill="#E6E6E6"/>
<g opacity="0.3">
<path d="M231.41 18.6657H206.43L179.101 284.351H204.082L231.41 18.6657Z" fill="white"/>
</g>
<path d="M239.888 15.2967H160.222V22.0346H239.888V15.2967Z" fill="#D9D9D8"/>
<path d="M239.888 282.027H160.222V288.765H239.888V282.027Z" fill="#E6E6E6"/>
<path d="M242.985 294.51H156.617V8.71577H242.985V294.51ZM163.201 287.928H236.401V15.2967H163.201V287.928Z" fill="#E6E6E6"/>
<g opacity="0.3">
<path d="M146.067 18.6657H121.086L93.7576 284.351H118.738L146.067 18.6657Z" fill="white"/>
</g>
<path d="M154.544 15.2967H74.8784V22.0346H154.544V15.2967Z" fill="#D9D9D8"/>
<path d="M154.544 282.027H74.8784V288.765H154.544V282.027Z" fill="#E6E6E6"/>
<path d="M157.641 294.51H71.2729V8.71577H157.641V294.51ZM77.8569 287.928H151.057V15.2967H77.8569V287.928Z" fill="#E6E6E6"/>
<path d="M296.703 329.998L295.822 330.107C295.767 329.659 290.422 284.944 301.448 248.402C312.408 212.084 304.861 188.941 304.784 188.712L305.625 188.428C305.703 188.661 313.339 212.071 302.298 248.659C291.326 285.018 296.648 329.552 296.703 329.998Z" fill="#D9D9D8"/>
<path d="M306.356 193.692C304.437 191.407 301.831 189.801 298.927 189.114L299.129 188.25C302.221 188.981 304.995 190.69 307.037 193.123L306.356 193.692Z" fill="#D9D9D8"/>
<path d="M310.13 197.406L307.589 198.841L308.026 199.613L310.567 198.179L310.13 197.406Z" fill="#D9D9D8"/>
<path d="M305.401 218.007C303.185 212.971 299.089 208.998 293.986 206.936L294.315 206.112C299.635 208.262 303.905 212.402 306.215 217.653L305.401 218.007Z" fill="#D9D9D8"/>
<path d="M303.02 245.944L302.133 245.955C302.103 244.157 301.676 242.387 300.882 240.773C300.088 239.159 298.946 237.741 297.54 236.619L298.09 235.923C299.6 237.127 300.825 238.649 301.678 240.382C302.53 242.114 302.988 244.014 303.02 245.944Z" fill="#D9D9D8"/>
<path d="M301.041 253.087L300.214 252.762C300.669 251.63 301.352 250.604 302.22 249.747C303.089 248.89 304.125 248.221 305.263 247.782L305.577 248.612C304.554 249.007 303.624 249.608 302.843 250.378C302.063 251.148 301.449 252.07 301.041 253.087Z" fill="#D9D9D8"/>
<path d="M295.289 298.409L294.606 297.843C295.685 296.541 296.502 291.584 296.941 288.921C297.046 288.284 297.135 287.741 297.21 287.349L298.082 287.515C298.009 287.901 297.92 288.436 297.817 289.065C297.161 293.041 296.426 297.037 295.289 298.409Z" fill="#D9D9D8"/>
<path d="M294.774 312.641C293.628 309.136 289.985 306.622 286.301 306.794L286.259 305.908C290.329 305.718 294.352 308.494 295.618 312.365L294.774 312.641Z" fill="#D9D9D8"/>
<path d="M301.564 321.908L295.307 328.906L295.969 329.497L302.226 322.499L301.564 321.908Z" fill="#D9D9D8"/>
<path d="M305.981 276.289C307.398 280.875 297.51 289.607 297.51 289.607C297.51 289.607 284.418 287.971 283.001 283.384C281.584 278.797 284.899 271.292 291.245 269.333C297.59 267.373 304.563 271.702 305.981 276.289Z" fill="#EDEDEC"/>
<path d="M316.954 220.625C315.699 225.496 306.334 228.956 306.334 228.956C306.334 228.956 299.806 221.406 301.06 216.535C302.313 211.664 307.49 206.297 311.879 207.425C316.268 208.554 318.208 215.754 316.954 220.625Z" fill="#E6E6E6"/>
<path d="M279.377 293.419C285.258 295.708 288.862 306.103 288.862 306.103C288.862 306.103 279.174 311.325 273.293 309.036C267.412 306.748 261.19 300.3 262.87 295.987C264.549 291.674 273.497 291.131 279.377 293.419Z" fill="#F2F3F3"/>
<path d="M292.27 236.227C293.513 237.149 294.794 238.09 296.288 238.496C297.782 238.901 299.558 238.653 300.572 237.485C301.831 236.037 301.494 233.794 300.701 232.047C299.13 228.586 293.336 222.714 288.885 224.399C282.46 226.831 289.404 234.102 292.27 236.227Z" fill="#E0E0DF"/>
<path d="M305.419 245.046C304.576 246.091 303.681 247.407 304.143 248.667C304.553 249.785 305.926 250.298 307.103 250.119C308.28 249.941 309.305 249.244 310.282 248.565C312.551 246.991 317.2 243.688 314.232 240.598C311.147 237.386 307.196 242.845 305.419 245.046Z" fill="#E6E6E6"/>
<path d="M286.444 201.079C285.473 201.186 284.49 201.835 284.324 202.797C284.131 203.922 285.064 204.906 285.969 205.602C288.221 207.337 294.99 212.02 296.501 207.502C297.928 203.234 289.436 200.748 286.444 201.079Z" fill="#D9D9D8"/>
<path d="M298.921 186.219C297.525 186.352 296.132 185.846 294.731 185.935C293.331 186.023 291.778 187.149 292.089 188.517C292.377 189.78 293.948 190.203 295.242 190.285C297.453 190.423 299.673 190.27 301.844 189.829C302.347 189.726 302.895 189.577 303.183 189.153C303.749 188.319 302.849 187.202 301.886 186.907C300.923 186.612 299.835 186.71 298.96 186.211L298.921 186.219Z" fill="#E0E0DF"/>
<path d="M312.57 195.826C313.972 195.866 315.329 195.269 316.732 195.265C318.135 195.262 319.759 196.283 319.539 197.668C319.335 198.947 317.795 199.473 316.509 199.64C314.312 199.924 312.087 199.917 309.892 199.62C309.383 199.552 308.827 199.439 308.511 199.034C307.891 198.24 308.715 197.066 309.657 196.708C310.599 196.35 311.691 196.376 312.531 195.82L312.57 195.826Z" fill="#EDEDEC"/>
<path d="M311.189 299.107C311.535 298.815 311.927 298.515 312.381 298.518C312.982 298.523 313.46 299.089 313.572 299.68C313.684 300.271 313.518 300.875 313.346 301.45C312.396 304.629 301.723 327.653 299.268 323.518C297.817 321.074 301.384 312.979 302.436 310.688C304.471 306.234 307.459 302.281 311.189 299.107Z" fill="#EDEDEC"/>
<path d="M304.805 187.095C305.652 185.195 306.569 183.206 308.252 181.983C309.935 180.759 312.632 180.668 313.858 182.349C315.228 184.229 313.858 187.085 311.758 188.088C309.658 189.09 307.198 188.788 304.893 188.465C304.875 188.123 304.856 187.781 304.837 187.439L304.805 187.095Z" fill="#E0E0DF"/>
<path d="M312.263 360.713C300.834 362.648 289.161 362.648 277.733 360.713L264.301 321.096H325.694L312.263 360.713Z" fill="#EDEDEC"/>
<path d="M304.472 64.4033C317.064 64.4033 327.272 54.1994 327.272 41.6123C327.272 29.0252 317.064 18.8213 304.472 18.8213C291.879 18.8213 281.671 29.0252 281.671 41.6123C281.671 54.1994 291.879 64.4033 304.472 64.4033Z" fill="#D9D9D8"/>
<path d="M325.438 44.303C327.452 31.8794 319.01 20.1755 306.582 18.1616C294.153 16.1476 282.444 24.5863 280.429 37.0098C278.415 49.4334 286.857 61.1373 299.285 63.1513C311.714 65.1652 323.423 56.7266 325.438 44.303Z" fill="#E6E6E6"/>
<path opacity="0.8" d="M321.237 40.811C321.237 45.6618 319.309 50.3139 315.878 53.744C312.446 57.174 307.792 59.101 302.939 59.101C298.087 59.1009 293.433 57.1739 290.001 53.7439C286.57 50.3139 284.642 45.6618 284.642 40.811C284.642 38.4091 285.115 36.0306 286.035 33.8115C286.954 31.5924 288.302 29.576 290.001 27.8776C291.7 26.1791 293.717 24.8318 295.937 23.9126C298.157 22.9934 300.537 22.5202 302.939 22.5202C305.342 22.5202 307.722 22.9933 309.942 23.9125C312.162 24.8317 314.179 26.179 315.878 27.8775C317.577 29.576 318.925 31.5923 319.844 33.8115C320.764 36.0306 321.237 38.4091 321.237 40.811Z" fill="white"/>
<path d="M301.951 42.5368C301.603 42.189 301.408 41.7172 301.408 41.2253C301.408 40.7334 301.603 40.2616 301.951 39.9138C302.299 39.566 302.771 39.3706 303.263 39.3706C303.755 39.3706 304.227 39.566 304.575 39.9138C304.747 40.086 304.884 40.2904 304.977 40.5154C305.071 40.7404 305.119 40.9816 305.119 41.2252C305.119 41.4687 305.071 41.7098 304.977 41.9348C304.884 42.1598 304.747 42.3643 304.575 42.5365C304.403 42.7087 304.198 42.8454 303.973 42.9386C303.748 43.0319 303.507 43.0799 303.263 43.0799C303.02 43.08 302.778 43.032 302.553 42.9388C302.328 42.8456 302.123 42.709 301.951 42.5368Z" fill="#D9D9D8"/>
<path d="M302.93 40.5923L313.736 40.2648L313.77 41.3792L303.98 41.676L302.926 58.6952L301.814 58.6269L302.93 40.5923Z" fill="#D9D9D8"/>
<path d="M502.149 339.115L507.733 250.238C509.807 217.226 483.581 189.313 450.491 189.313C420.069 189.313 394.94 213.056 393.227 243.417L387.372 347.223H493.511C495.712 347.223 497.831 346.385 499.436 344.878C501.04 343.372 502.01 341.311 502.149 339.115Z" fill="#22B290"/>
<path opacity="0.1" d="M502.351 335.896L507.733 250.238C509.807 217.226 483.581 189.313 450.491 189.313C420.069 189.313 394.94 213.056 393.227 243.417L387.372 347.223H490.284C493.36 347.223 496.319 346.052 498.561 343.947C500.803 341.843 502.158 338.964 502.351 335.896Z" fill="#030504"/>
<path d="M484.922 347.223L491.016 250.238C493.09 217.226 466.864 189.313 433.774 189.313C403.352 189.313 378.223 213.056 376.51 243.417L370.655 347.223H484.922Z" fill="#22B290"/>
<path d="M486.749 363.92H488.215C488.962 363.92 489.658 363.289 489.78 362.43L491.943 347.228H483.021L485.184 362.43C485.306 363.288 486.002 363.92 486.749 363.92Z" fill="#22B290"/>
<path opacity="0.7" d="M486.749 363.92H488.215C488.962 363.92 489.658 363.289 489.78 362.43L491.943 347.228H483.021L485.184 362.43C485.306 363.288 486.002 363.92 486.749 363.92Z" fill="white"/>
<path d="M343.08 363.92H344.409C345.086 363.92 345.717 363.289 345.828 362.43L347.788 347.228H339.701L341.661 362.43C341.772 363.288 342.402 363.92 343.08 363.92Z" fill="#22B290"/>
<path opacity="0.5" d="M343.08 363.92H344.409C345.086 363.92 345.717 363.289 345.828 362.43L347.788 347.228H339.701L341.661 362.43C341.772 363.288 342.402 363.92 343.08 363.92Z" fill="white"/>
<path d="M384.444 363.92H385.773C386.45 363.92 387.081 363.289 387.192 362.43L389.152 347.228H381.065L383.026 362.43C383.136 363.288 383.767 363.92 384.444 363.92Z" fill="#22B290"/>
<path opacity="0.7" d="M384.444 363.92H385.773C386.45 363.92 387.081 363.289 387.192 362.43L389.152 347.228H381.065L383.026 362.43C383.136 363.288 383.767 363.92 384.444 363.92Z" fill="white"/>
<path d="M442.215 363.92H443.682C444.429 363.92 445.124 363.289 445.246 362.43L447.409 347.228H438.488L440.651 362.43C440.773 363.288 441.468 363.92 442.215 363.92Z" fill="#22B290"/>
<path opacity="0.5" d="M442.215 363.92H443.682C444.429 363.92 445.124 363.289 445.246 362.43L447.409 347.228H438.488L440.651 362.43C440.773 363.288 441.468 363.92 442.215 363.92Z" fill="white"/>
<path d="M393.799 310.596H354.698L352.107 272.912L351.555 264.823V264.811L351.3 261.088C351.228 260.11 351.1 259.137 350.918 258.174C350.875 257.963 350.823 257.741 350.78 257.53C350.758 257.37 350.718 257.213 350.663 257.061C349.606 253.223 347.551 249.734 344.707 246.947C341.406 243.751 337.169 241.725 332.498 241.445H369.274C369.677 241.422 370.081 241.41 370.484 241.41C375.591 241.41 380.251 243.505 383.808 246.947C386.652 249.734 388.707 253.223 389.764 257.061C389.819 257.213 389.859 257.37 389.881 257.53C390.143 258.701 390.317 259.891 390.401 261.088L390.656 264.811V264.823L393.799 310.596Z" fill="#22B290"/>
<path opacity="0.1" d="M393.799 310.596H354.698L352.107 272.912L351.555 264.823V264.811L351.3 261.088C351.228 260.11 351.1 259.137 350.918 258.174C350.875 257.963 350.823 257.741 350.78 257.53C350.758 257.37 350.718 257.213 350.663 257.061C349.606 253.223 347.551 249.734 344.707 246.947C341.406 243.751 337.169 241.725 332.498 241.445H369.274C369.677 241.422 370.081 241.41 370.484 241.41C375.591 241.41 380.251 243.505 383.808 246.947C386.652 249.734 388.707 253.223 389.764 257.061C389.819 257.213 389.859 257.37 389.881 257.53C390.143 258.701 390.317 259.891 390.401 261.088L390.656 264.811V264.823L393.799 310.596Z" fill="#030504"/>
<g opacity="0.1">
<path d="M424.788 290.522H440.496C444.314 290.522 447.409 292.938 447.409 295.918V305.204C447.409 308.184 444.314 310.6 440.496 310.6H424.788V290.522Z" fill="#030504"/>
</g>
<path d="M355.627 310.6H434.861C435.372 310.6 435.787 310.185 435.787 309.674V291.448C435.787 290.936 435.372 290.522 434.861 290.522H355.627C355.115 290.522 354.701 290.936 354.701 291.448V309.674C354.701 310.185 355.115 310.6 355.627 310.6Z" fill="#22B290"/>
<path d="M523.786 263.676C523.787 268.925 521.933 274.005 518.552 278.021C515.171 282.037 510.479 284.73 505.305 285.626L501.253 339.183C500.902 343.737 497.6 347.226 493.641 347.226H450.507C454.466 347.226 457.769 343.737 458.12 339.183L460.287 310.596L462.171 285.626C465.561 285.042 468.769 283.68 471.543 281.646C474.318 279.613 476.582 276.964 478.157 273.907C478.368 273.521 478.556 273.111 478.731 272.701C480.005 269.863 480.659 266.786 480.652 263.675C480.651 262.149 480.495 260.627 480.183 259.133C480.066 258.535 479.914 257.938 479.75 257.365C478.965 254.746 477.711 252.291 476.049 250.119L476.038 250.108C473.955 247.404 471.28 245.215 468.219 243.707C465.157 242.199 461.79 241.413 458.377 241.41H501.511C504.924 241.413 508.291 242.199 511.353 243.707C514.414 245.215 517.089 247.404 519.172 250.108L519.183 250.119C522.173 254.006 523.791 258.773 523.786 263.676Z" fill="#22B290"/>
<path opacity="0.1" d="M523.786 263.676C523.787 268.925 521.933 274.005 518.552 278.021C515.171 282.037 510.479 284.73 505.305 285.626L501.253 339.183C500.902 343.737 497.6 347.226 493.641 347.226H450.507C454.466 347.226 457.769 343.737 458.12 339.183L460.287 310.596L462.171 285.626C465.561 285.042 468.769 283.68 471.543 281.646C474.318 279.613 476.582 276.964 478.157 273.907C478.368 273.521 478.556 273.111 478.731 272.701C480.005 269.863 480.659 266.786 480.652 263.675C480.651 262.149 480.495 260.627 480.183 259.133C480.066 258.535 479.914 257.938 479.75 257.365C478.965 254.746 477.711 252.291 476.049 250.119L476.038 250.108C473.955 247.404 471.28 245.215 468.219 243.707C465.157 242.199 461.79 241.413 458.377 241.41H501.511C504.924 241.413 508.291 242.199 511.353 243.707C514.414 245.215 517.089 247.404 519.172 250.108L519.183 250.119C522.173 254.006 523.791 258.773 523.786 263.676Z" fill="#030504"/>
<path d="M480.656 263.678C480.656 274.677 473.415 283.836 463.9 285.623L460.227 339.18C459.91 343.739 456.918 347.229 453.321 347.229H338.148C334.561 347.229 331.569 343.739 331.242 339.18L327.56 285.538C318.237 283.582 311.187 274.539 311.187 263.678C311.164 259.119 312.456 254.65 314.908 250.807C316.77 247.878 319.331 245.457 322.361 243.763C325.118 242.217 328.225 241.405 331.386 241.404C336.489 241.404 341.151 243.509 344.709 246.946C347.554 249.73 349.609 253.219 350.665 257.057C350.718 257.212 350.756 257.371 350.78 257.533C351.043 258.703 351.216 259.891 351.298 261.087L351.557 264.809V264.82L354.693 310.593H436.776L440.171 261.086C440.66 254.095 444.065 248.268 448.794 245.507C451.784 243.123 455.432 241.71 459.248 241.457C459.65 241.418 460.054 241.4 460.457 241.404C463.523 241.401 466.541 242.168 469.233 243.635C469.318 243.673 469.401 243.716 469.482 243.762C472.269 245.314 474.661 247.485 476.474 250.108L476.484 250.118C479.225 254.107 480.681 258.838 480.656 263.678Z" fill="#22B290"/>
<path opacity="0.1" d="M434.876 347.229H338.148C334.561 347.229 331.569 343.739 331.242 339.18L327.56 285.538C318.237 283.582 311.187 274.539 311.187 263.678C311.164 259.119 312.456 254.65 314.908 250.807C316.77 247.878 319.331 245.457 322.361 243.763C325.118 242.217 328.225 241.405 331.386 241.404C336.489 241.404 341.151 243.509 344.709 246.946C347.554 249.73 349.609 253.219 350.665 257.057C350.718 257.212 350.756 257.371 350.78 257.533C351.043 258.703 351.216 259.891 351.298 261.087L351.557 264.809V264.82L354.693 310.593H436.776L434.876 347.229Z" fill="white"/>
<path d="M422.326 194.919C420.414 195.977 418.661 196.93 416.856 197.857C415.05 198.785 413.218 199.656 411.386 200.506C407.692 202.194 403.951 203.792 400.095 205.2C396.217 206.648 392.268 207.897 388.263 208.943C384.1 210.064 379.848 210.825 375.554 211.217L374.648 211.3L374.211 211.268C370.332 210.82 366.889 210.116 363.437 209.4C359.985 208.684 356.562 207.874 353.174 207.012C349.786 206.151 346.423 205.249 343.065 204.282C339.706 203.316 336.361 202.319 333.036 201.183L334.566 193.55C341.478 193.997 348.384 194.69 355.226 195.367L365.44 196.391C368.803 196.715 372.244 197.001 375.258 197.117L373.927 197.147C377.377 196.535 380.779 195.676 384.107 194.578C387.556 193.451 391.001 192.228 394.434 190.746C397.867 189.264 401.29 187.76 404.679 186.146C406.41 185.353 408.101 184.514 409.749 183.693C411.397 182.872 413.154 181.994 414.66 181.206L422.326 194.919Z" fill="#5E63F2"/>
<path opacity="0.1" d="M422.326 194.919C420.414 195.977 418.661 196.93 416.856 197.857C415.05 198.785 413.218 199.656 411.386 200.506C407.692 202.194 403.951 203.792 400.095 205.2C396.217 206.648 392.268 207.897 388.263 208.943C384.1 210.064 379.848 210.825 375.554 211.217L374.648 211.3L374.211 211.268C370.332 210.82 366.889 210.116 363.437 209.4C359.985 208.684 356.562 207.874 353.174 207.012C349.786 206.151 346.423 205.249 343.065 204.282C339.706 203.316 336.361 202.319 333.036 201.183L334.566 193.55C341.478 193.997 348.384 194.69 355.226 195.367L365.44 196.391C368.803 196.715 372.244 197.001 375.258 197.117L373.927 197.147C377.377 196.535 380.779 195.676 384.107 194.578C387.556 193.451 391.001 192.228 394.434 190.746C397.867 189.264 401.29 187.76 404.679 186.146C406.41 185.353 408.101 184.514 409.749 183.693C411.397 182.872 413.154 181.994 414.66 181.206L422.326 194.919Z" fill="#030504"/>
<path d="M333.106 189.404C331.483 188.261 329.687 187.384 327.788 186.805L324.942 197.916L333.47 201.502L334.438 200.316C337.177 196.962 336.625 191.929 333.106 189.404Z" fill="#F6B0B1"/>
<path d="M324.942 197.916L327.787 186.805L319.826 182.466L317.424 190.29L324.942 197.916Z" fill="#F6B0B1"/>
<path opacity="0.2" d="M395.546 206.161L395.855 206.147L395.991 206.174C400.193 205.718 412.535 203.644 421.471 194.84C420.132 192.273 418.309 190.274 416.077 189.827C409.923 188.705 402.379 193.112 395.546 206.161Z" fill="#030504"/>
<path d="M402.772 263.667C413.306 235.234 406.376 209.085 407.7 194.612C408.031 191.047 409.51 187.685 411.917 185.032C414.323 182.38 417.526 180.58 421.044 179.904C428.244 178.513 437.131 176.956 445.618 175.811C447.986 175.49 450.396 175.684 452.683 176.38C454.969 177.075 457.079 178.255 458.868 179.839C460.657 181.423 462.084 183.374 463.05 185.559C464.016 187.744 464.5 190.112 464.467 192.501C463.725 235.397 449.977 263.667 449.977 263.667L427.771 263.571L402.772 263.667Z" fill="#22B290"/>
<path opacity="0.8" d="M402.772 263.667C413.306 235.234 406.376 209.085 407.7 194.612C408.031 191.047 409.51 187.685 411.917 185.032C414.323 182.38 417.526 180.58 421.044 179.904C428.244 178.513 437.131 176.956 445.618 175.811C447.986 175.49 450.396 175.684 452.683 176.38C454.969 177.075 457.079 178.255 458.868 179.839C460.657 181.423 462.084 183.374 463.05 185.559C464.016 187.744 464.5 190.112 464.467 192.501C463.725 235.397 449.977 263.667 449.977 263.667L427.771 263.571L402.772 263.667Z" fill="white"/>
<path d="M318.518 360.697L315.698 379.199H324.647L330.521 360.697H318.518Z" fill="#F6B0B1"/>
<path d="M314.56 375.072L326.515 374.792C326.608 374.782 326.702 374.791 326.792 374.819C326.881 374.847 326.964 374.894 327.034 374.955C327.105 375.017 327.162 375.093 327.201 375.178C327.241 375.262 327.263 375.354 327.265 375.448L327.291 384.221C327.236 385.179 326.357 385.98 325.323 386.013C321.166 386.043 319.188 385.859 313.927 385.983C308.334 385.963 302.746 385.596 297.198 384.882C292.941 384.154 294.091 380.158 296.017 380.093C304.712 379.775 309.568 377.965 312.687 375.723C313.229 375.318 313.883 375.091 314.56 375.072Z" fill="#5E63F2"/>
<path opacity="0.2" d="M317.387 368.118L318.517 360.697H330.52L327.63 369.948L317.387 368.118Z" fill="#040505"/>
<path d="M397.259 257.01C397.259 257.01 324.523 257.733 323.391 280.762C321.781 313.871 316.185 364.349 316.185 364.349L329.903 368.118C329.903 368.118 349.468 318.067 350.232 292.211C370.69 288.136 423.296 292.211 429.474 278.779C432.502 271.793 433.304 264.309 431.806 257.01L397.259 257.01Z" fill="#22B290"/>
<path opacity="0.6" d="M397.259 257.01C397.259 257.01 324.523 257.733 323.391 280.762C321.781 313.871 316.185 364.349 316.185 364.349L329.903 368.118C329.903 368.118 349.468 318.067 350.232 292.211C370.69 288.136 423.296 292.211 429.474 278.779C432.502 271.793 433.304 264.309 431.806 257.01L397.259 257.01Z" fill="#030504"/>
<path d="M382.515 367.849L387.371 380.404H397.176L393.799 367.2L382.515 367.849Z" fill="#F6B0B1"/>
<path opacity="0.2" d="M394.71 370.764L392.807 361.105L380.422 362.644L383.589 371.041L394.71 370.764Z" fill="#040505"/>
<path d="M384.711 376.245H397.226C397.429 376.23 397.63 376.297 397.785 376.43C397.939 376.563 398.035 376.752 398.051 376.955C398.051 376.959 398.051 376.964 398.051 376.968L398.664 386.345C398.664 387.372 397.796 388.211 396.712 388.23C392.357 388.159 390.267 387.91 384.76 387.91C381.381 387.91 374.549 388.242 369.868 388.242C365.187 388.242 365.325 383.867 367.303 383.5C376.2 381.722 379.642 379.268 382.783 376.921C383.339 376.499 384.013 376.263 384.711 376.245Z" fill="#5E63F2"/>
<path d="M416.858 257.01C416.858 257.01 350.887 261.48 352.509 284.497C354.282 309.696 380.701 368.117 380.701 368.117H394.04C394.04 368.117 385.174 315.097 381.151 289.427C399.755 289.427 442.881 292.232 449.073 278.768C452.102 271.781 452.899 264.296 451.392 256.998L416.858 257.01Z" fill="#22B290"/>
<path opacity="0.5" d="M416.858 257.01C416.858 257.01 350.887 261.48 352.509 284.497C354.282 309.696 380.701 368.117 380.701 368.117H394.04C394.04 368.117 385.174 315.097 381.151 289.427C399.755 289.427 442.881 292.232 449.073 278.768C452.102 271.781 452.899 264.296 451.392 256.998L416.858 257.01Z" fill="#030504"/>
<path d="M426.849 163.814C428.371 169.681 428.848 176.985 420.643 180.024C418.369 183.65 417.252 187.471 426.024 186.109C433 185.209 439.349 181.618 443.715 176.105C438.465 171.518 439.426 157.428 440.753 149.479L426.849 163.814Z" fill="#F6B0B1"/>
<path d="M425.917 174.491C418.392 175.784 412.192 181.603 408.873 188.476C405.553 195.35 404.754 203.174 404.817 210.806C404.879 218.439 405.75 226.058 405.549 233.689C405.317 242.507 403.189 248.716 400.155 256.999C400.155 258.969 403.135 260.08 405.665 260.592C410.916 249.125 414.371 238.164 414.006 225.559C413.741 216.413 413.611 205.998 415.102 196.971C416.571 188.079 427.385 176.184 426.868 174.562L425.917 174.491Z" fill="#5E63F2"/>
<path opacity="0.3" d="M433.258 168.114C431.479 169.283 429.368 169.908 427.696 169.462C427.71 168.035 427.606 166.61 427.385 165.2L436.488 157.724C436.69 158.694 436.819 159.678 436.873 160.667C437.034 163.606 435.72 166.497 433.258 168.114Z" fill="#030504"/>
<path d="M419.647 129.102C410.018 134.535 409.919 149.917 412.886 158.807C413.73 161.43 415.368 163.727 417.573 165.382C420.401 167.503 423.956 168.414 427.456 167.915C430.956 167.417 434.114 165.549 436.236 162.722C440.939 156.772 440.263 150.77 440.032 140.447C439.783 130.134 429.276 123.668 419.647 129.102Z" fill="#F6B0B1"/>
<path opacity="0.2" d="M422.744 156.736C419.641 158.063 416.24 159.79 413.108 159.417C413.999 161.79 415.548 163.859 417.573 165.382C420.401 167.503 423.956 168.414 427.455 167.915C430.955 167.417 434.114 165.549 436.236 162.722C440.083 157.855 441.3 154.555 440.167 145.673C434.162 152.728 429.378 153.899 422.744 156.736Z" fill="#040505"/>
<path d="M432.05 132.524C429.977 135.708 430.403 140.295 433.027 143.044C433.896 143.954 434.96 144.665 435.799 145.602C437.1 147.068 437.777 148.983 437.688 150.941C438.015 148.423 440.368 146.329 442.907 146.295L438.989 158.388C444.167 156.049 447.934 150.847 448.542 145.201C449.378 137.435 439.744 120.706 432.05 132.524Z" fill="#5E63F2"/>
<path d="M409.595 133.112C408.907 133.964 408.255 134.898 408.061 135.975C407.868 137.052 408.254 138.302 409.22 138.819C410.003 139.238 410.956 139.097 411.831 138.945L420.611 137.419C425.647 136.544 430.686 135.667 435.657 134.478C437.887 133.944 440.394 133.104 441.273 130.987C444.124 124.118 431.952 123.225 427.893 123.42C420.923 123.755 413.923 127.756 409.595 133.112Z" fill="#5E63F2"/>
<path d="M441.593 144.576C438.704 145.227 437.476 149.371 437.559 152.03C437.576 155.044 439.793 157.012 442.302 155.193C444.198 153.787 445.488 151.712 445.912 149.391C446.425 146.538 444.483 143.925 441.593 144.576Z" fill="#F6B0B1"/>
<path d="M421.231 155.07C421.231 155.07 419.585 156.152 418.237 155.524C419.351 153.044 419.203 153.604 419.541 149.374L421.231 155.07Z" fill="#EF6B6D"/>
<path d="M426.303 141.312C425.475 140.39 423.227 140.035 422.001 140.215C421.992 140.217 421.983 140.218 421.973 140.22C421.912 140.229 421.85 140.226 421.79 140.211C421.73 140.197 421.673 140.17 421.624 140.134C421.574 140.097 421.532 140.051 421.5 139.998C421.468 139.946 421.447 139.887 421.437 139.826C421.42 139.695 421.454 139.562 421.531 139.454C421.608 139.346 421.724 139.272 421.853 139.246C423.391 139.013 425.957 139.477 426.998 140.632C427.001 140.635 427.005 140.639 427.008 140.643C427.051 140.691 427.083 140.747 427.104 140.809C427.125 140.87 427.134 140.934 427.13 140.999C427.126 141.063 427.109 141.126 427.081 141.184C427.053 141.242 427.013 141.294 426.965 141.337C426.902 141.395 426.828 141.442 426.748 141.474C426.666 141.488 426.582 141.48 426.504 141.452C426.426 141.423 426.357 141.375 426.303 141.312Z" fill="#5E63F2"/>
<path d="M412.071 143.422C412.061 143.417 412.051 143.41 412.041 143.404C411.99 143.37 411.945 143.325 411.911 143.274C411.877 143.223 411.853 143.165 411.841 143.105C411.829 143.044 411.828 142.982 411.84 142.921C411.852 142.861 411.876 142.803 411.911 142.752C412.298 142.059 412.841 141.465 413.496 141.017C414.15 140.568 414.9 140.276 415.686 140.164C415.698 140.163 415.709 140.162 415.72 140.162C415.78 140.162 415.84 140.174 415.896 140.197C415.952 140.221 416.002 140.254 416.045 140.297C416.088 140.34 416.121 140.39 416.144 140.446C416.167 140.502 416.179 140.562 416.179 140.622C416.184 140.754 416.137 140.883 416.049 140.982C415.961 141.081 415.837 141.141 415.705 141.151C415.084 141.249 414.494 141.488 413.979 141.85C413.465 142.212 413.041 142.687 412.739 143.238C412.697 143.308 412.639 143.368 412.57 143.411C412.501 143.455 412.423 143.482 412.342 143.49C412.246 143.498 412.151 143.474 412.071 143.422Z" fill="#5E63F2"/>
<path d="M420.37 159.54C421.572 160.951 423.281 163.768 423.281 163.768C423.512 163.676 423.743 163.585 423.968 163.478C427.064 162.138 427.945 160.272 427.983 158.61C427.981 157.774 427.811 156.947 427.482 156.178C427.307 155.729 427.081 155.302 426.808 154.905C425.698 156.808 422.933 158.328 421.416 159.062C420.785 159.379 420.37 159.54 420.37 159.54Z" fill="#1D262B"/>
<path d="M421.416 159.063L421.857 159.675C421.982 159.849 422.164 159.974 422.372 160.029C422.579 160.084 422.799 160.065 422.994 159.975C425.282 158.898 426.798 157.751 427.35 156.533C427.397 156.414 427.419 156.287 427.413 156.159C427.406 156.03 427.373 155.905 427.314 155.791C427.172 155.482 427.002 155.186 426.808 154.906C425.699 156.809 422.933 158.328 421.416 159.063Z" fill="white"/>
<path d="M423.968 163.478C427.064 162.139 427.945 160.273 427.983 158.611C426.95 159.117 425.772 159.868 424.915 160.927C424.334 161.655 424.003 162.549 423.968 163.478Z" fill="#EA4042"/>
<path d="M415.609 146.909C415.071 147.007 414.765 147.772 414.926 148.597C415.087 149.422 415.662 150.016 416.196 149.907C416.73 149.798 417.04 149.044 416.879 148.219C416.736 147.411 416.146 146.81 415.609 146.909Z" fill="#5E63F2"/>
<path d="M425.044 145.344C424.506 145.442 424.2 146.207 424.361 147.032C424.522 147.857 425.098 148.451 425.632 148.342C426.165 148.233 426.475 147.479 426.314 146.654C426.172 145.845 425.582 145.245 425.044 145.344Z" fill="#5E63F2"/>
<path opacity="0.9" d="M411.446 151.324L418.385 149.766L418.503 152.71L412.054 154.252L411.446 151.324Z" fill="white"/>
<g opacity="0.8">
<path opacity="0.9" d="M420.499 149.303L421.328 152.009L430.227 150.094L429.699 146.966L420.499 149.303Z" fill="white"/>
</g>
<path d="M418.428 150.849L418.385 149.766L420.499 149.303L420.813 150.327L418.428 150.849Z" fill="#5E63F2"/>
<path d="M415.902 262.403C415.902 262.403 428.426 267.252 431.285 268.205C434.657 269.328 438.077 270.461 441.594 270.568C445.112 270.675 448.8 269.636 451.346 266.925C454.339 263.738 455.265 258.896 456.046 254.364L462.935 214.369C464.068 207.795 466.925 197.917 466.682 194.153C466.235 187.231 461.823 179.059 450.593 174.557C446.231 172.808 441.923 173.479 438.246 177.876C436.053 180.5 429.651 186.805 428.079 197.917C426.819 206.822 424.868 218.355 424.987 227.4C425.143 239.267 420.415 254.265 415.902 262.403Z" fill="#5E63F2"/>
<path d="M466.077 190.498C467.354 202.087 460.947 231.293 459.71 233.043C454.458 249.988 440.021 240.855 437.928 240.074C434.288 238.73 430.583 236.108 427.12 234.358C420.398 231.022 414.037 228.337 407.787 224.185L411.308 217.238C418.152 219.576 437.543 224.58 440.738 225.361C442.127 225.723 447.524 228.556 447.467 224.821C448.234 223.58 449.291 199.391 451.61 190.84C451.874 189.88 452.333 188.985 452.958 188.21L453.169 187.946C456.917 183.255 464.398 184.734 466.076 190.499L466.077 190.498Z" fill="#5E63F2"/>
<path opacity="0.1" d="M466.077 190.498C467.354 202.087 460.947 231.293 459.71 233.043C454.458 249.988 440.021 240.855 437.928 240.074C434.288 238.73 430.583 236.108 427.12 234.358C420.398 231.022 414.037 228.337 407.787 224.185L411.308 217.238C418.152 219.576 437.543 224.58 440.738 225.361C442.127 225.723 447.524 228.556 447.467 224.821C448.234 223.58 449.291 199.391 451.61 190.84C451.874 189.88 452.333 188.985 452.958 188.21L453.169 187.946C456.917 183.255 464.398 184.734 466.076 190.499L466.077 190.498Z" fill="white"/>
<path d="M408.551 234.249H376.004L372.288 191.797H404.835L408.551 234.249Z" fill="#5E63F2"/>
<path opacity="0.5" d="M408.551 234.249H376.004L372.288 191.797H404.835L408.551 234.249Z" fill="white"/>
<path d="M407.402 234.035H374.855L371.139 191.582H403.687L407.402 234.035Z" fill="#22B290"/>
<path opacity="0.8" d="M407.402 234.035H374.855L371.139 191.582H403.687L407.402 234.035Z" fill="white"/>
<path d="M394.489 194.235H380.8L380.336 188.93H394.025L394.489 194.235Z" fill="#22B290"/>
<path d="M380.336 188.93L381.685 188.464H395.859L396.051 190.722L394.997 191.944L394.927 193.789L394.489 194.235L394.025 188.93L380.336 188.93Z" fill="#22B290"/>
<path opacity="0.5" d="M380.336 188.93L381.685 188.464H395.859L396.051 190.722L394.997 191.944L394.927 193.789L394.489 194.235L394.025 188.93L380.336 188.93Z" fill="#030504"/>
<path d="M413.897 219.542L414.64 223.509C412.882 228.086 402.79 226.877 402.79 226.877L402.772 215.152L411.671 217.219C412.227 217.35 412.732 217.64 413.127 218.052C413.522 218.464 413.789 218.981 413.897 219.542Z" fill="#F6B0B1"/>
<path d="M402.772 215.152L402.823 226.904L393.891 227.126L391.843 216.786L402.772 215.152Z" fill="#F6B0B1"/>
<path d="M436.776 310.593L440.171 261.086C440.66 254.095 444.065 248.268 448.794 245.507C451.784 243.123 455.432 241.71 459.248 241.457C459.65 241.418 460.054 241.4 460.457 241.404C463.523 241.401 466.541 242.168 469.233 243.635C469.318 243.673 469.401 243.716 469.482 243.762C472.269 245.314 474.661 247.485 476.474 250.108L476.484 250.118C479.225 254.107 480.681 258.838 480.656 263.677C480.656 274.676 473.415 283.835 463.9 285.622L460.227 339.179C459.91 343.738 456.918 347.228 453.321 347.228H434.876L436.776 310.593Z" fill="#22B290"/>
<path opacity="0.1" d="M436.776 310.593L440.171 261.086C440.66 254.095 444.065 248.268 448.794 245.507C451.784 243.123 455.432 241.71 459.248 241.457C459.65 241.418 460.054 241.4 460.457 241.404C463.523 241.401 466.541 242.168 469.233 243.635C469.318 243.673 469.401 243.716 469.482 243.762C472.269 245.314 474.661 247.485 476.474 250.108L476.484 250.118C479.225 254.107 480.681 258.838 480.656 263.677C480.656 274.676 473.415 283.835 463.9 285.622L460.227 339.179C459.91 343.738 456.918 347.228 453.321 347.228H434.876L436.776 310.593Z" fill="white"/>
<path d="M268.968 80.4695V126.427C268.968 127.578 268.51 128.682 267.695 129.496C266.881 130.31 265.776 130.768 264.625 130.768H217.483L200.658 143.772C200.104 144.191 199.429 144.419 198.734 144.42C198.311 144.42 197.891 144.337 197.5 144.176C197.109 144.014 196.754 143.777 196.455 143.477C196.156 143.178 195.918 142.823 195.757 142.432C195.595 142.041 195.512 141.623 195.512 141.2V130.768H192.883C191.731 130.768 190.627 130.31 189.812 129.496C188.998 128.682 188.54 127.578 188.54 126.426V80.4584C188.545 79.3117 189.006 78.214 189.82 77.4062C190.634 76.5984 191.736 76.1465 192.883 76.1497H264.647C265.793 76.1499 266.892 76.6051 267.702 77.4152C268.513 78.2253 268.968 79.3239 268.968 80.4695Z" stroke="#5E63F2" stroke-width="0.499629" stroke-miterlimit="10"/>
<path d="M224.877 69.6807H215.893V70.78H224.877V69.6807Z" fill="#22B290"/>
<path d="M182.849 82.6293H181.749V77.2102C181.752 75.2094 182.549 73.2915 183.966 71.8777C185.382 70.4639 187.302 69.6699 189.304 69.6698H209.35V70.769H189.304C187.594 70.769 185.954 71.4472 184.743 72.6549C183.533 73.8625 182.852 75.5009 182.849 77.2102V82.6293Z" fill="#22B290"/>
<path d="M234.002 99.0608H208.754C208.171 99.0607 207.612 98.829 207.199 98.4168C206.787 98.0045 206.555 97.4455 206.555 96.8625C206.555 96.2795 206.787 95.7203 207.199 95.308C207.612 94.8957 208.171 94.6641 208.754 94.664H234.002C234.585 94.6641 235.144 94.8958 235.557 95.3081C235.969 95.7203 236.201 96.2795 236.201 96.8625C236.201 97.1512 236.144 97.4371 236.034 97.7038C235.923 97.9705 235.761 98.2129 235.557 98.417C235.353 98.6212 235.11 98.7831 234.843 98.8935C234.576 99.004 234.29 99.0608 234.002 99.0608Z" fill="#22B290"/>
<path d="M230.502 107.759H208.754C208.171 107.759 207.612 107.527 207.199 107.115C206.787 106.703 206.555 106.143 206.555 105.561C206.555 104.977 206.787 104.418 207.199 104.006C207.612 103.594 208.171 103.362 208.754 103.362H230.502C231.086 103.362 231.645 103.594 232.057 104.006C232.47 104.418 232.702 104.977 232.702 105.561C232.702 106.144 232.47 106.703 232.057 107.115C231.645 107.527 231.085 107.759 230.502 107.759Z" fill="#22B290"/>
<path d="M227.004 116.456H208.755C208.466 116.456 208.18 116.4 207.913 116.289C207.646 116.179 207.404 116.017 207.2 115.813C206.995 115.608 206.833 115.366 206.723 115.099C206.612 114.832 206.555 114.547 206.555 114.258C206.555 113.675 206.787 113.116 207.199 112.703C207.612 112.291 208.171 112.06 208.754 112.06H227.003C227.292 112.06 227.578 112.116 227.845 112.227C228.111 112.337 228.354 112.499 228.558 112.703C228.762 112.907 228.924 113.15 229.035 113.417C229.145 113.683 229.202 113.969 229.202 114.258C229.202 114.841 228.971 115.4 228.558 115.812C228.146 116.224 227.587 116.456 227.004 116.456Z" fill="#22B290"/>
<path d="M175.258 295.817H159.186C155.279 295.817 152.112 298.289 152.112 301.338V310.839C152.112 313.888 155.279 316.36 159.186 316.36H175.258V295.817Z" fill="#22B290"/>
<path d="M100.587 340.536L95.0028 251.659C92.9287 218.648 119.154 190.735 152.245 190.735C182.666 190.735 207.796 214.477 209.508 244.838L215.364 348.645H109.224C107.022 348.645 104.904 347.806 103.299 346.3C101.695 344.793 100.725 342.732 100.587 340.536Z" fill="#22B290"/>
<path opacity="0.1" d="M100.385 337.317L95.0028 251.659C92.9287 218.648 119.154 190.735 152.245 190.735C182.666 190.735 207.796 214.477 209.508 244.838L215.364 348.645H112.45C109.375 348.645 106.416 347.473 104.174 345.369C101.932 343.264 100.577 340.385 100.385 337.317Z" fill="#030504"/>
<path d="M117.813 348.645L111.719 251.659C109.645 218.648 135.871 190.735 168.961 190.735C199.383 190.735 224.512 214.477 226.225 244.838L232.08 348.645H117.813Z" fill="#22B290"/>
<path d="M115.987 365.341H114.52C113.773 365.341 113.078 364.71 112.956 363.852L110.793 348.649H119.714L117.552 363.852C117.43 364.71 116.734 365.341 115.987 365.341Z" fill="#22B290"/>
<path opacity="0.7" d="M115.987 365.341H114.52C113.773 365.341 113.078 364.71 112.956 363.852L110.793 348.649H119.714L117.552 363.852C117.43 364.71 116.734 365.341 115.987 365.341Z" fill="white"/>
<path d="M259.656 365.341H258.326C257.649 365.341 257.019 364.71 256.908 363.852L254.948 348.649H263.035L261.074 363.852C260.964 364.71 260.333 365.341 259.656 365.341Z" fill="#22B290"/>
<path opacity="0.5" d="M259.656 365.341H258.326C257.649 365.341 257.019 364.71 256.908 363.852L254.948 348.649H263.035L261.074 363.852C260.964 364.71 260.333 365.341 259.656 365.341Z" fill="white"/>
<path d="M218.291 365.341H216.962C216.285 365.341 215.654 364.71 215.544 363.852L213.583 348.649H221.67L219.71 363.852C219.599 364.71 218.969 365.341 218.291 365.341Z" fill="#22B290"/>
<path opacity="0.7" d="M218.291 365.341H216.962C216.285 365.341 215.654 364.71 215.544 363.852L213.583 348.649H221.67L219.71 363.852C219.599 364.71 218.969 365.341 218.291 365.341Z" fill="white"/>
<path d="M160.52 365.341H159.053C158.306 365.341 157.611 364.71 157.489 363.852L155.326 348.649H164.247L162.085 363.852C161.962 364.71 161.267 365.341 160.52 365.341Z" fill="#22B290"/>
<path opacity="0.5" d="M160.52 365.341H159.053C158.306 365.341 157.611 364.71 157.489 363.852L155.326 348.649H164.247L162.085 363.852C161.962 364.71 161.267 365.341 160.52 365.341Z" fill="white"/>
<path d="M208.937 312.017H248.038L250.628 274.334L251.18 266.244V266.233L251.435 262.51C251.507 261.532 251.635 260.559 251.817 259.595C251.86 259.384 251.913 259.162 251.955 258.951C251.978 258.791 252.017 258.634 252.072 258.483C253.13 254.645 255.185 251.155 258.028 248.368C261.33 245.173 265.566 243.147 270.237 242.866H233.461C233.058 242.843 232.654 242.831 232.251 242.831C227.144 242.831 222.484 244.927 218.927 248.368C216.084 251.155 214.029 254.645 212.971 258.483C212.916 258.634 212.877 258.791 212.854 258.951C212.592 260.123 212.418 261.312 212.334 262.51L212.079 266.233V266.244L208.937 312.017Z" fill="#22B290"/>
<path opacity="0.1" d="M208.937 312.017H248.038L250.628 274.334L251.18 266.244V266.233L251.435 262.51C251.507 261.532 251.635 260.559 251.817 259.595C251.86 259.384 251.913 259.162 251.955 258.951C251.978 258.791 252.017 258.634 252.072 258.483C253.13 254.645 255.185 251.155 258.028 248.368C261.33 245.173 265.566 243.147 270.237 242.866H233.461C233.058 242.843 232.654 242.831 232.251 242.831C227.144 242.831 222.484 244.927 218.927 248.368C216.084 251.155 214.029 254.645 212.971 258.483C212.916 258.634 212.877 258.791 212.854 258.951C212.592 260.123 212.418 261.312 212.334 262.51L212.079 266.233V266.244L208.937 312.017Z" fill="#030504"/>
<g opacity="0.1">
<path d="M177.948 291.944H162.24C158.421 291.944 155.326 294.36 155.326 297.34V306.625C155.326 309.605 158.422 312.021 162.24 312.021H177.948L177.948 291.944Z" fill="#030504"/>
</g>
<path d="M247.109 291.944H167.874C167.363 291.944 166.948 292.358 166.948 292.869V311.096C166.948 311.607 167.363 312.021 167.874 312.021H247.109C247.62 312.021 248.035 311.607 248.035 311.096V292.869C248.035 292.358 247.62 291.944 247.109 291.944Z" fill="#22B290"/>
<path d="M78.9495 265.097C78.9485 270.346 80.8022 275.427 84.1834 279.443C87.5647 283.458 92.2562 286.152 97.4303 287.047L101.482 340.605C101.834 345.159 105.137 348.647 109.095 348.647H152.228C148.269 348.647 144.967 345.159 144.616 340.605L142.449 312.017L140.564 287.047C137.174 286.463 133.965 285.101 131.191 283.068C128.417 281.035 126.153 278.385 124.577 275.329C124.367 274.942 124.179 274.533 124.004 274.123C122.73 271.285 122.075 268.208 122.083 265.097C122.083 263.571 122.24 262.049 122.551 260.555C122.668 259.958 122.821 259.361 122.984 258.787C123.769 256.168 125.023 253.713 126.685 251.541L126.697 251.529C128.752 248.858 131.387 246.688 134.403 245.184C137.491 243.631 140.901 242.825 144.358 242.831H101.225C98.9934 242.832 96.7747 243.167 94.643 243.826C93.4836 244.186 92.3555 244.641 91.2701 245.184C88.2535 246.688 85.6184 248.858 83.5639 251.529L83.5521 251.541C80.5628 255.428 78.9444 260.194 78.9495 265.097Z" fill="#22B290"/>
<path opacity="0.1" d="M78.9495 265.097C78.9485 270.346 80.8022 275.427 84.1834 279.443C87.5647 283.458 92.2562 286.152 97.4303 287.047L101.482 340.605C101.834 345.159 105.137 348.647 109.095 348.647H152.228C148.269 348.647 144.967 345.159 144.616 340.605L142.449 312.017L140.564 287.047C137.174 286.463 133.965 285.101 131.191 283.068C128.417 281.035 126.153 278.385 124.577 275.329C124.367 274.942 124.179 274.533 124.004 274.123C122.73 271.285 122.075 268.208 122.083 265.097C122.083 263.571 122.24 262.049 122.551 260.555C122.668 259.958 122.821 259.361 122.984 258.787C123.769 256.168 125.023 253.713 126.685 251.541L126.697 251.529C128.752 248.858 131.387 246.688 134.403 245.184C137.491 243.631 140.901 242.825 144.358 242.831H101.225C98.9934 242.832 96.7747 243.167 94.643 243.826C93.4836 244.186 92.3555 244.641 91.2701 245.184C88.2535 246.688 85.6184 248.858 83.5639 251.529L83.5521 251.541C80.5628 255.428 78.9444 260.194 78.9495 265.097Z" fill="#030504"/>
<path d="M122.079 265.099C122.079 276.098 129.32 285.257 138.835 287.045L142.509 340.602C142.825 345.16 145.818 348.65 149.414 348.65H264.587C268.174 348.65 271.167 345.16 271.493 340.602L275.176 286.96C284.499 285.003 291.548 275.961 291.548 265.099C291.571 260.541 290.279 256.072 287.827 252.228C285.965 249.299 283.405 246.879 280.375 245.185C277.618 243.639 274.51 242.827 271.349 242.826C266.246 242.826 261.585 244.931 258.027 248.368C255.182 251.152 253.126 254.641 252.071 258.479C252.018 258.633 251.979 258.793 251.956 258.955C251.693 260.124 251.52 261.312 251.438 262.508L251.179 266.231V266.242L248.042 312.015H165.96L162.564 262.508C162.075 255.518 158.67 249.69 153.942 246.929C150.951 244.546 147.304 243.132 143.487 242.879C143.086 242.84 142.682 242.822 142.279 242.826C139.212 242.823 136.195 243.59 133.503 245.057C133.418 245.095 133.334 245.138 133.253 245.184C130.467 246.736 128.075 248.907 126.261 251.53L126.251 251.54C123.51 255.529 122.054 260.26 122.079 265.099Z" fill="#22B290"/>
<path opacity="0.1" d="M167.859 348.65H264.587C268.174 348.65 271.167 345.16 271.493 340.602L275.176 286.96C284.499 285.003 291.548 275.961 291.548 265.099C291.571 260.541 290.279 256.072 287.827 252.228C285.965 249.299 283.405 246.879 280.375 245.185C277.618 243.639 274.51 242.827 271.349 242.826C266.246 242.826 261.585 244.931 258.027 248.368C255.182 251.152 253.126 254.641 252.071 258.479C252.018 258.633 251.979 258.793 251.956 258.955C251.693 260.124 251.519 261.312 251.438 262.508L251.179 266.231V266.242L248.042 312.015H165.959L167.859 348.65Z" fill="white"/>
<path d="M197.304 367.565L206.688 370.164L215.103 348.121L205.728 345.522L197.304 367.565Z" fill="#F6B0B1"/>
<path d="M210.888 367.237C210.145 366.279 209.074 365.628 207.881 365.411L198.217 363.534C198.001 363.484 197.773 363.516 197.581 363.626C197.388 363.736 197.244 363.915 197.177 364.126L194.189 372.934C194.104 373.173 194.068 373.426 194.082 373.679C194.096 373.932 194.159 374.18 194.269 374.409C194.378 374.637 194.532 374.842 194.721 375.011C194.909 375.18 195.13 375.31 195.369 375.395C195.39 375.402 195.411 375.409 195.432 375.416C198.993 376.819 201.402 376.335 206.975 377.412C210.406 378.08 217.616 380.363 222.433 380.166C227.25 379.969 227.236 375.204 225.211 374.854C218.023 373.725 212.522 369.409 210.888 367.237Z" fill="#5E63F2"/>
<g opacity="0.2">
<path d="M215.104 348.13L210.764 359.494L201.379 356.887L205.72 345.523L215.104 348.13Z" fill="#040505"/>
</g>
<path d="M183.805 264.519C183.805 264.519 240.28 264.21 238.517 283.119C237.327 295.883 231.194 309.314 226.41 322.273C219.476 341.055 213.462 357.419 213.462 357.419L200.592 352.97C200.592 352.97 212.149 298.645 219.94 293.087H172.188C156.386 293.087 149.554 275.739 164.938 255.519C174.343 255.528 183.805 264.519 183.805 264.519Z" fill="#22B290"/>
<path opacity="0.6" d="M183.805 264.519C183.805 264.519 240.28 264.21 238.517 283.119C239.393 294.864 213.462 357.419 213.462 357.419L200.592 352.97C200.592 352.97 212.149 298.645 219.94 293.087H172.188C156.386 293.087 149.554 275.739 164.938 255.519C174.343 255.528 183.805 264.519 183.805 264.519Z" fill="#030504"/>
<path d="M223.63 230.146C216.685 236.493 203.032 221.477 200.838 219.69C196.128 215.851 182.292 202.936 183.024 198.453C185.181 185.255 206.861 203.952 213.112 216.832L223.63 230.146Z" fill="#5E63F2"/>
<path d="M162.808 190.455C159.326 191.196 155.553 189.936 153.104 192.519C150.655 195.101 149.628 198.734 149.271 202.275C148.775 207.199 149.408 212.16 150.041 217.069C150.807 223.021 151.574 228.973 152.341 234.924C152.865 238.993 152.613 245.609 151.781 249.626L151.774 249.657C151.685 250.172 151.769 250.703 152.013 251.165C152.256 251.628 152.647 251.997 153.123 252.215C153.123 252.215 180.163 253.147 188.024 252.848C192.205 252.69 189.337 241.704 190.617 235.297C190.902 233.876 193.701 228.002 194.114 226.498C196.055 219.403 194.769 214.531 192.967 207.4C191.661 202.226 191.124 194.759 188.482 194.186C183.782 193.166 172.512 188.392 162.808 190.455Z" fill="#22B290"/>
<path opacity="0.8" d="M162.808 190.455C159.326 191.196 155.553 189.936 153.104 192.519C150.655 195.101 149.628 198.734 149.271 202.275C148.775 207.199 149.408 212.16 150.041 217.069C150.807 223.021 151.574 228.973 152.341 234.924C152.865 238.993 152.613 245.609 151.781 249.626L151.774 249.657C151.685 250.172 151.769 250.703 152.013 251.165C152.256 251.628 152.647 251.997 153.123 252.215C153.123 252.215 180.163 253.147 188.024 252.848C192.205 252.69 189.337 241.704 190.617 235.297C190.902 233.876 193.701 228.002 194.114 226.498C196.055 219.403 194.769 214.531 192.967 207.4C191.661 202.226 191.124 194.759 188.482 194.186C183.782 193.166 172.512 188.392 162.808 190.455Z" fill="white"/>
<path d="M158.944 195.528C158.586 194.981 149.077 186.976 147.346 196.224C144.935 209.093 149.92 221.76 149.92 221.76C149.92 221.76 151.065 235.69 155.108 237.079C159.15 238.468 163.008 238.814 164.371 236.433C165.734 234.053 165.733 230.482 165.733 230.482C165.733 230.482 165.248 205.144 158.944 195.528Z" fill="#5E63F2"/>
<path d="M165.531 172.79C166.517 178.717 167.344 189.545 163.101 193.36C163.101 193.36 173.457 198.778 180.247 208.229C184.17 205.124 184.196 201.19 183.392 198.23C182.769 195.937 181.114 194.113 179.031 192.967C175.01 190.755 175.394 186.617 176.497 182.724L165.531 172.79Z" fill="#F3B3B4"/>
<path opacity="0.2" d="M166.885 182.85L170.745 184.33C172.399 184.964 174.165 185.251 175.935 185.171C175.832 186.024 175.494 187.824 175.935 188.836C173.543 189.704 169.763 188.557 168.263 186.376C167.637 185.52 167.17 183.871 166.885 182.85Z" fill="#040505"/>
<path d="M262.704 348.612H273.209L262.203 322.264L255.079 334.361L262.704 348.612Z" fill="#F6B0B1"/>
<path d="M272.349 346.123L260.018 343.324C259.808 343.268 259.584 343.294 259.392 343.396C259.2 343.498 259.054 343.669 258.983 343.874L255.544 353.353C255.475 353.592 255.453 353.842 255.481 354.089C255.508 354.336 255.584 354.575 255.704 354.792C255.823 355.01 255.985 355.202 256.179 355.357C256.373 355.513 256.595 355.628 256.834 355.697C256.853 355.703 256.873 355.709 256.893 355.713C261.215 356.616 263.341 356.833 268.763 358.064C272.101 358.821 280.548 361.037 285.15 362.082C289.753 363.127 290.967 358.616 289.134 357.76C280.912 353.955 276.454 350.318 274.065 347.218C273.64 346.663 273.032 346.276 272.349 346.123Z" fill="#5E63F2"/>
<g opacity="0.2">
<path d="M262.203 322.273L266.889 333.493L257.438 338.771L255.079 334.37L262.203 322.273Z" fill="#040505"/>
</g>
<path d="M151.567 252.305L150.431 255.887C150.281 256.162 150.598 256.455 151.066 256.471L191.798 257.707C192.165 257.707 192.466 257.548 192.499 257.314L192.967 253.716C192.967 253.466 192.691 253.249 192.299 253.232L152.277 252.021C152.144 252.001 152.008 252.016 151.883 252.066C151.758 252.116 151.649 252.199 151.567 252.305Z" fill="#5E63F2"/>
<path d="M202.465 281.711C189.082 287.411 174.559 293.112 166.667 293.112C150.857 293.112 136.814 281.701 151.784 255.753C161.188 255.719 177.541 256.02 177.541 256.02C177.541 256.02 208.378 247.275 230.743 249.824C236.059 250.439 241.041 252.727 244.972 256.356C248.903 259.986 251.578 264.77 252.612 270.018C258.289 298.572 267.03 329.502 267.03 329.502L255.781 337.157C255.781 337.157 238.242 300.291 228.144 271.038C222.807 272.748 212.988 277.228 202.465 281.711Z" fill="#22B290"/>
<path opacity="0.5" d="M252.612 270.018C251.578 264.77 248.903 259.986 244.972 256.356C241.041 252.727 236.059 250.439 230.743 249.824C208.378 247.275 177.541 256.02 177.541 256.02C177.541 256.02 161.188 255.72 151.784 255.753C136.57 281.612 150.857 293.112 166.667 293.112C174.56 293.112 189.082 287.411 202.465 281.711C212.988 277.229 222.807 272.748 228.145 271.039C238.242 300.292 255.781 337.158 255.781 337.158L267.031 329.502C267.031 329.502 258.29 298.572 252.612 270.018Z" fill="#030504"/>
<path d="M238.521 283.122C238.162 286.794 237.61 290.444 236.868 294.058C236.818 293.941 236.767 293.833 236.726 293.716C236.708 293.682 236.7 293.658 236.684 293.624C236.633 293.507 236.6 293.382 236.542 293.274C233.543 285.844 230.62 278.222 228.148 271.05C228.174 271.057 228.199 271.066 228.223 271.075V271.067C234.671 273.797 239.031 277.654 238.521 283.122Z" fill="#22B290"/>
<path opacity="0.6" d="M238.521 283.122C238.162 286.794 237.61 290.444 236.868 294.058C236.818 293.941 236.767 293.833 236.726 293.716C236.708 293.682 236.7 293.658 236.684 293.624C236.633 293.507 236.6 293.382 236.542 293.274C233.543 285.844 230.62 278.222 228.148 271.05C228.174 271.057 228.199 271.066 228.223 271.075V271.067C234.671 273.797 239.031 277.654 238.521 283.122Z" fill="#030504"/>
<path d="M158.326 167.096C161.627 176.389 162.826 180.389 169.009 183.87C178.322 189.126 188.99 183.016 188.529 172.925C188.114 163.85 182.782 150.176 172.442 149.078C170.686 148.882 168.909 149.033 167.212 149.524C165.514 150.015 163.93 150.835 162.55 151.937C161.17 153.04 160.02 154.403 159.167 155.95C158.314 157.497 157.774 159.196 157.578 160.951C157.346 163.03 157.602 165.134 158.326 167.096Z" fill="#F3B3B4"/>
<path d="M175.026 165.886C175.258 166.694 175.834 167.168 176.343 167.017C176.852 166.867 177.047 166.142 176.853 165.362C176.659 164.582 176.046 164.089 175.536 164.231C175.025 164.373 174.808 165.118 175.026 165.886Z" fill="#5E63F2"/>
<path d="M183.663 163.167C183.888 163.976 184.472 164.448 184.972 164.299C185.473 164.151 185.677 163.424 185.482 162.644C185.288 161.864 184.675 161.371 184.173 161.512C183.672 161.652 183.437 162.4 183.663 163.167Z" fill="#5E63F2"/>
<path d="M183.946 161.624L185.642 160.554C185.642 160.554 185.125 162.27 183.946 161.624Z" fill="#5E63F2"/>
<path d="M180.563 164.921C181.755 166.48 183.153 167.869 184.719 169.05C183.981 170.287 182.116 170.318 182.116 170.318L180.563 164.921Z" fill="#EF6B6D"/>
<path d="M152.248 173.282C152.763 175.011 153.615 176.662 153.776 178.459C154.094 182.003 151.218 185.53 147.682 185.933C150.718 186.833 154.295 185.217 155.625 182.344C154.765 184.575 153.082 186.392 150.923 187.42C152.457 187.436 153.974 187.098 155.357 186.433C156.739 185.768 157.95 184.794 158.895 183.586C158.373 184.922 157.851 186.259 157.329 187.596C159.942 186.019 162.086 183.773 163.54 181.09C164.13 179.998 164.571 178.563 163.8 177.59C163.102 176.71 161.804 176.693 160.681 176.671C159.558 176.648 158.216 176.388 157.803 175.344C157.407 174.339 158.145 173.251 158.956 172.536C159.766 171.821 160.747 171.163 161.044 170.124C161.255 169.388 161.073 168.603 160.891 167.859C160.394 165.833 159.898 163.807 159.401 161.781C159.227 161.072 159.047 160.347 158.639 159.741C156.427 156.449 153.991 161.277 153.179 162.922C151.587 166.138 151.255 169.834 152.248 173.282Z" fill="#5E63F2"/>
<path d="M157.669 176.193C158.913 177.817 160.75 178.882 162.778 179.154C165.472 179.487 166.419 176.982 165.338 174.654C164.363 172.554 161.785 169.859 159.244 170.567C156.703 171.276 156.157 174.172 157.669 176.193Z" fill="#F3B3B4"/>
<path d="M175.172 159.25C175.155 159.352 175.107 159.447 175.034 159.521C174.961 159.595 174.867 159.644 174.765 159.661C172.53 160.084 171.289 162.737 171.282 162.759C171.229 162.877 171.13 162.97 171.009 163.016C170.887 163.061 170.752 163.057 170.634 163.004C170.515 162.95 170.423 162.852 170.377 162.73C170.331 162.609 170.335 162.474 170.388 162.355C170.483 162.26 171.853 159.211 174.577 158.691C174.705 158.668 174.836 158.697 174.943 158.77C175.05 158.843 175.124 158.955 175.15 159.082C175.17 159.135 175.177 159.193 175.172 159.25Z" fill="#5E63F2"/>
<path d="M181.035 157.052C180.962 157.04 180.887 157.043 180.815 157.062C180.744 157.081 180.677 157.114 180.62 157.161C180.496 157.296 180.098 157.524 180.327 157.639C181.669 158.33 183.526 159.446 184.953 159.22C185.192 159.171 185.766 158.962 185.642 158.792C185.562 158.702 185.459 158.634 185.344 158.595C185.228 158.557 185.105 158.549 184.986 158.573C183.849 158.736 182.342 157.668 181.284 157.12C181.205 157.085 181.121 157.062 181.035 157.052Z" fill="#5E63F2"/>
<path d="M175.325 164.341L177.022 163.279C177.022 163.279 176.488 164.99 175.325 164.341Z" fill="#5E63F2"/>
<path d="M175.173 144.972C171.416 144.289 170.94 144.041 167.127 144.277C163.315 144.513 159.47 145.612 156.47 147.975C153.546 150.278 151.587 153.672 150.655 157.275C149.722 160.877 149.768 164.682 150.372 168.353C150.654 170.07 151.139 171.903 152.501 172.986C152.7 171.017 152.902 169.032 153.508 167.149C154.114 165.265 155.162 163.466 156.763 162.303C157.405 161.836 158.158 161.443 158.525 160.74C158.84 160.135 158.806 159.416 158.919 158.743C159.178 157.207 160.23 155.898 161.487 154.976C162.743 154.054 164.204 153.461 165.635 152.843C170.261 150.845 175.313 149.706 179.582 147.03C178.529 146.121 175.173 144.972 175.173 144.972Z" fill="#5E63F2"/>
<path d="M155.981 159.682C156.989 160.9 158.367 161.757 159.905 162.122C161.73 162.541 166.292 162.44 166.566 161.961C166.892 161.388 165.22 156.364 163.373 156.057C164.726 157.191 166.135 158.355 167.835 158.829C169.535 159.303 172.407 159.072 173.557 158.802C174.515 158.577 172.358 154.58 170.785 153.433C175.525 154.423 180.532 155.549 184.026 158.902C187.619 162.35 188.942 167.626 188.766 172.601C189.575 171.954 190.225 171.131 190.666 170.194C191.107 169.257 191.327 168.232 191.31 167.197C192.143 169.772 192.448 172.488 192.208 175.183C191.967 177.879 191.186 180.498 189.91 182.885C194.953 178.752 196.837 171.528 195.51 165.146C194.184 158.763 190.034 153.227 184.944 149.151C180.592 145.665 175.311 143.061 169.736 142.93C162.383 142.758 148.835 151.07 155.981 159.682Z" fill="#5E63F2"/>
<path d="M161.906 189.065C161.949 188.702 161.993 188.227 162.036 187.712C162.135 186.553 161.799 185.398 161.093 184.472C160.387 183.547 159.362 182.917 158.217 182.706L158.157 182.695C157.818 182.633 157.5 182.482 157.238 182.258C156.976 182.033 156.778 181.743 156.665 181.417C155.812 178.954 155.485 178.209 154.668 175.787C152.445 175.253 149.827 176.072 147.523 176.32C146.885 179.077 146.842 181.939 147.396 184.714C147.519 185.328 147.685 185.964 148.1 186.435C148.514 186.905 153.001 190.074 154.958 190.657C156.996 191.264 159.789 189.262 161.906 189.065Z" fill="#F3B3B4"/>
<path d="M155.244 190.72C155.244 190.72 149.186 229.792 155.426 235.747C159.094 239.248 162.26 237.317 164.247 235.13C164.971 234.316 165.515 233.359 165.845 232.322C166.174 231.284 166.281 230.188 166.159 229.106L161.906 189.064C161.906 189.064 157.702 186.626 155.244 190.72Z" fill="#F3B3B4"/>
<path d="M220.338 225.976C222.773 224.109 224.924 220.231 225.466 217.763C225.638 216.971 225.707 215.785 225.69 214.348C225.629 207.27 223.633 194.293 223.633 194.293L217.878 192.392C217.878 192.392 216.088 202.265 215.692 207.692C215.615 208.758 215.495 210.014 215.366 211.338C215.107 213.755 214.798 216.421 214.522 218.623L220.338 225.976Z" fill="#F3B3B4"/>
<path d="M223.633 230.147C225.397 228.53 225.699 226.578 226.61 222.407C227.479 218.468 226.498 213.661 225.69 214.348C225.589 214.444 225.512 214.562 225.466 214.692C224.072 217.986 218.635 215.097 217.095 213.454C216.493 212.809 215.77 212.087 215.365 211.338C214.987 210.667 214.875 209.988 215.322 209.334C213.653 208.646 212.311 215.217 213.111 216.834L213.519 218.05C214.182 220.031 215.207 221.872 216.542 223.479L219.565 227.119L223.633 230.147Z" fill="#5E63F2"/>
<path d="M217.729 193.233L217.041 183.194C217.041 183.194 218.222 183.847 222.592 185.332C225.391 186.283 229.158 184.604 228.318 186.419C226.95 189.376 223.634 194.293 223.634 194.293L217.729 193.233Z" fill="#F3B3B4"/>
<path d="M217.041 183.194L221.325 173.135L226.95 176.577C228.5 179.938 228.318 186.419 228.318 186.419C228.318 186.419 220.522 186.772 217.041 183.194Z" fill="#F3B3B4"/>
<path d="M179.909 175.447C180.055 176.167 180.567 176.667 181.036 176.563C181.505 176.459 181.756 175.802 181.599 175.082C181.443 174.363 180.942 173.873 180.473 173.977C180.003 174.081 179.753 174.769 179.909 175.447Z" fill="#5E63F2"/>
<path d="M165.959 312.015L162.564 262.508C162.075 255.518 158.67 249.69 153.942 246.929C150.951 244.546 147.303 243.132 143.487 242.879C143.085 242.84 142.682 242.822 142.278 242.826C139.212 242.823 136.195 243.59 133.503 245.057C133.417 245.095 133.334 245.138 133.253 245.184C130.467 246.736 128.074 248.907 126.261 251.53L126.251 251.54C123.51 255.529 122.054 260.26 122.079 265.099C122.079 276.098 129.32 285.257 138.835 287.044L142.509 340.602C142.825 345.16 145.818 348.65 149.414 348.65H167.859L165.959 312.015Z" fill="#22B290"/>
<path opacity="0.1" d="M165.959 312.015L162.564 262.508C162.075 255.518 158.67 249.69 153.942 246.929C150.951 244.546 147.303 243.132 143.487 242.879C143.085 242.84 142.682 242.822 142.278 242.826C139.212 242.823 136.195 243.59 133.503 245.057C133.417 245.095 133.334 245.138 133.253 245.184C130.467 246.736 128.074 248.907 126.261 251.53L126.251 251.54C123.51 255.529 122.054 260.26 122.079 265.099C122.079 276.098 129.32 285.257 138.835 287.044L142.509 340.602C142.825 345.16 145.818 348.65 149.414 348.65H167.859L165.959 312.015Z" fill="white"/>
<path d="M297.406 402.384C317.777 402.384 334.291 398.162 334.291 392.955C334.291 387.747 317.777 383.526 297.406 383.526C277.036 383.526 260.522 387.747 260.522 392.955C260.522 398.162 277.036 402.384 297.406 402.384Z" fill="#5E63F2"/>
<path opacity="0.3" d="M297.406 399.25C317.777 399.25 334.291 395.73 334.291 391.388C334.291 387.045 317.777 383.526 297.406 383.526C277.036 383.526 260.522 387.045 260.522 391.388C260.522 395.73 277.036 399.25 297.406 399.25Z" fill="white"/>
<path d="M300.449 391.378H294.363L287.32 315.51H307.492L300.449 391.378Z" fill="#5E63F2"/>
<path d="M307.492 315.51C307.492 317.72 302.977 319.511 297.406 319.511C291.836 319.511 287.32 317.719 287.32 315.51C287.32 313.301 291.836 311.509 297.406 311.509C302.977 311.509 307.492 313.301 307.492 315.51Z" fill="#5E63F2"/>
<path opacity="0.7" d="M307.492 315.51C307.492 317.72 302.977 319.511 297.406 319.511C291.836 319.511 287.32 317.719 287.32 315.51C287.32 313.301 291.836 311.509 297.406 311.509C302.977 311.509 307.492 313.301 307.492 315.51Z" fill="white"/>
<path opacity="0.7" d="M174.113 316.696C174.113 315.894 174.509 315.103 175.289 314.322C183.812 322.896 237.881 329.502 303.31 329.502C368.739 329.502 422.808 322.896 431.342 314.322C432.122 315.103 432.518 315.894 432.518 316.696C432.518 326.38 374.666 334.24 303.31 334.24C231.955 334.24 174.113 326.38 174.113 316.696Z" fill="white"/>
<path opacity="0.7" d="M175.29 318.884C183.812 310.311 237.881 303.715 303.31 303.715C368.739 303.715 422.808 310.31 431.342 318.884C422.808 327.458 368.739 334.064 303.31 334.064C237.881 334.064 183.812 327.458 175.29 318.884Z" fill="white"/>
<path opacity="0.7" d="M174.113 316.355C174.113 306.66 231.954 298.812 303.31 298.812C374.666 298.812 432.518 306.66 432.518 316.355C432.518 317.157 432.122 317.949 431.341 318.718C422.808 310.145 368.738 303.549 303.31 303.549C237.881 303.549 183.811 310.144 175.289 318.718C174.509 317.949 174.113 317.157 174.113 316.355Z" fill="white"/>
<path d="M353.144 307.812L299.09 306.792C298.532 306.782 298.087 306.229 298.103 305.564C298.118 304.898 298.588 304.364 299.147 304.374L353.201 305.394C353.76 305.404 354.204 305.957 354.188 306.622C354.173 307.287 353.703 307.822 353.144 307.812Z" fill="#5E63F2"/>
<path opacity="0.2" d="M353.144 307.812L299.09 306.792C298.532 306.782 298.087 306.229 298.103 305.564C298.118 304.898 298.588 304.364 299.147 304.374L353.201 305.394C353.76 305.404 354.204 305.957 354.188 306.622C354.173 307.287 353.703 307.822 353.144 307.812Z" fill="white"/>
<path d="M379.399 303.869L353.555 307.774C352.999 307.858 352.493 307.387 352.429 306.727C352.366 306.068 352.768 305.46 353.322 305.376L379.167 301.471C379.722 301.387 380.229 301.858 380.292 302.517C380.357 303.177 379.954 303.785 379.399 303.869Z" fill="#5E63F2"/>
<path d="M379.168 301.471H324.532L299.147 304.375L351.728 305.366L379.168 301.471Z" fill="#5E63F2"/>
<path opacity="0.6" d="M379.168 301.471H324.532L299.147 304.375L351.728 305.366L379.168 301.471Z" fill="white"/>
<path opacity="0.5" d="M379.399 303.869L353.555 307.774C352.999 307.858 352.493 307.387 352.429 306.727C352.366 306.068 352.768 305.46 353.322 305.376L379.167 301.471C379.722 301.387 380.229 301.858 380.292 302.517C380.357 303.177 379.954 303.785 379.399 303.869Z" fill="white"/>
<path d="M351.728 305.366L301.324 304.416C299.546 304.382 298.004 302.62 297.898 300.501L296.379 270.082C296.273 267.962 297.642 266.255 299.42 266.289L349.824 267.239C351.602 267.273 353.144 269.035 353.25 271.155L354.77 301.573C354.875 303.693 353.507 305.4 351.728 305.366Z" fill="#22B290"/>
<path opacity="0.2" d="M351.728 305.366L301.324 304.416C299.546 304.382 298.004 302.62 297.898 300.501L296.379 270.082C296.273 267.962 297.642 266.255 299.42 266.289L349.824 267.239C351.602 267.273 353.144 269.035 353.25 271.155L354.77 301.573C354.875 303.693 353.507 305.4 351.728 305.366Z" fill="white"/>
<path d="M350.248 305.208L299.845 304.257C298.066 304.223 296.524 302.462 296.418 300.342L294.899 269.924C294.793 267.804 296.162 266.097 297.94 266.131L348.344 267.081C350.123 267.115 351.665 268.876 351.771 270.996L353.29 301.414C353.396 303.534 352.027 305.241 350.248 305.208Z" fill="#22B290"/>
<path opacity="0.6" d="M350.248 305.208L299.845 304.257C298.066 304.223 296.524 302.462 296.418 300.342L294.899 269.924C294.793 267.804 296.162 266.097 297.94 266.131L348.344 267.081C350.123 267.115 351.665 268.876 351.771 270.996L353.29 301.414C353.396 303.534 352.027 305.241 350.248 305.208Z" fill="white"/>
<path d="M317.414 285.166C317.673 288.12 320.277 290.514 323.231 290.514C326.186 290.514 328.371 288.12 328.114 285.166C327.856 282.213 325.251 279.819 322.296 279.819C319.342 279.819 317.156 282.213 317.414 285.166Z" fill="white"/>
</g>
<defs>
<clipPath id="clip0_63_7679">
<rect width="615" height="403" fill="white"/>
</clipPath>
</defs>
</svg>
