<svg width="544" height="384" viewBox="0 0 544 384" fill="none" xmlns="http://www.w3.org/2000/svg">
<path d="M44.8935 338.073C44.6845 336.679 39.8063 302.992 49.5765 291.368C50.5489 290.143 51.7807 289.149 53.1833 288.457C54.586 287.766 56.1245 287.394 57.6882 287.368C77.4239 286.908 80.1138 302.699 80.1417 302.908L77.8141 303.271C77.7305 302.699 75.389 289.333 57.744 289.723C56.5137 289.743 55.3035 290.038 54.2015 290.585C53.0996 291.133 52.1337 291.919 51.3745 292.887C42.2872 303.703 47.1932 337.39 47.1932 337.725L44.8935 338.073Z" fill="#5E63F2"/>
<path d="M43.7083 336.54L41.3529 336.47C41.3529 336.15 42.1334 305.459 27.0111 299.103C12.1815 292.901 5.50538 305.668 5.24056 306.212L3.13599 305.152C3.13599 304.999 11.0386 289.821 27.917 296.943C44.5307 303.912 43.7502 335.202 43.7083 336.54Z" fill="#5E63F2"/>
<path d="M43.778 338.951C43.778 338.463 43.6247 289.905 34.1611 275.702C25.0738 262.071 10.4672 268.483 9.78421 268.733L8.82251 266.601C8.98976 266.517 25.91 259.047 36.1263 274.364C45.9802 289.18 46.0638 336.888 46.0638 338.951H43.778Z" fill="#5E63F2"/>
<path d="M60.5169 288.539C60.5169 288.539 51.9034 291.717 54.4262 299.257C56.9489 306.797 84.2526 319.048 84.2526 319.048C84.2526 319.048 95.6675 308.581 85.1864 291.591C74.7054 274.601 60.7538 283.173 60.5169 288.539Z" fill="#5E63F2"/>
<path d="M33.7426 273.138C33.7426 273.138 39.8472 272.483 39.3176 268.761C38.788 265.04 15.5401 255.451 1.81152 270.949C1.81152 270.949 10.6062 286.058 23.3172 286.281C36.0283 286.504 33.7426 273.138 33.7426 273.138Z" fill="#5E63F2"/>
<path d="M27.4571 298.03C27.4571 298.03 31.6384 294.616 27.1226 292.957C22.6068 291.298 0.223002 291.758 0 313.863C0 313.863 26.0215 318.184 29.269 309.752C32.5164 301.32 27.4571 298.03 27.4571 298.03Z" fill="#5E63F2"/>
<path opacity="0.2" d="M60.5169 288.539C60.5169 288.539 51.9034 291.717 54.4262 299.257C56.9489 306.797 84.2526 319.048 84.2526 319.048C84.2526 319.048 95.6675 308.581 85.1864 291.591C74.7054 274.601 60.7538 283.173 60.5169 288.539Z" fill="white"/>
<path opacity="0.2" d="M33.7426 273.138C33.7426 273.138 39.8472 272.483 39.3176 268.761C38.788 265.04 15.5401 255.451 1.81152 270.949C1.81152 270.949 10.6062 286.058 23.3172 286.281C36.0283 286.504 33.7426 273.138 33.7426 273.138Z" fill="white"/>
<path opacity="0.2" d="M27.4571 298.03C27.4571 298.03 31.6384 294.616 27.1226 292.957C22.6068 291.298 0.223002 291.758 0 313.863C0 313.863 26.0215 318.184 29.269 309.752C32.5164 301.32 27.4571 298.03 27.4571 298.03Z" fill="white"/>
<path d="M65.1438 383.161H24.7526L20.4041 338.951H69.4923L65.1438 383.161Z" fill="#5E63F2"/>
<path opacity="0.5" d="M65.1438 383.161H24.7526L20.4041 338.951H69.4923L65.1438 383.161Z" fill="white"/>
<path d="M71.653 334.073H18.2441V343.829H71.653V334.073Z" fill="#5E63F2"/>
<path opacity="0.2" d="M71.653 334.073H18.2441V343.829H71.653V334.073Z" fill="white"/>
<path d="M478.909 165.456H341.68C340.062 165.454 338.461 165.771 336.966 166.389C335.471 167.006 334.113 167.912 332.968 169.055C331.824 170.198 330.916 171.556 330.297 173.05C329.678 174.544 329.359 176.145 329.359 177.763L312.634 284.343H474.477L491.202 177.763C491.202 174.501 489.908 171.373 487.603 169.065C485.298 166.758 482.171 165.459 478.909 165.456Z" fill="#5E63F2"/>
<path opacity="0.4" d="M478.909 165.456H341.68C340.062 165.454 338.461 165.771 336.966 166.389C335.471 167.006 334.113 167.912 332.968 169.055C331.824 170.198 330.916 171.556 330.297 173.05C329.678 174.544 329.359 176.145 329.359 177.763L312.634 284.343H474.477L491.202 177.763C491.202 174.501 489.908 171.373 487.603 169.065C485.298 166.758 482.171 165.459 478.909 165.456Z" fill="white"/>
<path opacity="0.2" d="M449.865 285.96H474.478L491.204 177.804C491.204 174.54 489.907 171.41 487.599 169.102C485.291 166.794 482.161 165.498 478.897 165.498C475.633 165.498 472.502 166.794 470.194 169.102C467.886 171.41 466.59 174.54 466.59 177.804L449.865 285.96Z" fill="black"/>
<path d="M307.505 234.586H249.162H248.535C244.553 234.586 240.733 236.167 237.916 238.982C235.099 241.797 233.514 245.615 233.51 249.597V383.161H321.638V249.569C321.692 245.725 320.247 242.01 317.609 239.213C314.971 236.416 311.346 234.756 307.505 234.586Z" fill="#5E63F2"/>
<path opacity="0.5" d="M307.505 234.586H249.162H248.535C244.553 234.586 240.733 236.167 237.916 238.982C235.099 241.797 233.514 245.615 233.51 249.597V383.161H321.638V249.569C321.692 245.725 320.247 242.01 317.609 239.213C314.971 236.416 311.346 234.756 307.505 234.586Z" fill="white"/>
<path opacity="0.6" d="M248.535 234.558C244.553 234.558 240.733 236.139 237.916 238.954C235.099 241.769 233.514 245.587 233.51 249.569V383.161H263.56V249.569C263.556 245.587 261.972 241.769 259.154 238.954C256.337 236.139 252.518 234.558 248.535 234.558Z" fill="white"/>
<path d="M388.231 272.357H273.372V383.161H388.231V272.357Z" fill="#5E63F2"/>
<path opacity="0.4" d="M388.231 272.357H273.372V383.161H388.231V272.357Z" fill="white"/>
<path d="M281.749 263.019H412.762V294.657H281.749C277.549 294.657 273.522 292.989 270.553 290.02C267.584 287.051 265.916 283.023 265.916 278.824C265.923 274.63 267.594 270.61 270.563 267.647C273.531 264.683 277.554 263.019 281.749 263.019Z" fill="#5E63F2"/>
<path opacity="0.6" d="M281.749 263.019H412.762V294.657H281.749C277.549 294.657 273.522 292.989 270.553 290.02C267.584 287.051 265.916 283.023 265.916 278.824C265.923 274.63 267.594 270.61 270.563 267.647C273.531 264.683 277.554 263.019 281.749 263.019Z" fill="white"/>
<path d="M462.213 234.586H403.87H403.243C399.26 234.586 395.441 236.167 392.624 238.982C389.806 241.797 388.222 245.615 388.218 249.597V383.161H476.345V249.569C476.4 245.725 474.955 242.01 472.316 239.213C469.678 236.416 466.054 234.756 462.213 234.586Z" fill="#5E63F2"/>
<path opacity="0.5" d="M462.213 234.586H403.87H403.243C399.26 234.586 395.441 236.167 392.624 238.982C389.806 241.797 388.222 245.615 388.218 249.597V383.161H476.345V249.569C476.4 245.725 474.955 242.01 472.316 239.213C469.678 236.416 466.054 234.756 462.213 234.586Z" fill="white"/>
<path opacity="0.6" d="M403.243 234.558C399.26 234.558 395.441 236.139 392.624 238.954C389.806 241.769 388.222 245.587 388.218 249.569V383.161H418.267V249.569C418.264 245.587 416.679 241.769 413.862 238.954C411.045 236.139 407.225 234.558 403.243 234.558Z" fill="white"/>
<path d="M543.036 239.646H439.479V383.161H543.036V239.646Z" fill="#5E63F2"/>
<path opacity="0.2" d="M543.049 239.646H511.272V383.161H543.049V239.646Z" fill="black"/>
<path opacity="0.2" d="M504.192 244.775H444.637V267.172H504.192V244.775Z" fill="white"/>
<path opacity="0.2" d="M504.192 272.65H444.637V295.048H504.192V272.65Z" fill="white"/>
<path opacity="0.2" d="M504.192 300.525H444.637V360.08H504.192V300.525Z" fill="white"/>
<path opacity="0.2" d="M472.888 251.451C474.189 251.451 475.244 250.396 475.244 249.095C475.244 247.794 474.189 246.74 472.888 246.74C471.587 246.74 470.533 247.794 470.533 249.095C470.533 250.396 471.587 251.451 472.888 251.451Z" fill="black"/>
<path opacity="0.2" d="M472.888 278.336C474.189 278.336 475.244 277.282 475.244 275.981C475.244 274.68 474.189 273.625 472.888 273.625C471.587 273.625 470.533 274.68 470.533 275.981C470.533 277.282 471.587 278.336 472.888 278.336Z" fill="black"/>
<path opacity="0.2" d="M449.863 330.296C449.888 330.619 449.846 330.945 449.739 331.251C449.633 331.558 449.464 331.839 449.243 332.077C449.023 332.315 448.755 332.505 448.458 332.635C448.16 332.765 447.839 332.832 447.515 332.832C447.19 332.832 446.869 332.765 446.572 332.635C446.274 332.505 446.007 332.315 445.786 332.077C445.566 331.839 445.397 331.558 445.29 331.251C445.184 330.945 445.141 330.619 445.166 330.296C445.212 329.704 445.479 329.152 445.914 328.748C446.35 328.345 446.921 328.121 447.515 328.121C448.108 328.121 448.68 328.345 449.115 328.748C449.55 329.152 449.818 329.704 449.863 330.296Z" fill="black"/>
<path d="M506.032 150.347H499.342V239.632H506.032V150.347Z" fill="#263238"/>
<path d="M466.95 181.038H538.436L532.652 130.445H472.735L466.95 181.038Z" fill="#5E63F2"/>
<g opacity="0.6">
<path d="M466.951 181.038H538.437L532.653 130.445H472.735L466.951 181.038Z" fill="white"/>
</g>
<path opacity="0.2" d="M499.342 201.401V239.646H506.046V197.22L499.342 201.401Z" fill="white"/>
<path d="M514.408 235.715H490.979L486.798 239.646H518.59L514.408 235.715Z" fill="#5E63F2"/>
<path opacity="0.2" d="M514.408 235.715H490.979L486.798 239.646H518.59L514.408 235.715Z" fill="white"/>
<path d="M125.508 27.7243C123.685 26.5985 121.507 26.1957 119.403 26.5954C113.438 27.7243 112.016 33.5642 112.81 37.8988C113.154 39.6562 113.964 41.2887 115.156 42.6252C116.348 43.9617 117.877 44.9529 119.584 45.4948C124.281 46.6795 128.421 42.331 129.633 39.0696C130.402 36.9964 130.41 34.7173 129.654 32.6392C128.898 30.561 127.429 28.8191 125.508 27.7243Z" fill="#263238"/>
<path d="M230.666 91.8095L254.235 85.203C254.235 85.203 254.235 83.8093 257.9 81.2029C261.566 78.5966 271.378 76.5478 271.378 76.5478C271.378 76.5478 275.894 89.6073 274.43 89.9697C272.967 90.3321 259.74 94.7503 259.001 93.2868L233.913 100.381L230.666 91.8095Z" fill="#B97964"/>
<path d="M158.86 64.5754C172.616 69.0215 194.038 93.2868 198.22 94.7503C202.401 96.2137 242.43 87.5585 242.43 87.5585L248.005 97.8584C248.005 97.8584 211.265 111.155 198.178 110.123C185.091 109.092 168.017 89.6909 155.78 86.8895L158.86 64.5754Z" fill="#5E63F2"/>
<path opacity="0.2" d="M170.275 94.5691C165.104 90.9732 160.157 87.893 155.822 86.8895L157.411 75.2098C161.355 79.0426 167.432 86.0114 170.275 94.5691Z" fill="black"/>
<path d="M179.125 363.857L169.828 365.488L166.023 352.833L162.553 341.223L173.257 337.488L176.365 351.439L179.125 363.857Z" fill="#E4897B"/>
<path d="M167.738 365.251C167.585 364.22 180.282 362.812 180.282 362.812C180.282 362.812 189.411 369.307 197.244 369.781C205.077 370.255 201.663 375.467 193.258 376.959L172.491 380.624C166.526 381.642 169.369 375.913 167.738 365.251Z" fill="#263238"/>
<path d="M186.554 364.931C185.01 364.86 183.481 364.607 181.996 364.178C181.959 364.186 181.921 364.186 181.885 364.178C181.846 364.157 181.816 364.122 181.801 364.081C181.801 364.081 181.801 364.081 181.801 363.997C181.794 363.946 181.794 363.894 181.801 363.844C181.801 363.704 182.372 360.582 183.947 359.579C184.185 359.421 184.454 359.318 184.736 359.277C185.018 359.236 185.306 359.258 185.578 359.342C186.205 359.509 186.54 359.816 186.596 360.248C186.679 360.917 185.899 361.739 184.965 362.464C185.885 362.131 186.88 362.064 187.836 362.269C188.016 362.329 188.182 362.426 188.324 362.553C188.465 362.68 188.579 362.835 188.658 363.007C188.796 363.214 188.87 363.456 188.87 363.704C188.87 363.952 188.796 364.195 188.658 364.401C188.363 364.63 188.024 364.795 187.662 364.886C187.299 364.977 186.922 364.993 186.554 364.931ZM183.111 363.774C185.09 364.234 187.515 364.513 188.031 363.927C188.031 363.927 188.212 363.718 188.031 363.244C187.992 363.153 187.933 363.072 187.858 363.006C187.784 362.941 187.695 362.894 187.599 362.868C186.568 362.506 184.463 363.202 183.111 363.774ZM184.965 359.885C184.711 359.884 184.462 359.962 184.254 360.108C183.375 360.927 182.783 362.007 182.568 363.188C184.31 362.157 185.941 360.861 185.871 360.289C185.871 360.108 185.536 359.997 185.341 359.941C185.218 359.909 185.092 359.89 184.965 359.885Z" fill="#5E63F2"/>
<path opacity="0.2" d="M176.421 351.732L166.066 353.098L162.581 341.348L173.271 337.543L176.421 351.732Z" fill="black"/>
<path d="M117.144 367.83H107.708L106.161 354.714L104.768 342.658L115.959 340.846L116.587 355.133L117.144 367.83Z" fill="#E4897B"/>
<path d="M105.688 367.23C105.688 366.185 118.483 367.007 118.483 367.007C118.483 367.007 126.344 374.994 133.968 376.764C141.591 378.534 137.34 383.133 128.811 383.133H107.709C101.646 383.161 105.437 378.004 105.688 367.23Z" fill="#263238"/>
<path d="M125.201 370.338C123.359 370.112 121.572 369.564 119.918 368.722C119.869 368.707 119.825 368.678 119.793 368.638V368.568C119.758 368.484 119.758 368.388 119.793 368.304C119.793 368.178 120.908 365.195 122.581 364.485C122.838 364.364 123.119 364.302 123.403 364.302C123.687 364.302 123.968 364.364 124.225 364.485C124.811 364.763 125.089 365.126 125.061 365.558C125.061 366.227 124.114 366.952 123.082 367.453C124.023 367.306 124.987 367.416 125.87 367.774C126.04 367.86 126.189 367.982 126.306 368.131C126.424 368.28 126.508 368.453 126.553 368.638C126.658 368.873 126.685 369.135 126.629 369.386C126.574 369.637 126.44 369.863 126.246 370.032C125.94 370.244 125.573 370.352 125.201 370.338ZM121.019 368.513C122.901 369.307 125.201 370.018 125.842 369.516C125.842 369.516 126.065 369.349 125.926 368.847C125.904 368.75 125.86 368.659 125.797 368.581C125.734 368.504 125.654 368.442 125.563 368.401C124.699 367.802 122.511 368.122 121.075 368.443L121.019 368.513ZM123.305 365C123.129 365 122.954 365.033 122.79 365.098C121.782 365.77 121.015 366.747 120.601 367.885C122.497 367.175 124.323 366.171 124.351 365.6C124.351 365.432 124.072 365.265 123.891 365.182C123.736 365.058 123.555 364.972 123.361 364.931L123.305 365Z" fill="#5E63F2"/>
<path opacity="0.2" d="M116.587 355.425L106.161 354.965L104.768 342.798L115.959 340.902L116.587 355.425Z" fill="black"/>
<path d="M177.285 344.359L161.954 347.049C146.623 308.679 135.598 276.65 127.863 250.071C123.681 235.729 120.448 222.976 117.953 211.659L118.65 253.472V348.317H103.207C65.5059 168.522 92.2243 127.434 92.2243 127.434L137.326 119.726C139.111 128.053 140.373 136.483 141.103 144.967L143.138 159.881L160.769 250.921L177.285 344.359Z" fill="#22B290"/>
<path d="M159.64 345.167L178.567 338.895L178.302 346.937L162.65 351.941L159.64 345.167Z" fill="#5E63F2"/>
<path d="M101.2 346.045L120.936 343.16L119.277 351.035L102.998 353.237L101.2 346.045Z" fill="#5E63F2"/>
<path opacity="0.2" d="M127.933 250.071C123.752 235.729 120.518 222.976 118.023 211.659C118.235 198.262 119.208 184.889 120.936 171.602C120.936 171.602 127.543 223.269 127.933 250.071Z" fill="black"/>
<path d="M144.769 154.306L125.508 160.828L121.94 149.107L118.037 159.909L83.0676 151.769C86.0642 130.305 98.0366 113.176 99.9182 106.681C102.511 97.7051 104.545 80.5339 102.775 69.4257V69.2863C102.599 68.1655 102.656 67.0203 102.942 65.9224C103.228 64.8245 103.738 63.7974 104.439 62.9053C105.14 62.0132 106.018 61.2753 107.017 60.7377C108.016 60.2001 109.115 59.8744 110.246 59.7808C113.619 59.516 117.02 59.3906 120.42 59.3766C127.162 59.2974 133.902 59.6933 140.588 60.5614C149.174 61.9551 158.888 64.5196 158.888 64.5196C158.888 64.5196 160.282 65.0911 159.613 74.2759C159.041 82.3458 157.494 107.42 140.992 128.633L144.769 154.306Z" fill="#22B290"/>
<path d="M125.158 76.5478C125.158 76.5478 132.852 83.2239 135.096 100.381L143.779 76.3945L149.744 78.2203C149.744 78.2203 145.145 56.4637 130.231 56.0595C115.318 55.6553 116.433 78.2203 116.433 78.2203L125.158 76.5478Z" fill="#5E63F2"/>
<path opacity="0.5" d="M125.158 76.5478C125.158 76.5478 132.852 83.2239 135.096 100.381L143.779 76.3945L149.744 78.2203C149.744 78.2203 145.145 56.4637 130.231 56.0595C115.318 55.6553 116.433 78.2203 116.433 78.2203L125.158 76.5478Z" fill="white"/>
<path d="M146.79 52.0873C146.79 52.0873 141.327 55.6135 140.379 57.955C140.32 58.0995 140.273 58.2487 140.239 58.401C139.979 59.7317 139.797 61.0767 139.696 62.429C143.877 71.4187 135.863 86.8895 135.863 86.8895C132.601 77.7487 127.982 69.1506 122.162 61.3837C130.929 57.955 132.602 41.1463 132.602 41.1463L136.783 44.4216L146.79 52.0873Z" fill="#B97964"/>
<path opacity="0.2" d="M146.79 52.0873C146.79 52.0873 141.326 55.6135 140.378 57.955C140.319 58.0995 140.273 58.2487 140.239 58.401C137.924 56.6342 136.079 54.3264 134.864 51.6802C133.649 49.0339 133.101 46.1299 133.27 43.223L136.824 44.4216L146.79 52.0873Z" fill="black"/>
<path d="M152.852 12.6857C152.852 12.6857 163.905 9.59157 169.257 18.5116C174.609 27.4317 170.33 34.1914 166.609 37.411" stroke="#263238" stroke-width="0.488465" stroke-linecap="round" stroke-linejoin="round"/>
<path d="M157.256 12.1421C157.256 12.1421 166.26 12.4209 168.755 20.0308C171.25 27.6407 169.396 36.1845 156.03 45.3833C149.493 49.8852 133.256 41.0905 133.256 41.0905L131.96 45.0209C129.79 43.4493 127.819 41.6193 126.092 39.5713C120.837 33.4109 122.189 13.0063 136.768 9.00616C151.988 4.89457 157.256 12.1421 157.256 12.1421Z" fill="#263238"/>
<path d="M148.672 14.7484C160.115 16.2955 162.972 22.9298 162.205 34.8465C161.244 49.7179 156.547 59.753 142.693 54.6518C123.807 47.7248 129.689 12.1421 148.672 14.7484Z" fill="#B97964"/>
<path d="M154.888 33.1879C155.574 35.022 156.477 36.7673 157.578 38.3866C157.178 38.8171 156.667 39.1283 156.101 39.2857C155.536 39.4432 154.937 39.4407 154.373 39.2786L154.888 33.1879Z" fill="#A24E3F"/>
<path d="M148.016 31.3063C147.905 32.2401 147.305 32.951 146.622 32.8813C145.939 32.8116 145.577 31.9893 145.675 31.0415C145.772 30.0937 146.385 29.3969 147.068 29.4665C147.751 29.5362 148.114 30.3586 148.016 31.3063Z" fill="#263238"/>
<path d="M146.803 29.4805L148.936 28.9091C148.936 28.9091 147.723 30.5258 146.803 29.4805Z" fill="#263238"/>
<path d="M159.752 32.4213C159.654 33.3691 159.055 34.0799 158.427 34.0102C157.8 33.9405 157.368 33.1182 157.48 32.1705C157.591 31.2227 158.177 30.5119 158.873 30.5955C159.57 30.6791 159.863 31.4875 159.752 32.4213Z" fill="#263238"/>
<path d="M158.539 30.6094L160.685 30.038C160.685 30.038 159.473 31.6548 158.539 30.6094Z" fill="#263238"/>
<path d="M148.978 23.3898C148.089 23.1535 147.158 23.1249 146.257 23.3062C145.355 23.4874 144.507 23.8737 143.779 24.4351" stroke="#263238" stroke-width="0.707962" stroke-linecap="round" stroke-linejoin="round"/>
<path d="M157.355 24.0309C158.163 23.9389 158.983 24.0315 159.75 24.3019C160.518 24.5723 161.214 25.0134 161.787 25.5919" stroke="#263238" stroke-width="0.707962" stroke-linecap="round" stroke-linejoin="round"/>
<path d="M133.535 32.3238C133.535 32.3238 140.17 23.6546 140.351 16.2816C140.351 16.2816 164.296 10.1072 162.275 33.2855C162.275 33.2855 167.278 13.1456 147.668 10.0097C128.058 6.87371 123.528 33.8848 132.476 43.8502C132.476 43.8502 129.424 37.7594 133.535 32.3238Z" fill="#263238"/>
<path d="M135.083 34.9998C135.147 33.6617 134.682 32.352 133.786 31.3552C132.891 30.3583 131.639 29.7548 130.302 29.6756C126.706 29.5781 124.016 36.6444 132.602 39.5853C133.87 40.0173 134.72 38.8605 135.083 34.9998Z" fill="#B97964"/>
<path d="M153.759 42.6933C153.279 44.0579 152.897 45.4553 152.616 46.8746H151.85C148.393 46.7074 146.846 45.4809 146.177 44.1986C145.858 43.5587 145.7 42.8506 145.717 42.1358C145.714 41.7312 145.766 41.3281 145.871 40.9372C147.962 41.9803 150.253 42.5648 152.589 42.6515C153.383 42.6933 153.759 42.6933 153.759 42.6933Z" fill="#263238"/>
<path d="M152.587 42.6237L152.211 43.8502C148.964 43.6829 146.636 43.1393 145.716 42.108C145.713 41.7034 145.765 41.3002 145.869 40.9093C147.961 41.9525 150.252 42.5369 152.587 42.6237Z" fill="white"/>
<path d="M151.849 46.8467C148.392 46.6795 146.845 45.453 146.176 44.1707C147.485 44.2543 148.769 44.5705 149.967 45.1045C150.761 45.4739 151.419 46.0833 151.849 46.8467Z" fill="#DE5753"/>
<path d="M123.278 25.5919L124.114 7.77965L120.978 2.85968C129.116 -0.125255 137.927 -0.772211 146.414 0.992043L157.299 12.1421C157.299 12.1421 136.254 6.97126 123.278 25.5919Z" fill="#5E63F2"/>
<path opacity="0.6" d="M157.258 12.1421C149.329 10.5518 141.093 11.7896 133.982 15.6405C129.704 18.0769 126.042 21.4623 123.278 25.5362L124.114 7.72392L120.978 2.80395C129.121 -0.162378 137.933 -0.790024 146.414 0.992056L157.258 12.1421Z" fill="white"/>
<path opacity="0.1" d="M133.982 15.6962C129.704 18.1326 126.042 21.518 123.278 25.5919L124.114 7.77965L120.978 2.85968L133.982 15.6962Z" fill="black"/>
<path d="M177.077 140.619L192.408 144.159C196.235 144.387 200.025 145.032 203.712 146.082C209.51 147.783 215.782 150.264 214.862 151.769C213.942 153.274 203.907 161.344 200.701 160.828C197.495 160.313 188.478 155.253 189.551 152.745L174.582 149.107L177.077 140.619Z" fill="#B97964"/>
<path d="M106.971 60.7843C112.462 59.1815 123.124 110.96 130.985 119.726C138.846 128.493 186.234 141.399 186.234 141.399L183.837 151.769C183.837 151.769 125.745 144.703 118.023 133.65C110.302 122.598 99.556 92.9802 98.1901 78.2203C96.8242 63.4604 103.737 61.746 106.971 60.7843Z" fill="#5E63F2"/>
<path d="M156.672 104.548L141.369 103.517L142.456 94.9733L157.773 96.0047L156.672 104.548Z" fill="#5E63F2"/>
<path opacity="0.5" d="M155.863 103.879L142.678 102.987L143.626 95.6423L156.797 96.5343L155.863 103.879Z" fill="white"/>
<path d="M150.567 92.6457L149.09 96.7712H151.557V92.6457H150.567Z" fill="#263238"/>
<path d="M196.924 152.731L182.652 155.421C182.652 155.421 167.724 152.159 165.132 152.731C162.54 153.302 155.822 166.473 155.822 166.473C155.822 166.473 178.749 171.477 181.676 170.501C184.603 169.526 187.028 165.721 187.028 165.721L198.178 163.658L196.924 152.731Z" fill="#E4897B"/>
<path d="M226.053 85.1752C219.307 95.3078 229.105 136.41 229.719 139.016C230.332 141.622 189.522 152.661 189.522 152.661L195.404 170.655C195.404 170.655 246.262 164.787 251.907 158.724C257.552 152.661 251.196 102.82 251.196 102.82L226.109 85.1752H226.053Z" fill="#5E63F2"/>
<path opacity="0.4" d="M251.907 158.724C247.099 163.895 209.411 168.926 198.415 170.292L195.404 170.655L189.522 152.661L192.198 151.922C201.272 149.414 230.234 141.218 229.719 139.016C229.105 136.41 219.307 95.3078 226.053 85.1752L230.415 87.015L244.855 97.9978L251.196 102.82C251.196 102.82 253.733 122.249 254.151 138.236C254.444 147.95 254.026 156.438 251.907 158.724Z" fill="black"/>
<path opacity="0.1" d="M198.415 170.292L195.404 170.655L189.522 152.661L192.198 151.922L198.415 170.292Z" fill="black"/>
<path opacity="0.2" d="M254.151 138.236C245.789 124.842 244.966 110.165 244.855 97.9978L251.197 102.82C251.197 102.82 253.733 122.249 254.151 138.236Z" fill="black"/>
<path d="M134.525 383.133L144.281 224.063H223.265L233.022 383.133H239.99L227.363 178.655C227.058 174.005 225.013 169.642 221.634 166.433C218.255 163.225 213.791 161.408 209.132 161.344H158.678C153.98 161.355 149.46 163.15 146.035 166.367C142.609 169.583 140.532 173.98 140.225 178.669L127.681 383.133H134.525ZM147.068 179.101C147.259 176.18 148.553 173.44 150.688 171.437C152.823 169.434 155.639 168.317 158.567 168.313H209.132C212.055 168.321 214.866 169.437 216.998 171.437C219.129 173.436 220.423 176.17 220.617 179.087L222.959 217.095H144.769L147.068 179.101Z" fill="#5E63F2"/>
<path d="M280.354 372.582L269.455 375.76L263.03 352.164L273.929 348.972L280.354 372.582Z" fill="#B97964"/>
<path d="M268.27 370.701H281.609C281.826 370.702 282.038 370.777 282.207 370.914C282.377 371.05 282.495 371.241 282.542 371.453L284.703 381.21C284.79 381.629 284.709 382.066 284.477 382.426C284.245 382.786 283.88 383.04 283.462 383.133C283.342 383.147 283.22 383.147 283.1 383.133C278.793 383.063 275.671 382.799 270.263 382.799C266.932 382.799 256.897 383.147 252.298 383.147C247.698 383.147 247.099 378.617 248.981 378.199C257.427 376.36 263.768 373.809 266.472 371.384C266.964 370.938 267.606 370.694 268.27 370.701Z" fill="#263238"/>
<path opacity="0.2" d="M273.929 348.972L263.03 352.164L266.347 364.331L277.26 361.154L273.929 348.972Z" fill="black"/>
<path d="M315.797 146.738C318.773 161.756 320.012 177.067 319.49 192.369C318.515 216.913 263.043 247.381 261.984 255.953C260.924 264.524 279.057 354.157 279.057 354.157L259.921 360.958C259.921 360.958 222.108 279.814 221.676 259.953C221.244 240.092 263.043 192.369 274.444 179.212C278.876 174.097 274.514 153.511 274.514 153.511L315.797 146.738Z" fill="#263238"/>
<path opacity="0.3" d="M319.49 192.369C319.142 201.248 311.657 210.892 302.194 220.008C287.183 234.531 267.015 247.688 262.778 254.127C262.379 254.668 262.108 255.292 261.984 255.953C260.938 264.538 279.057 354.157 279.057 354.157L259.921 360.945C259.921 360.945 222.108 279.814 221.676 259.953C221.244 240.092 263.043 192.369 274.444 179.212C278.876 174.097 274.514 153.511 274.514 153.511L315.811 146.724C318.782 161.748 320.016 177.063 319.49 192.369Z" fill="white"/>
<path d="M258.737 364.304L282.04 356.401L280.117 349.906L255.782 357.683L258.737 364.304Z" fill="#5E63F2"/>
<path opacity="0.6" d="M258.737 364.304L282.04 356.401L280.117 349.906L255.782 357.683L258.737 364.304Z" fill="white"/>
<path opacity="0.2" d="M302.194 220.008C287.183 234.531 267.015 247.688 262.778 254.127C263.586 225.262 298.43 194.544 298.43 194.544L302.194 220.008Z" fill="black"/>
<path d="M333.135 372.582L322.236 375.76L315.797 352.164L326.71 348.972L333.135 372.582Z" fill="#B97964"/>
<path d="M321.051 370.701H334.348C334.566 370.702 334.777 370.777 334.946 370.914C335.116 371.051 335.234 371.241 335.282 371.454L337.442 381.21C337.529 381.631 337.446 382.07 337.211 382.43C336.976 382.79 336.608 383.043 336.188 383.133C336.072 383.147 335.955 383.147 335.839 383.133C331.532 383.064 328.396 382.799 323.003 382.799C319.672 382.799 309.622 383.147 305.037 383.147C300.452 383.147 299.838 378.617 301.72 378.199C310.152 376.36 316.508 373.809 319.212 371.384C319.714 370.928 320.373 370.683 321.051 370.701Z" fill="#263238"/>
<path opacity="0.2" d="M326.71 348.972L315.797 352.164L319.128 364.331L330.027 361.154L326.71 348.972Z" fill="black"/>
<path d="M337.471 141.762C343.661 155.851 346.664 171.132 346.265 186.515C345.29 211.046 315.826 247.367 314.766 255.939C313.707 264.51 331.784 354.157 331.784 354.157L312.634 360.958C312.634 360.958 274.821 279.814 274.375 259.953C273.929 240.092 298.376 194.544 298.376 194.544L293.289 149.386L337.471 141.762Z" fill="#263238"/>
<path opacity="0.3" d="M337.471 141.762C343.661 155.851 346.664 171.132 346.265 186.515C345.29 211.046 315.826 247.367 314.766 255.939C313.707 264.51 331.784 354.157 331.784 354.157L312.634 360.958C312.634 360.958 274.821 279.814 274.375 259.953C273.929 240.092 298.376 194.544 298.376 194.544L293.289 149.386L337.471 141.762Z" fill="white"/>
<path d="M311.505 364.304L334.822 356.401L332.885 349.906L308.564 357.683L311.505 364.304Z" fill="#5E63F2"/>
<path opacity="0.6" d="M311.505 364.304L334.822 356.401L332.885 349.906L308.564 357.683L311.505 364.304Z" fill="white"/>
<path d="M346.334 170.627C346.334 170.627 279.824 180.662 273.218 175.324C263.461 167.463 252.688 101.705 226.053 85.1752C228.793 80.7828 232.122 76.7873 235.949 73.3004C244.205 65.5085 254.186 59.7777 265.078 56.5753C273.365 54.178 281.976 53.0916 290.598 53.3557C290.598 53.3557 342.808 90.4575 346.334 170.627Z" fill="#5E63F2"/>
<path opacity="0.3" d="M346.334 170.627C346.334 170.627 279.824 180.662 273.218 175.324C272.5 174.71 271.88 173.991 271.378 173.191C262.068 159.435 251.029 100.716 226.053 85.1752C228.793 80.7828 232.122 76.7872 235.949 73.3004L237.064 72.269C245.107 65.0134 254.683 59.6636 265.078 56.6171C265.622 56.4498 266.179 56.2965 266.737 56.1571C274.512 54.0686 282.551 53.1295 290.598 53.3696C290.598 53.3696 302.236 61.6346 314.891 78.7918C322.472 89.0964 328.776 100.281 333.665 112.103C340.508 128.767 344.652 146.415 345.944 164.383C346.111 166.459 346.237 168.522 346.334 170.627Z" fill="black"/>
<path opacity="0.1" d="M266.737 56.1571C264.635 66.9237 261.46 77.4526 257.26 87.5864C257.26 87.5864 243.615 82.541 237.064 72.2551C245.108 64.9994 254.683 59.6496 265.079 56.6031C265.622 56.4498 266.18 56.2965 266.737 56.1571Z" fill="black"/>
<path opacity="0.1" d="M346.334 170.627C346.334 170.627 279.824 180.662 273.217 175.324C272.5 174.71 271.88 173.991 271.377 173.191C296.524 173.827 321.633 170.87 345.944 164.41C346.111 166.459 346.236 168.522 346.334 170.627Z" fill="black"/>
<path opacity="0.2" d="M333.665 112.131C310.348 105.984 298.222 79.7535 298.222 79.7535L314.947 78.8196C322.508 89.1271 328.793 100.312 333.665 112.131Z" fill="black"/>
<path d="M263.489 57.5927C259.447 72.3387 253.579 74.8753 248.98 74.0112C246.255 73.3264 243.784 71.8754 241.858 69.8299C242.334 68.951 242.556 67.9568 242.499 66.9588C242.408 65.8678 242.074 64.811 241.522 63.8657C240.969 62.9204 240.213 62.1105 239.307 61.4952C238.423 60.8126 237.491 60.1931 236.52 59.6415L236.812 55.8505L238.206 37.857C240.769 41.7768 243.615 45.5035 246.722 49.0071C247.767 50.15 248.869 51.265 249.997 52.2825C254.221 56.1432 258.931 58.7216 263.489 57.5927Z" fill="#E4897B"/>
<path opacity="0.2" d="M248.966 74.0112C246.242 73.3264 243.77 71.8754 241.844 69.8299C242.321 68.951 242.543 67.9568 242.485 66.9588C242.394 65.8678 242.06 64.811 241.508 63.8657C240.956 62.9204 240.199 62.1105 239.294 61.4952C238.409 60.8126 237.478 60.1931 236.506 59.6415L236.799 55.8505L249.998 52.2546C249.998 52.2546 253.301 65.4674 248.966 74.0112Z" fill="black"/>
<path d="M215.99 37.1323C215.99 37.1323 212.046 36.7142 211.405 41.8432C210.764 46.9722 212.506 47.0698 212.506 47.0698C212.506 47.0698 211.112 51.3626 212.84 52.5752C214.569 53.7877 215.99 58.9168 215.99 58.9168L219.893 51.7528L215.99 37.1323Z" fill="#263238"/>
<path opacity="0.6" d="M215.99 37.1323C215.99 37.1323 212.046 36.7142 211.405 41.8432C210.764 46.9722 212.506 47.0698 212.506 47.0698C212.506 47.0698 211.112 51.3626 212.84 52.5752C214.569 53.7877 215.99 58.9168 215.99 58.9168L219.893 51.7528L215.99 37.1323Z" fill="white"/>
<path d="M246.457 63.4743C246.181 64.0508 245.869 64.6094 245.523 65.1469C243.865 67.9532 241.327 70.1349 238.304 71.3543C235.281 72.5737 231.94 72.7629 228.798 71.8926C224.707 70.8607 221.167 68.3024 218.902 64.7427C218.573 64.2561 218.275 63.7486 218.01 63.2235C217.495 62.1642 216.979 61.0074 216.519 59.7669C212.784 49.7737 208.909 36.073 220.993 28.8533C228.603 24.2679 241.384 23.6964 245.941 31.3482C247.61 34.1391 248.687 37.2438 249.104 40.4689C249.522 43.694 249.27 46.9704 248.367 50.0942C249.063 54.0246 249.746 56.8679 246.457 63.4743Z" fill="#E4897B"/>
<path d="M251.461 40.7282C251.461 40.7282 253.481 40.6306 252.659 37.9407C251.837 35.2507 248.38 33.4946 248.38 33.4946C248.38 33.4946 251.168 31.6548 247.516 29.9126C245.651 29.0591 243.534 28.93 241.579 29.5503C240.366 28.5328 229.718 19.989 222.484 25.0763C222.42 25.1324 222.379 25.2101 222.368 25.2946C222.357 25.3792 222.378 25.4648 222.426 25.5353C222.474 25.6057 222.546 25.656 222.629 25.6767C222.711 25.6975 222.799 25.6871 222.874 25.6477C229.188 21.2156 238.708 28.1704 240.798 29.829L240.269 30.0799C238.094 29.1042 222.08 22.233 216.7 30.3029C216.674 30.3412 216.656 30.3843 216.647 30.4297C216.637 30.4751 216.637 30.5218 216.647 30.5673C216.656 30.6127 216.674 30.6558 216.7 30.6942C216.726 30.7326 216.759 30.7654 216.798 30.7907C216.835 30.8164 216.877 30.8344 216.921 30.8434C216.966 30.8524 217.011 30.8524 217.055 30.8433C217.1 30.8342 217.142 30.8161 217.179 30.7903C217.216 30.7645 217.248 30.7315 217.272 30.6931C221.996 23.6128 236.199 29.1042 239.502 30.5119C239.143 30.7344 238.802 30.9861 238.485 31.2646C235.167 30.3586 224.658 27.8777 218.359 31.2646C217.286 31.8242 216.342 32.6037 215.591 33.5523C214.839 34.5009 214.296 35.5973 213.996 36.7699C213.984 36.8129 213.98 36.858 213.985 36.9026C213.99 36.9471 214.004 36.9902 214.026 37.0292C214.048 37.0682 214.078 37.1023 214.114 37.1296C214.149 37.1569 214.19 37.1768 214.233 37.1881H214.331C214.406 37.1881 214.479 37.1636 214.54 37.1184C214.6 37.0731 214.644 37.0095 214.665 36.9372C214.945 35.8571 215.448 34.8476 216.142 33.9738C216.836 33.1 217.705 32.3812 218.693 31.8639C224.449 28.7279 234.275 30.8325 237.899 31.7803C237.318 32.4388 236.847 33.1872 236.505 33.9963C234.596 38.5957 237.69 40.3379 239.711 42.6516C241.732 44.9652 240.798 48.7841 240.77 48.9096C239.81 51.1583 238.351 53.1597 236.505 54.7634C235.214 54.2374 233.769 54.2374 232.477 54.7634C230.727 55.5627 229.326 56.9688 228.533 58.7216C222.415 58.0805 221.425 63.0841 221.425 63.0841C218.747 61.1253 216.612 58.5157 215.223 55.5021C214.609 61.0771 216.617 66.903 218.582 69.2863C220.547 71.6697 221.523 69.2863 221.523 69.2863C221.523 69.2863 221.982 73.9694 224.603 75.7255C227.223 77.4816 228.143 75.3492 228.143 75.3492C228.143 75.3492 229.537 78.29 234.485 79.5305C239.432 80.7709 241.007 73.6488 241.007 73.6488C246.429 77.8301 245.969 67.9483 245.969 67.9483C245.969 67.9483 248.631 68.687 248.38 63.8646C248.171 60.1015 244.826 52.826 243.349 49.7737C245.551 49.4253 248.924 54.4567 248.924 54.4567C258.443 55.3487 251.461 40.7282 251.461 40.7282Z" fill="#263238"/>
<path opacity="0.6" d="M251.461 40.7282C251.461 40.7282 253.481 40.6306 252.659 37.9407C251.837 35.2507 248.38 33.4946 248.38 33.4946C248.38 33.4946 251.168 31.6548 247.516 29.9126C245.651 29.0591 243.534 28.93 241.579 29.5503C240.366 28.5328 229.718 19.989 222.484 25.0763C222.42 25.1324 222.379 25.2101 222.368 25.2946C222.357 25.3792 222.378 25.4648 222.426 25.5353C222.474 25.6057 222.546 25.656 222.629 25.6767C222.711 25.6975 222.799 25.6871 222.874 25.6477C229.188 21.2156 238.708 28.1704 240.798 29.829L240.269 30.0799C238.094 29.1042 222.08 22.233 216.7 30.3029C216.674 30.3412 216.656 30.3843 216.647 30.4297C216.637 30.4751 216.637 30.5218 216.647 30.5673C216.656 30.6127 216.674 30.6558 216.7 30.6942C216.726 30.7326 216.759 30.7654 216.798 30.7907C216.835 30.8164 216.877 30.8344 216.921 30.8434C216.966 30.8524 217.011 30.8524 217.055 30.8433C217.1 30.8342 217.142 30.8161 217.179 30.7903C217.216 30.7645 217.248 30.7315 217.272 30.6931C221.996 23.6128 236.199 29.1042 239.502 30.5119C239.143 30.7344 238.802 30.9861 238.485 31.2646C235.167 30.3586 224.658 27.8777 218.359 31.2646C217.286 31.8242 216.342 32.6037 215.591 33.5523C214.839 34.5009 214.296 35.5973 213.996 36.7699C213.984 36.8129 213.98 36.858 213.985 36.9026C213.99 36.9471 214.004 36.9902 214.026 37.0292C214.048 37.0682 214.078 37.1023 214.114 37.1296C214.149 37.1569 214.19 37.1768 214.233 37.1881H214.331C214.406 37.1881 214.479 37.1636 214.54 37.1184C214.6 37.0731 214.644 37.0095 214.665 36.9372C214.945 35.8571 215.448 34.8476 216.142 33.9738C216.836 33.1 217.705 32.3812 218.693 31.8639C224.449 28.7279 234.275 30.8325 237.899 31.7803C237.318 32.4388 236.847 33.1872 236.505 33.9963C234.596 38.5957 237.69 40.3379 239.711 42.6516C241.732 44.9652 240.798 48.7841 240.77 48.9096C239.81 51.1583 238.351 53.1597 236.505 54.7634C235.214 54.2374 233.769 54.2374 232.477 54.7634C230.727 55.5627 229.326 56.9688 228.533 58.7216C222.415 58.0805 221.425 63.0841 221.425 63.0841C218.747 61.1253 216.612 58.5157 215.223 55.5021C214.609 61.0771 216.617 66.903 218.582 69.2863C220.547 71.6697 221.523 69.2863 221.523 69.2863C221.523 69.2863 221.982 73.9694 224.603 75.7255C227.223 77.4816 228.143 75.3492 228.143 75.3492C228.143 75.3492 229.537 78.29 234.485 79.5305C239.432 80.7709 241.007 73.6488 241.007 73.6488C246.429 77.8301 245.969 67.9483 245.969 67.9483C245.969 67.9483 248.631 68.687 248.38 63.8646C248.171 60.1015 244.826 52.826 243.349 49.7737C245.551 49.4253 248.924 54.4567 248.924 54.4567C258.443 55.3487 251.461 40.7282 251.461 40.7282Z" fill="white"/>
<path d="M229.621 46.8189C229.899 47.7249 229.523 48.6169 228.91 48.7563C228.297 48.8956 227.628 48.2545 227.405 47.3625C227.182 46.4705 227.516 45.5506 228.129 45.4112C228.743 45.2718 229.398 45.8712 229.621 46.8189Z" fill="#263238"/>
<path d="M219.056 49.258C219.209 49.612 219.219 50.0115 219.084 50.3728C218.949 50.734 218.679 51.0288 218.331 51.1953C217.718 51.3347 217.049 50.6936 216.826 49.8016C216.603 48.9096 216.937 47.9897 217.551 47.8503C218.164 47.7109 218.889 48.3799 219.056 49.258Z" fill="#263238"/>
<path d="M222.513 48.9374C222.063 52.055 221.181 55.0947 219.893 57.969C220.642 58.2805 221.451 58.4244 222.263 58.3907C223.074 58.357 223.868 58.1465 224.59 57.7739L222.513 48.9374Z" fill="#DE5753"/>
<path d="M232.116 42.6376C232.018 42.6736 231.913 42.6835 231.81 42.6664C231.707 42.6493 231.611 42.6057 231.53 42.5401C230.998 42.0737 230.364 41.7377 229.68 41.5587C228.995 41.3797 228.278 41.3626 227.586 41.5087C227.445 41.5525 227.293 41.5389 227.163 41.471C227.032 41.4032 226.934 41.2864 226.889 41.1463C226.849 41.004 226.867 40.852 226.937 40.7221C227.007 40.5922 227.125 40.4945 227.265 40.4494C228.135 40.2405 229.043 40.2442 229.912 40.4601C230.78 40.676 231.584 41.0978 232.255 41.6899C232.369 41.7827 232.442 41.9167 232.457 42.0629C232.473 42.2091 232.43 42.3555 232.339 42.4704C232.274 42.538 232.199 42.5945 232.116 42.6376Z" fill="#263238"/>
<path d="M213.662 46.6517C213.571 46.7233 213.457 46.7582 213.341 46.7492C213.199 46.7158 213.075 46.6294 212.995 46.5076C212.915 46.3858 212.884 46.2379 212.909 46.0942C213.087 45.2168 213.474 44.3952 214.037 43.6989C214.6 43.0027 215.322 42.4522 216.143 42.0941C216.212 42.0675 216.286 42.0551 216.361 42.0576C216.435 42.0601 216.508 42.0774 216.576 42.1086C216.643 42.1397 216.704 42.1841 216.754 42.2391C216.804 42.294 216.843 42.3585 216.868 42.4286C216.911 42.5694 216.9 42.7211 216.838 42.8547C216.777 42.9884 216.668 43.0947 216.533 43.1533C215.892 43.4541 215.33 43.9005 214.892 44.4571C214.454 45.0137 214.152 45.665 214.01 46.359C213.978 46.4306 213.929 46.494 213.869 46.5446C213.809 46.5953 213.738 46.6318 213.662 46.6517Z" fill="#263238"/>
<path opacity="0.6" d="M232.116 42.6376C232.018 42.6736 231.913 42.6835 231.81 42.6664C231.707 42.6493 231.611 42.6057 231.53 42.5401C230.998 42.0737 230.364 41.7377 229.68 41.5587C228.995 41.3797 228.278 41.3626 227.586 41.5087C227.445 41.5525 227.293 41.5389 227.163 41.471C227.032 41.4032 226.934 41.2864 226.889 41.1463C226.849 41.004 226.867 40.852 226.937 40.7221C227.007 40.5922 227.125 40.4945 227.265 40.4494C228.135 40.2405 229.043 40.2442 229.912 40.4601C230.78 40.676 231.584 41.0978 232.255 41.6899C232.369 41.7827 232.442 41.9167 232.457 42.0629C232.473 42.2091 232.43 42.3555 232.339 42.4704C232.274 42.538 232.199 42.5945 232.116 42.6376Z" fill="white"/>
<path opacity="0.6" d="M213.662 46.6517C213.571 46.7233 213.457 46.7582 213.341 46.7492C213.199 46.7158 213.075 46.6294 212.995 46.5076C212.915 46.3858 212.884 46.2379 212.909 46.0942C213.087 45.2168 213.474 44.3952 214.037 43.6989C214.6 43.0027 215.322 42.4522 216.143 42.0941C216.212 42.0675 216.286 42.0551 216.361 42.0576C216.435 42.0601 216.508 42.0774 216.576 42.1086C216.643 42.1397 216.704 42.1841 216.754 42.2391C216.804 42.294 216.843 42.3585 216.868 42.4286C216.911 42.5694 216.9 42.7211 216.838 42.8547C216.777 42.9884 216.668 43.0947 216.533 43.1533C215.892 43.4541 215.33 43.9005 214.892 44.4571C214.454 45.0137 214.152 45.665 214.01 46.359C213.978 46.4306 213.929 46.494 213.869 46.5446C213.809 46.5953 213.738 46.6318 213.662 46.6517Z" fill="white"/>
<path opacity="0.2" d="M222.611 64.7009C222.611 64.7009 223.628 65.7183 224.994 64.1573C224.994 64.1573 226.932 67.1817 228.952 60.4778C228.952 60.4778 234.36 61.5649 235.838 60.4778C236.855 59.7391 235.838 58.4011 235.838 58.4011C235.838 58.4011 238.054 58.1781 238.625 56.5334C238.625 56.5334 240.381 63.098 230.263 61.8576C230.235 61.8576 226.987 68.9379 222.611 64.7009Z" fill="black"/>
<path d="M253.51 47.8364C253.179 49.2697 252.568 50.6233 251.712 51.8193C250.855 53.0154 249.771 54.0301 248.52 54.8052C245.175 56.8679 242.416 54.1222 242.43 50.4009C242.43 47.0837 244.242 41.9129 248.005 41.4111C251.768 40.9094 254.291 44.2823 253.51 47.8364Z" fill="#E4897B"/>
<path opacity="0.2" d="M227.335 48.3799C227.335 48.3799 227.865 51.056 231.07 50.2197" stroke="black" stroke-width="0.5" stroke-linecap="round" stroke-linejoin="round"/>
<path opacity="0.2" d="M219.544 50.4427C219.544 50.4427 219.475 53.6205 217.272 53.3696" stroke="black" stroke-width="0.5" stroke-linecap="round" stroke-linejoin="round"/>
<path opacity="0.2" d="M215.571 40.2822C218.765 38.5039 222.404 37.6814 226.052 37.9128" stroke="black" stroke-width="0.5" stroke-linecap="round" stroke-linejoin="round"/>
<path opacity="0.2" d="M215.571 38.6236C216.952 37.3353 218.645 36.429 220.483 35.9939C222.321 35.5589 224.24 35.6102 226.052 36.1427" stroke="black" stroke-width="0.5" stroke-linecap="round" stroke-linejoin="round"/>
<path opacity="0.2" d="M216.909 35.6689C218.259 34.6574 219.838 33.9935 221.505 33.7359C223.173 33.4782 224.878 33.6347 226.47 34.1915" stroke="black" stroke-width="0.5" stroke-linecap="round" stroke-linejoin="round"/>
<path d="M350.571 131.309L343.603 139.016C343.603 139.016 338.669 141.999 338.376 143.699C338.083 145.4 344.509 167.463 344.509 167.463C344.509 167.463 353.247 160.745 352.969 158.724C352.69 156.703 348.564 146.724 348.564 146.724L356.244 139.574L350.571 131.309Z" fill="#E4897B"/>
<path d="M290.598 53.3975C290.598 53.3975 351.812 57.5788 374.419 83.7118C397.026 109.845 352.913 146.724 352.913 146.724L344.955 133.19C344.955 133.19 362.851 115.071 356.23 102.82C349.61 90.569 315.811 91.6004 315.811 91.6004C315.811 91.6004 282.877 78.0252 290.598 53.3975Z" fill="#5E63F2"/>
<path opacity="0.4" d="M356.189 143.769C354.182 145.664 352.913 146.724 352.913 146.724L344.955 133.19C344.955 133.19 345.638 132.507 346.683 131.309C350.99 126.375 361.568 112.73 356.23 102.82C349.61 90.5272 315.811 91.6004 315.811 91.6004C315.811 91.6004 282.891 78.0252 290.612 53.3975C290.612 53.3975 351.826 57.5787 374.433 83.6978C393.193 105.399 365.959 134.514 356.189 143.769Z" fill="black"/>
<path opacity="0.1" d="M356.188 143.769C354.181 145.664 352.912 146.724 352.912 146.724L344.954 133.19C344.954 133.19 345.637 132.507 346.682 131.309L356.188 143.769Z" fill="black"/>
<path d="M224.659 195.31H144.449C143.524 195.31 142.638 194.943 141.985 194.29C141.331 193.636 140.964 192.75 140.964 191.826C140.964 190.902 141.331 190.015 141.985 189.362C142.638 188.708 143.524 188.341 144.449 188.341H224.659C225.584 188.341 226.47 188.708 227.123 189.362C227.777 190.015 228.144 190.902 228.144 191.826C228.144 192.75 227.777 193.636 227.123 194.29C226.47 194.943 225.584 195.31 224.659 195.31Z" fill="#5E63F2"/>
<g opacity="0.2">
<path d="M224.659 195.31H144.448C143.524 195.31 142.638 194.943 141.984 194.29C141.331 193.636 140.964 192.75 140.964 191.826C140.964 190.902 141.331 190.015 141.984 189.362C142.638 188.708 143.524 188.341 144.448 188.341H224.659C225.583 188.341 226.469 188.708 227.123 189.362C227.776 190.015 228.143 190.902 228.143 191.826C228.143 192.75 227.776 193.636 227.123 194.29C226.469 194.943 225.583 195.31 224.659 195.31Z" fill="white"/>
</g>
<path d="M217.691 301.166H137.48C136.556 301.166 135.669 300.799 135.016 300.146C134.362 299.492 133.995 298.606 133.995 297.682C133.995 296.758 134.362 295.871 135.016 295.218C135.669 294.565 136.556 294.197 137.48 294.197H217.691C218.615 294.197 219.501 294.565 220.154 295.218C220.808 295.871 221.175 296.758 221.175 297.682C221.175 298.606 220.808 299.492 220.154 300.146C219.501 300.799 218.615 301.166 217.691 301.166Z" fill="#5E63F2"/>
<g opacity="0.2">
<path d="M217.691 301.166H137.48C136.556 301.166 135.67 300.799 135.016 300.146C134.363 299.492 133.996 298.606 133.996 297.682C133.996 296.758 134.363 295.871 135.016 295.218C135.67 294.565 136.556 294.197 137.48 294.197H217.691C218.615 294.197 219.502 294.565 220.155 295.218C220.808 295.871 221.176 296.758 221.176 297.682C221.176 298.606 220.808 299.492 220.155 300.146C219.502 300.799 218.615 301.166 217.691 301.166Z" fill="white"/>
</g>
<path d="M216.756 383.133L226.513 224.063H305.497L315.323 383.133H322.292L309.665 178.655C309.359 173.993 307.304 169.62 303.91 166.41C300.516 163.2 296.035 161.39 291.364 161.344H240.91C236.211 161.355 231.692 163.15 228.267 166.367C224.841 169.583 222.764 173.98 222.457 178.669L209.913 383.133H216.756ZM229.3 179.101C229.491 176.18 230.785 173.44 232.92 171.437C235.055 169.434 237.871 168.317 240.799 168.313H291.364C294.287 168.321 297.098 169.437 299.23 171.437C301.361 173.436 302.655 176.17 302.849 179.087L305.191 217.095H227.001L229.3 179.101Z" fill="#5E63F2"/>
<path opacity="0.2" d="M216.756 383.133L226.513 224.063H305.497L315.323 383.133H322.292L309.665 178.655C309.359 173.993 307.304 169.62 303.91 166.41C300.516 163.2 296.035 161.39 291.364 161.344H240.91C236.211 161.355 231.692 163.15 228.267 166.367C224.841 169.583 222.764 173.98 222.457 178.669L209.913 383.133H216.756ZM229.3 179.101C229.491 176.18 230.785 173.44 232.92 171.437C235.055 169.434 237.871 168.317 240.799 168.313H291.364C294.287 168.321 297.098 169.437 299.23 171.437C301.361 173.436 302.655 176.17 302.849 179.087L305.191 217.095H227.001L229.3 179.101Z" fill="white"/>
</svg>
