<svg width="219" height="97" viewBox="0 0 219 97" fill="none" xmlns="http://www.w3.org/2000/svg">
<g clip-path="url(#clip0_63_8327)">
<mask id="mask0_63_8327" style="mask-type:luminance" maskUnits="userSpaceOnUse" x="0" y="0" width="219" height="97">
<path d="M219 0H0V97H219V0Z" fill="white"/>
</mask>
<g mask="url(#mask0_63_8327)">
<path d="M0.0184237 44.8546C0.0184237 38.8144 0.0501425 32.7742 0.00705278 26.7341C-0.0198783 22.9419 1.6289 20.184 4.80677 18.2237C13.6503 12.7679 22.4987 7.3187 31.3034 1.80165C34.9774 -0.503429 38.4976 -0.660785 42.2386 1.69354C50.8314 7.09487 59.4683 12.4249 68.1493 17.6837C71.9496 19.9738 73.8144 23.0146 73.7623 27.5545C73.6235 39.5147 73.8222 51.4791 73.6731 63.4393C73.5947 67.3917 72.0955 71.1825 69.4517 74.1131C66.808 77.0438 63.1978 78.9167 59.2866 79.3869C55.4389 79.8163 51.563 78.8773 48.3344 76.7334C45.1058 74.5896 42.7291 71.3767 41.6186 67.6549C41.2142 66.1744 41.0111 64.6459 41.0147 63.1108C40.9423 57.9007 41.0746 52.6869 40.9549 47.4786C40.8746 45.9392 41.1687 44.4034 41.8116 43.0036C42.4546 41.6037 43.4272 40.3818 44.6456 39.4432C48.556 36.2 52.3766 32.8487 56.2302 29.537C58.3117 27.7485 60.535 26.6626 62.6739 29.2458C64.8589 31.8884 63.1407 33.8145 61.1131 35.537C58.1417 38.0595 55.1883 40.6066 52.1845 43.0918C51.0136 43.9992 50.0798 45.1783 49.4633 46.5278C48.8468 47.8774 48.566 49.357 48.6452 50.8395C48.7487 54.8635 48.6009 58.894 48.6931 62.9186C48.8128 68.0489 52.5544 71.7744 57.4008 71.7389C62.1556 71.7041 65.9475 67.8651 65.9822 62.7697C66.0564 51.9926 66.011 41.2144 66.002 30.4367C66.0424 28.8859 65.6627 27.3532 64.9033 26.002C64.1439 24.6508 63.0334 23.5317 61.69 22.7642C55.1747 18.7085 48.6472 14.6706 42.1075 10.6502C38.5526 8.45322 35.0618 8.42799 31.4739 10.703C25.0937 14.7534 18.6464 18.6969 12.2236 22.6801C9.15345 24.5839 7.69199 27.2992 7.71174 30.958C7.77158 41.4985 7.69259 52.0389 7.74645 62.5799C7.77338 67.7528 11.3373 71.5395 16.1543 71.7293C20.8481 71.9137 24.7424 68.6411 25.1403 63.551C25.4221 58.9424 25.4435 54.3214 25.2044 49.7104C25.114 47.1398 23.804 44.9903 21.7979 43.308C18.629 40.651 15.4918 37.9574 12.3331 35.2883C10.2983 33.5664 9.15285 31.5394 11.1667 29.2019C13.1548 26.8932 15.3278 27.6446 17.362 29.3989C21.3873 32.8711 25.4276 36.3277 29.4828 39.7687C30.5098 40.5783 31.3464 41.605 31.9332 42.7758C32.52 43.9466 32.8425 45.2328 32.8779 46.5428C33.0323 52.81 33.462 59.103 32.6218 65.3414C32.0476 69.4347 29.9566 73.1601 26.7661 75.7745C23.5756 78.3889 19.5201 79.7 15.4089 79.4461C11.2977 79.1923 7.43297 77.3921 4.58591 74.4049C1.73886 71.4177 0.118785 67.463 0.0489456 63.33C-0.0486048 57.1733 0.0297946 51.0136 0.0297946 44.8546H0.0184237Z" fill="#5E63F2"/>
<path d="M36.9001 36.8722C35.9164 36.8885 34.9394 36.7067 34.0268 36.3376C33.1143 35.9685 32.2848 35.4196 31.5873 34.7233C30.8897 34.027 30.3384 33.1974 29.9658 32.2836C29.5932 31.3698 29.4069 30.3903 29.4179 29.403C29.429 28.4157 29.6371 27.4407 30.0301 26.5355C30.423 25.6303 30.9928 24.8134 31.7057 24.1329C32.4186 23.4525 33.2602 22.9224 34.1808 22.574C35.1013 22.2255 36.0821 22.0658 37.0652 22.1042C38.9651 22.2016 40.7608 23.0053 42.1025 24.3587C43.4441 25.7122 44.2357 27.5184 44.3229 29.4255C44.3103 31.3967 43.5244 33.2837 42.1354 34.6776C40.7464 36.0715 38.8662 36.8602 36.9019 36.8728" fill="#0CD0A2"/>
<path d="M182.201 73.4466C181.689 73.4586 181.193 73.2745 180.812 72.9318C180.626 72.7705 180.479 72.57 180.38 72.3448C180.281 72.1196 180.232 71.8753 180.238 71.6292V53.451C180.232 53.2049 180.281 52.9605 180.38 52.7353C180.479 52.5102 180.626 52.3097 180.812 52.1483C181.192 51.8053 181.689 51.621 182.201 51.633C182.536 51.6314 182.867 51.7092 183.167 51.86C183.463 52.0066 183.714 52.232 183.891 52.5117C184.071 52.7914 184.166 53.118 184.163 53.451V71.6286C184.169 71.8747 184.12 72.1191 184.021 72.3443C183.922 72.5695 183.774 72.7699 183.589 72.9312C183.208 73.2738 182.712 73.4578 182.201 73.4459M182.201 60.7218H195.181V64.3572H182.201V60.7218ZM195.181 73.4459C194.67 73.4579 194.174 73.2738 193.793 72.9312C193.608 72.77 193.46 72.5695 193.361 72.3443C193.262 72.1191 193.213 71.8747 193.219 71.6286V53.451C193.213 53.2048 193.262 52.9604 193.361 52.7352C193.46 52.51 193.608 52.3096 193.793 52.1483C194.174 51.8054 194.67 51.6211 195.181 51.633C195.517 51.6314 195.848 51.7092 196.147 51.86C196.444 52.0065 196.695 52.2319 196.872 52.5117C197.052 52.7914 197.147 53.118 197.144 53.451V71.6286C197.15 71.8746 197.101 72.119 197.002 72.3442C196.903 72.5693 196.756 72.7698 196.57 72.9312C196.19 73.2738 195.693 73.4579 195.181 73.4459Z" fill="#5E63F2"/>
<path d="M203.633 73.4465C203.286 73.451 202.944 73.3684 202.637 73.2063C202.347 73.0562 202.102 72.8315 201.927 72.5553C201.755 72.2784 201.666 71.9574 201.67 71.631V53.7543C201.665 53.5082 201.713 53.2639 201.812 53.0387C201.911 52.8135 202.059 52.6131 202.244 52.4516C202.625 52.1087 203.121 51.9244 203.633 51.9363H210.123C211.591 51.8954 213.049 52.1799 214.395 52.7693C215.492 53.2555 216.422 54.0567 217.067 55.072C217.681 56.0893 217.995 57.2605 217.972 58.4497C217.997 59.7483 217.576 61.0158 216.779 62.0395C215.948 63.0836 214.797 63.8237 213.504 64.1452L214.198 62.5392V64.2052L218.485 70.1126C218.813 70.5378 218.994 71.0594 218.998 71.5973C219.013 72.0854 218.834 72.5591 218.501 72.915C218.312 73.0995 218.086 73.242 217.839 73.3333C217.591 73.4246 217.327 73.4625 217.064 73.4447C216.723 73.4452 216.389 73.3508 216.098 73.1721C215.769 72.9659 215.482 72.6986 215.253 72.3847L208.943 63.5079L211.72 64.962H203.694V61.3266H210.124C210.847 61.3432 211.568 61.2305 212.253 60.9938C212.791 60.8127 213.26 60.4686 213.595 60.0089C213.906 59.5487 214.064 59.0026 214.049 58.4473C214.059 57.9159 213.912 57.3934 213.626 56.9459C213.307 56.4822 212.854 56.1279 212.328 55.9308C211.624 55.6677 210.875 55.5443 210.124 55.5675H205.596V71.6243C205.598 71.8678 205.549 72.109 205.449 72.3313C205.35 72.5536 205.204 72.7517 205.022 72.912C204.645 73.2632 204.147 73.4532 203.633 73.4417" fill="#5E63F2"/>
<path d="M86.6426 43.7442C86.131 43.7562 85.6343 43.5719 85.2535 43.2289C85.0682 43.0676 84.9207 42.8671 84.8216 42.6419C84.7225 42.4167 84.6742 42.1723 84.6802 41.9262V23.7493C84.6744 23.5032 84.7227 23.2588 84.8219 23.0337C84.921 22.8085 85.0684 22.608 85.2535 22.4466C85.6343 22.1037 86.1311 21.9194 86.6426 21.9313C86.9778 21.9297 87.3088 22.0075 87.6085 22.1583C87.9047 22.305 88.1551 22.5304 88.3326 22.8099C88.513 23.0896 88.6077 23.4162 88.6049 23.7493V41.9268C88.6107 42.1729 88.5624 42.4173 88.4633 42.6424C88.3642 42.8676 88.2168 43.0681 88.0316 43.2295C87.6507 43.5722 87.154 43.7565 86.6426 43.7448M86.6426 31.0206H99.6239V34.656H86.6432L86.6426 31.0206ZM99.6239 43.7442C99.1126 43.7561 98.616 43.5718 98.2355 43.2289C98.0502 43.0676 97.9027 42.8671 97.8036 42.6419C97.7045 42.4167 97.6562 42.1723 97.6622 41.9262V23.7493C97.6564 23.5032 97.7047 23.2588 97.8038 23.0337C97.9029 22.8085 98.0503 22.608 98.2355 22.4466C98.6161 22.1038 99.1126 21.9195 99.6239 21.9313C99.9592 21.9297 100.29 22.0075 100.59 22.1583C100.886 22.3049 101.137 22.5303 101.315 22.8099C101.495 23.0897 101.589 23.4162 101.586 23.7493V41.9268C101.592 42.1729 101.544 42.4173 101.445 42.6424C101.346 42.8676 101.198 43.0681 101.013 43.2295C100.632 43.5725 100.135 43.7568 99.6239 43.7448" fill="#5E63F2"/>
<path d="M112.302 43.8962C111.058 43.9161 109.829 43.6244 108.725 43.0475C107.714 42.5242 106.859 41.74 106.249 40.7755C105.663 39.8526 105.354 38.7799 105.359 37.6854V34.202C105.354 33.1074 105.663 32.0345 106.249 31.1113C106.859 30.1471 107.714 29.363 108.725 28.8393C109.836 28.2815 111.061 27.9911 112.303 27.9911C113.545 27.9911 114.769 28.2815 115.88 28.8393C116.891 29.3632 117.746 30.1472 118.356 31.1113C118.942 32.0346 119.251 33.1074 119.246 34.202V37.6854C119.251 38.7798 118.942 39.8525 118.356 40.7755C117.746 41.7398 116.892 42.524 115.88 43.0475C114.776 43.6244 113.547 43.916 112.303 43.8962M112.303 40.8668C112.902 40.8776 113.493 40.737 114.024 40.4578C114.514 40.1969 114.922 39.8033 115.201 39.3214C115.486 38.8242 115.632 38.259 115.623 37.6854V34.202C115.632 33.6284 115.486 33.0632 115.201 32.566C114.922 32.0844 114.514 31.691 114.024 31.4302C113.49 31.1611 112.9 31.0209 112.303 31.0209C111.705 31.0209 111.116 31.1611 110.582 31.4302C110.091 31.6907 109.683 32.0842 109.405 32.566C109.119 33.0631 108.973 33.6284 108.982 34.202V37.6854C108.973 38.259 109.119 38.8243 109.405 39.3214C109.683 39.8035 110.091 40.1972 110.582 40.4578C111.112 40.7371 111.704 40.8777 112.302 40.8668" fill="#5E63F2"/>
<path d="M124.529 43.5929C124.203 43.5969 123.881 43.5188 123.593 43.3658C123.325 43.2276 123.101 43.0179 122.944 42.7598C122.793 42.5085 122.715 42.2202 122.717 41.9268V29.96C122.714 29.7378 122.759 29.5174 122.847 29.3137C122.936 29.1099 123.067 28.9275 123.231 28.7786C123.583 28.4517 124.05 28.2775 124.529 28.294C124.883 28.2857 125.23 28.3861 125.525 28.5816C125.805 28.7717 126.029 29.0331 126.174 29.339C126.328 29.6655 126.406 30.0229 126.401 30.384V31.3534L124.982 29.8081H126.642C127.014 29.254 127.517 28.8012 128.107 28.4904C128.723 28.1563 129.414 27.9841 130.115 27.9901C130.934 27.9891 131.742 28.1867 132.469 28.566C133.198 28.9373 133.837 29.4648 134.341 30.1114H134.64C135.147 29.4578 135.791 28.9246 136.527 28.5498C137.251 28.1784 138.054 27.9861 138.867 27.9889C139.843 27.9864 140.8 28.2554 141.633 28.766C142.477 29.2703 143.183 29.9785 143.685 30.8261C144.192 31.6611 144.459 32.6207 144.455 33.5984V41.9298C144.458 42.152 144.414 42.3724 144.326 42.5761C144.237 42.7798 144.106 42.9622 143.942 43.1112C143.59 43.4382 143.124 43.6124 142.644 43.5959C142.318 43.5999 141.996 43.5219 141.708 43.3688C141.44 43.2308 141.215 43.021 141.059 42.7628C140.908 42.5115 140.83 42.2231 140.833 41.9298V33.5954C140.846 33.249 140.785 32.9038 140.655 32.5828C140.525 32.2617 140.328 31.9722 140.077 31.7336C139.522 31.2398 138.795 30.9843 138.054 31.0219C137.704 31.0077 137.355 31.0634 137.026 31.1855C136.697 31.3077 136.396 31.4939 136.139 31.7336C135.893 31.9745 135.7 32.2648 135.572 32.5855C135.445 32.9063 135.386 33.2504 135.4 33.5954V41.9268C135.403 42.149 135.359 42.3694 135.27 42.5731C135.182 42.7768 135.051 42.9592 134.887 43.1082C134.535 43.4351 134.068 43.6093 133.589 43.5929C133.263 43.5969 132.941 43.5188 132.653 43.3658C132.385 43.2276 132.16 43.0179 132.003 42.7598C131.853 42.5084 131.775 42.2201 131.777 41.9268V33.5954C131.79 33.2491 131.73 32.9039 131.6 32.5829C131.469 32.2619 131.273 31.9723 131.022 31.7336C130.487 31.2471 129.782 30.9915 129.06 31.0219C128.697 30.9964 128.332 31.0495 127.991 31.1775C127.65 31.3055 127.34 31.5055 127.082 31.764C126.825 32.0224 126.626 32.3333 126.498 32.6757C126.37 33.0181 126.318 33.3839 126.343 33.7486V41.928C126.346 42.1502 126.302 42.3706 126.214 42.5743C126.125 42.778 125.994 42.9604 125.83 43.1094C125.478 43.4364 125.011 43.6106 124.532 43.5941" fill="#5E63F2"/>
<path d="M154.718 43.8962C153.474 43.9162 152.244 43.6248 151.141 43.0481C150.129 42.5247 149.275 41.7405 148.665 40.7761C148.079 39.8531 147.77 38.7804 147.774 37.686V34.2026C147.77 33.1082 148.079 32.0355 148.665 31.1125C149.275 30.1483 150.129 29.3642 151.141 28.8405C152.251 28.2826 153.476 27.9921 154.718 27.9921C155.96 27.9921 157.185 28.2826 158.296 28.8405C159.307 29.363 160.162 30.1456 160.773 31.1083C161.359 32.0313 161.668 33.104 161.663 34.1984V35.5617C161.666 35.7839 161.622 36.0042 161.534 36.208C161.445 36.4117 161.315 36.5941 161.15 36.7431C160.798 37.0701 160.332 37.2443 159.852 37.2278H150.313L151.399 36.1371V37.6824C151.391 38.256 151.537 38.8213 151.822 39.3184C152.101 39.8003 152.508 40.1941 152.999 40.4548C153.529 40.734 154.121 40.8747 154.72 40.8638C155.307 40.8726 155.892 40.7916 156.455 40.6235C156.991 40.4516 157.495 40.196 157.951 39.8662C158.221 39.6464 158.521 39.4679 158.842 39.3365C159.119 39.2414 159.41 39.1953 159.703 39.2001C159.886 39.1936 160.068 39.2268 160.237 39.2974C160.407 39.3679 160.559 39.4743 160.683 39.6091C160.928 39.8657 161.064 40.2082 161.06 40.5635C161.047 40.931 160.932 41.2875 160.728 41.5935C160.477 41.9886 160.148 42.3287 159.762 42.5935C159.12 43.0341 158.404 43.3572 157.649 43.5478C156.693 43.7936 155.708 43.9107 154.721 43.8962M151.4 35.2014L150.313 34.3527H159.128L158.041 35.2014V34.1713C158.051 33.6021 157.904 33.0412 157.618 32.5497C157.336 32.0749 156.928 31.6872 156.441 31.429C155.911 31.1499 155.319 31.0092 154.72 31.02C154.131 31.0114 153.55 31.1521 153.03 31.429C152.536 31.6918 152.124 32.0847 151.837 32.5654C151.545 33.0493 151.394 33.6052 151.399 34.1707L151.4 35.2014Z" fill="#5E63F2"/>
<path d="M85.9008 73.879C85.3894 73.891 84.8927 73.7069 84.5118 73.3643C84.3265 73.2029 84.1791 73.0025 84.08 72.7773C83.9809 72.5521 83.9325 72.3077 83.9385 72.0616V53.8834C83.9326 53.6373 83.9809 53.393 84.08 53.1678C84.1791 52.9426 84.3266 52.7421 84.5118 52.5807C84.8925 52.2377 85.3893 52.0534 85.9008 52.0654C86.2361 52.0638 86.5671 52.1416 86.8668 52.2925C87.1632 52.439 87.4139 52.6644 87.5915 52.9441C87.7717 53.2238 87.8662 53.5504 87.8632 53.8834V72.061C87.869 72.3071 87.8206 72.5514 87.7215 72.7766C87.6224 73.0017 87.475 73.2022 87.2899 73.3637C86.9089 73.7062 86.4122 73.8909 85.9008 73.879ZM85.9008 61.1542H98.8816V64.7896H85.9008V61.1542ZM98.8816 73.8784C98.3704 73.8903 97.8739 73.7063 97.4932 73.3637C97.3078 73.2024 97.1602 73.002 97.061 72.7768C96.9617 72.5516 96.9133 72.3071 96.9192 72.061V53.8834C96.9134 53.6373 96.9618 53.3929 97.061 53.1677C97.1602 52.9425 97.3078 52.742 97.4932 52.5807C97.8737 52.2378 98.3703 52.0535 98.8816 52.0654C99.2169 52.0638 99.5478 52.1416 99.8476 52.2925C100.144 52.439 100.394 52.6644 100.572 52.9441C100.752 53.2238 100.846 53.5504 100.843 53.8834V72.061C100.849 72.3071 100.801 72.5515 100.702 72.7767C100.602 73.0019 100.455 73.2023 100.269 73.3637C99.8887 73.7062 99.3922 73.8903 98.881 73.8784" fill="#0CD0A2"/>
<path d="M111.561 74.0303C110.317 74.0503 109.088 73.7586 107.984 73.1817C106.973 72.6582 106.118 71.874 105.508 70.9096C104.922 69.9866 104.613 68.914 104.618 67.8196V64.3362C104.613 63.2417 104.922 62.1691 105.508 61.2461C106.118 60.2819 106.973 59.4978 107.984 58.9741C109.095 58.4162 110.32 58.1257 111.561 58.1257C112.803 58.1257 114.028 58.4162 115.139 58.9741C116.15 59.498 117.004 60.2821 117.614 61.2461C118.2 62.1691 118.509 63.2417 118.505 64.3362V65.6995C118.508 65.9217 118.464 66.1421 118.375 66.3458C118.286 66.5495 118.156 66.732 117.991 66.8809C117.639 67.208 117.172 67.3822 116.693 67.3655H107.153L108.24 66.2749V67.8202C108.232 68.3938 108.378 68.959 108.663 69.4562C108.941 69.9382 109.349 70.3319 109.84 70.5925C110.37 70.8719 110.962 71.0126 111.561 71.0015C112.148 71.0104 112.733 70.9294 113.296 70.7613C113.831 70.5894 114.336 70.3338 114.792 70.0039C115.061 69.7842 115.362 69.6057 115.683 69.4742C115.96 69.3792 116.251 69.333 116.543 69.3379C116.727 69.3314 116.909 69.3646 117.078 69.4352C117.247 69.5058 117.4 69.6121 117.524 69.7469C117.77 70.0033 117.905 70.3458 117.902 70.7012C117.888 71.0687 117.773 71.4252 117.57 71.7312C117.318 72.1262 116.99 72.4661 116.604 72.7306C115.961 73.1714 115.246 73.4945 114.491 73.685C113.534 73.9308 112.55 74.0479 111.562 74.0333M108.241 65.3385L107.155 64.4905H115.969L114.883 65.3385V64.3085C114.892 63.7393 114.746 63.1784 114.46 62.6869C114.178 62.2119 113.77 61.824 113.283 61.5656C112.753 61.2865 112.161 61.1459 111.562 61.1566C110.973 61.148 110.392 61.2887 109.872 61.5656C109.378 61.8284 108.966 62.2213 108.679 62.7019C108.387 63.1861 108.236 63.7422 108.241 64.3079V65.3385Z" fill="#0CD0A2"/>
<path d="M125.901 74.0303C124.983 74.0464 124.075 73.833 123.26 73.4093C122.516 73.0243 121.886 72.4497 121.434 71.7433C120.998 71.0718 120.767 70.2874 120.769 69.4862C120.76 68.588 121.018 67.7074 121.509 66.9565C122.041 66.1662 122.784 65.5419 123.652 65.1548C124.691 64.6889 125.82 64.4611 126.958 64.4881H131.517L130.43 65.5788V64.0335C130.436 63.5139 130.306 63.0017 130.052 62.5488C129.806 62.1104 129.44 61.7527 128.996 61.5188C128.506 61.2677 127.961 61.1429 127.411 61.1554C126.987 61.144 126.566 61.2213 126.173 61.3824C125.743 61.5992 125.354 61.8917 125.026 62.2461C124.766 62.5279 124.46 62.7635 124.121 62.9428C123.825 63.0703 123.506 63.1318 123.185 63.123C122.788 63.1393 122.399 63.0039 122.098 62.744C121.959 62.6213 121.85 62.4694 121.777 62.2992C121.704 62.1291 121.669 61.9448 121.675 61.7596C121.691 61.2934 121.861 60.8457 122.158 60.4875C122.523 60.0244 122.962 59.6252 123.456 59.3062C124.018 58.9139 124.641 58.617 125.298 58.4275C125.985 58.2263 126.697 58.1252 127.412 58.1272C128.602 58.109 129.779 58.3848 130.838 58.9302C131.809 59.4238 132.628 60.1725 133.208 61.0966C133.763 61.9754 134.056 62.9949 134.054 64.0353V72.061C134.057 72.2832 134.012 72.5036 133.924 72.7073C133.835 72.911 133.704 73.0934 133.54 73.2423C133.188 73.5695 132.721 73.7437 132.242 73.727C131.907 73.7343 131.577 73.6449 131.291 73.4694C131.023 73.3026 130.804 73.0673 130.657 72.7877C130.51 72.5184 130.432 72.2163 130.431 71.909V70.9091L131.518 72.2117H130.129C129.628 72.7846 129.004 73.2352 128.303 73.5294C127.547 73.8629 126.729 74.0332 125.903 74.0291M126.658 71.1511C127.368 71.1401 128.065 70.9639 128.696 70.6364C129.354 70.3203 129.944 69.8775 130.432 69.3331V67.2124H126.96C126.281 67.1712 125.609 67.3812 125.073 67.8028C124.853 67.9902 124.677 68.225 124.56 68.4899C124.442 68.7547 124.386 69.0427 124.394 69.3325C124.386 69.5827 124.434 69.8314 124.536 70.0598C124.639 70.2882 124.791 70.4902 124.983 70.6502C125.464 71.0119 126.059 71.1891 126.659 71.1499" fill="#0CD0A2"/>
<path d="M139.637 73.7288C139.311 73.7329 138.989 73.6549 138.701 73.5018C138.433 73.3638 138.209 73.154 138.052 72.8958C137.901 72.6445 137.823 72.3561 137.825 72.0628V53.8834C137.822 53.6612 137.866 53.4408 137.955 53.2371C138.044 53.0334 138.174 52.8509 138.339 52.702C138.691 52.375 139.157 52.2008 139.637 52.2174C139.963 52.2136 140.285 52.2918 140.573 52.445C140.84 52.5834 141.065 52.7931 141.222 53.051C141.372 53.3024 141.451 53.5907 141.448 53.884V72.0616C141.452 72.2838 141.407 72.5042 141.319 72.7079C141.23 72.9116 141.099 73.094 140.935 73.2429C140.583 73.57 140.116 73.7443 139.637 73.7276" fill="#0CD0A2"/>
<path d="M145.674 61.6089C145.243 61.6207 144.823 61.4693 144.497 61.1848C144.345 61.047 144.224 60.8788 144.14 60.6909C144.057 60.503 144.014 60.2997 144.014 60.0942C144.014 59.8886 144.057 59.6853 144.14 59.4974C144.224 59.3095 144.345 59.1413 144.497 59.0035C144.823 58.7194 145.243 58.5681 145.674 58.5795H153.526C153.958 58.5682 154.378 58.7195 154.703 59.0035C154.855 59.1412 154.977 59.3095 155.06 59.4973C155.144 59.6852 155.187 59.8885 155.187 60.0942C155.187 60.2998 155.144 60.5031 155.06 60.691C154.977 60.8788 154.855 61.0471 154.703 61.1848C154.378 61.4692 153.958 61.6205 153.526 61.6089H145.674ZM151.712 73.5757C150.772 73.5877 149.846 73.3526 149.025 72.894C148.232 72.4522 147.572 71.804 147.115 71.0177C146.659 70.2313 146.421 69.3358 146.429 68.4256V56.3068C146.426 56.0846 146.47 55.8643 146.558 55.6606C146.647 55.4568 146.777 55.2744 146.942 55.1255C147.294 54.7985 147.76 54.6243 148.24 54.6408C148.566 54.6368 148.888 54.7149 149.176 54.8678C149.444 55.0062 149.668 55.2159 149.825 55.4738C149.976 55.7252 150.054 56.0135 150.051 56.3068V68.4256C150.017 68.9903 150.195 69.5475 150.549 69.9871C150.714 70.1717 150.917 70.3177 151.144 70.4146C151.37 70.5114 151.616 70.5568 151.862 70.5475H154.429C154.631 70.5319 154.834 70.5604 155.024 70.631C155.215 70.7017 155.387 70.8128 155.531 70.9567C155.674 71.1007 155.785 71.274 155.855 71.465C155.926 71.6559 155.954 71.8598 155.939 72.0628C155.947 72.2641 155.914 72.4649 155.841 72.6527C155.768 72.8404 155.658 73.0109 155.516 73.1533C155.374 73.2958 155.204 73.407 155.016 73.4801C154.829 73.5531 154.629 73.5862 154.429 73.5775L151.712 73.5757Z" fill="#0CD0A2"/>
<path d="M160.316 73.7288C159.99 73.7329 159.668 73.6549 159.38 73.5018C159.112 73.3638 158.887 73.154 158.731 72.8958C158.58 72.6445 158.502 72.3561 158.504 72.0628V53.8834C158.501 53.6612 158.545 53.4408 158.634 53.2371C158.722 53.0334 158.853 52.8509 159.018 52.702C159.37 52.375 159.836 52.2008 160.316 52.2174C160.642 52.2136 160.963 52.2918 161.252 52.445C161.519 52.5834 161.744 52.7931 161.9 53.051C162.051 53.3024 162.13 53.5907 162.127 53.884V59.9434H163.576L162.036 60.8521C162.257 60.0366 162.781 59.3372 163.501 58.8978C164.304 58.3745 165.245 58.1054 166.203 58.1254C167.183 58.124 168.145 58.3966 168.98 58.9128C169.839 59.4317 170.547 60.1683 171.032 61.0485C171.539 61.9603 171.799 62.9891 171.787 64.0328V72.0616C171.79 72.2838 171.746 72.5042 171.657 72.7079C171.569 72.9116 171.438 73.094 171.274 73.2429C170.922 73.57 170.455 73.7442 169.976 73.7276C169.65 73.7318 169.328 73.6537 169.04 73.5006C168.771 73.3626 168.547 73.1529 168.39 72.8946C168.24 72.6432 168.161 72.3549 168.164 72.0616V64.0328C168.17 63.5132 168.04 63.0011 167.786 62.5482C167.541 62.1098 167.174 61.7521 166.73 61.5182C166.235 61.2784 165.693 61.1539 165.144 61.1539C164.595 61.1539 164.053 61.2784 163.558 61.5182C163.114 61.7518 162.747 62.1096 162.501 62.5482C162.247 63.0011 162.117 63.5133 162.124 64.0328V72.0616C162.127 72.2838 162.083 72.5042 161.995 72.7079C161.906 72.9116 161.775 73.094 161.611 73.2429C161.259 73.57 160.792 73.7443 160.313 73.7276" fill="#0CD0A2"/>
<path d="M5.49189 87.0452C5.34865 87.0511 5.20572 87.0275 5.07191 86.9759C4.9381 86.9242 4.81625 86.8456 4.71388 86.7449C4.61962 86.6551 4.54456 86.547 4.49327 86.4272C4.44198 86.3074 4.41553 86.1783 4.41553 86.0479C4.41553 85.9175 4.44198 85.7884 4.49327 85.6686C4.54456 85.5488 4.61962 85.4407 4.71388 85.3509C4.8163 85.2503 4.93815 85.1717 5.07195 85.12C5.20575 85.0684 5.34866 85.0448 5.49189 85.0506H12.9315C13.0747 85.0448 13.2176 85.0685 13.3514 85.1202C13.4851 85.1718 13.607 85.2503 13.7095 85.3509C13.8037 85.4407 13.8788 85.5488 13.9301 85.6686C13.9814 85.7884 14.0078 85.9175 14.0078 86.0479C14.0078 86.1783 13.9814 86.3074 13.9301 86.4272C13.8788 86.547 13.8037 86.6551 13.7095 86.7449C13.607 86.8456 13.4852 86.9241 13.3514 86.9758C13.2176 87.0274 13.0747 87.051 12.9315 87.0452H5.49189ZM9.21197 96.8349C9.02833 96.8358 8.84706 96.7932 8.68292 96.7105C8.52056 96.6304 8.38329 96.507 8.28614 96.3538C8.18729 96.2006 8.13547 96.0216 8.13712 95.8391V86.0494H10.2862V95.8391C10.2894 95.9739 10.2629 96.1077 10.2085 96.2311C10.1542 96.3544 10.0735 96.4642 9.97202 96.5526C9.7634 96.7401 9.49139 96.8409 9.21137 96.8343" fill="#606060"/>
<path d="M14.9162 96.7507C14.7376 96.7529 14.5612 96.7101 14.4033 96.6264C14.2566 96.5506 14.1336 96.4357 14.0478 96.2943C13.9652 96.1565 13.9224 95.9986 13.9239 95.8378V89.2842C13.9222 89.1625 13.9464 89.0418 13.9949 88.9302C14.0434 88.8187 14.1151 88.7188 14.2052 88.6373C14.3981 88.4583 14.6536 88.3629 14.9162 88.3719C15.0549 88.3662 15.1932 88.3907 15.3216 88.4436C15.45 88.4966 15.5654 88.5768 15.6601 88.6788C15.8267 88.8375 15.9271 89.0539 15.9408 89.2842V89.5664L15.1627 89.1184H16.0736C16.2447 88.8831 16.4646 88.6878 16.7182 88.546C16.9974 88.3767 17.3177 88.2878 17.644 88.289H18.4705C18.5803 88.2842 18.6899 88.3024 18.7923 88.3424C18.8947 88.3824 18.9877 88.4433 19.0654 88.5213C19.1432 88.5993 19.2039 88.6927 19.2437 88.7954C19.2836 88.8982 19.3017 89.0082 19.297 89.1184C19.3012 89.2279 19.2836 89.3371 19.2453 89.4397C19.207 89.5424 19.1486 89.6363 19.0737 89.716C18.9949 89.7948 18.9005 89.8561 18.7966 89.8961C18.6927 89.9362 18.5816 89.954 18.4705 89.9484H17.4788C17.1989 89.9438 16.9225 90.0123 16.6769 90.1472C16.4455 90.2748 16.2517 90.4612 16.1149 90.6877C15.977 90.915 15.9054 91.1766 15.9084 91.4427V95.8396C15.9101 95.9613 15.8859 96.082 15.8374 96.1936C15.7889 96.3051 15.7172 96.405 15.6272 96.4865C15.4343 96.6656 15.1788 96.761 14.9162 96.7519" fill="#606060"/>
<path d="M23.7592 96.9171C23.0778 96.9281 22.4044 96.7686 21.7999 96.4529C21.246 96.1661 20.7782 95.7366 20.4443 95.2084C20.1233 94.7029 19.9539 94.1154 19.9566 93.516V91.6079C19.9541 91.0086 20.1234 90.4213 20.4443 89.916C20.7783 89.388 21.2461 88.9585 21.7999 88.6716C22.4082 88.3661 23.079 88.207 23.7592 88.207C24.4395 88.207 25.1103 88.3661 25.7186 88.6716C26.2723 88.9586 26.7401 89.388 27.0742 89.916C27.3951 90.4213 27.5644 91.0086 27.5619 91.6079V92.3544C27.5636 92.4761 27.5394 92.5968 27.4909 92.7083C27.4424 92.8199 27.3707 92.9197 27.2806 93.0012C27.0879 93.1805 26.8323 93.276 26.5697 93.2667H21.345L21.9405 92.6691V93.5154C21.9357 93.8295 22.0158 94.1392 22.1721 94.4114C22.3248 94.6751 22.5481 94.8905 22.8167 95.0331C23.1071 95.1862 23.4313 95.2632 23.7592 95.2571C24.0809 95.2615 24.4014 95.2168 24.7096 95.1243C25.0025 95.03 25.2788 94.89 25.5283 94.7093C25.6757 94.5889 25.84 94.4911 26.0161 94.4193C26.1676 94.3672 26.3269 94.342 26.4871 94.3448C26.5876 94.3411 26.6878 94.3592 26.7807 94.3978C26.8737 94.4365 26.9572 94.4948 27.0257 94.5688C27.1598 94.7093 27.2339 94.8968 27.2322 95.0913C27.2253 95.2923 27.1632 95.4875 27.0526 95.6553C26.9149 95.8718 26.7349 96.0581 26.5236 96.203C26.1717 96.4442 25.78 96.6211 25.3667 96.7255C24.8429 96.8602 24.3035 96.9244 23.7628 96.9165M21.9441 92.1544L21.3486 91.6902H26.1765L25.581 92.1544V91.5904C25.5862 91.2789 25.5061 90.9718 25.3494 90.7028C25.1946 90.4428 24.9717 90.2304 24.7048 90.089C24.4144 89.936 24.0902 89.859 23.7622 89.8649C23.4398 89.8602 23.1213 89.9372 22.8364 90.089C22.5665 90.233 22.3408 90.4481 22.1835 90.7112C22.0239 90.9763 21.941 91.2807 21.9441 91.5904V92.1544Z" fill="#606060"/>
<path d="M30.3756 96.7514C30.197 96.7535 30.0207 96.7108 29.8628 96.627C29.7162 96.5513 29.5934 96.4363 29.5079 96.2949C29.425 96.1573 29.3819 95.9993 29.3834 95.8385V89.2848C29.3817 89.1631 29.4059 89.0424 29.4544 88.9309C29.5029 88.8193 29.5746 88.7195 29.6647 88.638C29.8431 88.4871 30.064 88.3956 30.2965 88.3762C30.5291 88.3569 30.7619 88.4105 30.9627 88.5299C31.1004 88.6221 31.2092 88.7516 31.2763 88.9034C31.3341 89.0342 31.365 89.1754 31.3673 89.3184V89.534L30.7718 89.2019H31.5325C31.73 88.8859 32.0181 88.6372 32.359 88.4884C32.7453 88.3003 33.1696 88.2037 33.599 88.2061C34.136 88.2056 34.6626 88.3551 35.1197 88.638C35.5903 88.9223 35.9781 89.3257 36.2442 89.8079C36.5215 90.3072 36.6641 90.8705 36.6578 91.4421V95.8391C36.6595 95.9608 36.6353 96.0814 36.5868 96.193C36.5383 96.3045 36.4666 96.4044 36.3765 96.4859C36.1837 96.6651 35.9281 96.7605 35.6655 96.7514C35.4871 96.7535 35.311 96.7107 35.1532 96.627C35.0066 96.5512 34.8836 96.4363 34.7977 96.2949C34.7154 96.1571 34.6725 95.9992 34.6738 95.8385V91.4421C34.6774 91.1577 34.6062 90.8775 34.4674 90.6295C34.3328 90.3892 34.1318 90.1931 33.8887 90.065C33.618 89.934 33.3214 89.866 33.0209 89.866C32.7204 89.866 32.4238 89.934 32.1531 90.065C31.9098 90.193 31.7088 90.3891 31.5744 90.6295C31.4353 90.8774 31.3641 91.1577 31.3679 91.4421V95.8391C31.3696 95.9608 31.3454 96.0814 31.2969 96.193C31.2484 96.3045 31.1767 96.4044 31.0866 96.4859C30.8938 96.665 30.6382 96.7604 30.3756 96.7514Z" fill="#606060"/>
<path d="M41.7 96.9171C41.1449 96.9127 40.6026 96.7487 40.1374 96.4444C39.6387 96.1314 39.2244 95.7002 38.9309 95.1886C38.6312 94.6816 38.474 94.1025 38.4761 93.5129V91.6049C38.474 91.0153 38.6312 90.4362 38.9309 89.9292C39.2251 89.4188 39.6396 88.9886 40.138 88.6764C40.6032 88.3721 41.1455 88.2081 41.7006 88.2037C42.2065 88.1949 42.7045 88.3301 43.137 88.5935C43.5236 88.8134 43.8131 89.1719 43.9473 89.5971L43.0215 89.1989H43.9317V85.8806C43.93 85.7589 43.9542 85.6382 44.0027 85.5267C44.0512 85.4151 44.1229 85.3153 44.213 85.2338C44.4059 85.0547 44.6614 84.9593 44.924 84.9683C45.1024 84.9662 45.2785 85.0089 45.4363 85.0926C45.5829 85.1683 45.7059 85.283 45.7918 85.4242C45.8742 85.5619 45.9171 85.7199 45.9157 85.8806V95.836C45.9174 95.9577 45.8933 96.0783 45.8449 96.1899C45.7965 96.3014 45.7249 96.4013 45.635 96.4829C45.4422 96.662 45.1866 96.7574 44.924 96.7483C44.7369 96.7514 44.5529 96.6995 44.3949 96.5988C44.2411 96.5002 44.1157 96.3629 44.0311 96.2006C43.9435 96.0375 43.8981 95.855 43.8988 95.6697V95.1219L44.5272 95.9183H43.7666C43.5571 96.2353 43.2616 96.4854 42.9149 96.639C42.5358 96.8213 42.1204 96.915 41.7 96.9129M42.1962 95.2535C42.5082 95.2583 42.8161 95.1811 43.0891 95.0294C43.3496 94.8844 43.5644 94.6691 43.7091 94.4078C43.86 94.1338 43.937 93.8249 43.9323 93.5118V91.6037C43.937 91.2906 43.86 90.9817 43.7091 90.7076C43.5644 90.4463 43.3496 90.2309 43.0891 90.086C42.8143 89.9387 42.5077 89.8617 42.1962 89.8617C41.8847 89.8617 41.578 89.9387 41.3033 90.086C41.0428 90.2309 40.828 90.4463 40.6832 90.7076C40.5323 90.9817 40.4554 91.2906 40.46 91.6037V93.5118C40.4554 93.8249 40.5323 94.1338 40.6832 94.4078C40.828 94.6691 41.0428 94.8844 41.3033 95.0294C41.5763 95.1811 41.8842 95.2583 42.1962 95.2535Z" fill="#606060"/>
<path d="M53.5204 96.8342C53.2404 96.8409 52.9684 96.7401 52.7598 96.5526C52.6583 96.4642 52.5775 96.3544 52.5232 96.231C52.4689 96.1077 52.4424 95.9739 52.4456 95.8391V85.883C52.4424 85.7482 52.4689 85.6144 52.5232 85.491C52.5776 85.3677 52.6583 85.2579 52.7598 85.1695C52.9684 84.9819 53.2404 84.8812 53.5204 84.8878C53.7041 84.8868 53.8853 84.9294 54.0495 85.0122C54.2117 85.0925 54.349 85.2158 54.4463 85.3689C54.545 85.5219 54.5968 85.7007 54.5953 85.883V95.8384C54.5984 95.9733 54.5719 96.1071 54.5176 96.2304C54.4633 96.3538 54.3825 96.4636 54.2811 96.552C54.0724 96.7395 53.8004 96.8402 53.5204 96.8336M53.5204 89.8668H60.6296V91.8577H53.5204V89.8668ZM60.6296 96.8336C60.3496 96.8402 60.0776 96.7395 59.869 96.552C59.7676 96.4635 59.687 96.3537 59.6328 96.2304C59.5786 96.107 59.5521 95.9732 59.5554 95.8384V85.883C59.5522 85.7483 59.5786 85.6145 59.6328 85.4912C59.687 85.3678 59.7677 85.258 59.869 85.1695C60.0776 84.982 60.3496 84.8813 60.6296 84.8878C60.8133 84.8868 60.9946 84.9294 61.1587 85.0122C61.3209 85.0925 61.4581 85.2159 61.5555 85.3689C61.6539 85.5221 61.7055 85.7008 61.7039 85.883V95.8384C61.707 95.9733 61.6805 96.1071 61.6262 96.2304C61.5719 96.3538 61.4911 96.4636 61.3897 96.552C61.1811 96.7395 60.9096 96.8402 60.6296 96.8336Z" fill="#606060"/>
<path d="M67.5742 96.9171C66.8928 96.9282 66.2193 96.7686 65.6148 96.4528C65.0608 96.1662 64.593 95.7367 64.2593 95.2084C63.9383 94.7031 63.769 94.1158 63.7715 93.5165V91.6085C63.769 91.0092 63.9383 90.4219 64.2593 89.9166C64.5931 89.3885 65.0609 88.959 65.6148 88.6722C66.223 88.3667 66.8938 88.2077 67.5739 88.2077C68.254 88.2077 68.9248 88.3667 69.533 88.6722C70.0867 88.9591 70.5545 89.3886 70.8885 89.9166C71.2095 90.4219 71.3788 91.0092 71.3763 91.6085V93.5165C71.3788 94.1158 71.2095 94.7031 70.8885 95.2084C70.5546 95.7366 70.0868 96.166 69.533 96.4528C68.9284 96.7686 68.255 96.9282 67.5736 96.9171M67.5736 95.2577C67.9016 95.2638 68.2258 95.1867 68.5162 95.0336C68.7847 94.8909 69.0079 94.6756 69.1607 94.412C69.3168 94.1397 69.3968 93.8301 69.3923 93.516V91.6079C69.3968 91.2937 69.3168 90.9841 69.1607 90.7118C69.0079 90.4482 68.7847 90.2329 68.5162 90.0902C68.2238 89.9427 67.9011 89.866 67.5739 89.866C67.2467 89.866 66.924 89.9427 66.6316 90.0902C66.3628 90.2326 66.1392 90.448 65.9864 90.7118C65.8303 90.9841 65.7503 91.2937 65.7548 91.6079V93.516C65.7503 93.8301 65.8303 94.1397 65.9864 94.412C66.1392 94.6758 66.3628 94.8912 66.6316 95.0336C66.922 95.1868 67.2462 95.2638 67.5742 95.2577" fill="#606060"/>
<path d="M74.2702 96.7514C74.0916 96.7535 73.9152 96.7108 73.7573 96.627C73.6106 96.5512 73.4876 96.4363 73.4018 96.2949C73.3192 96.1572 73.2764 95.9992 73.2779 95.8385V89.2848C73.2762 89.1631 73.3004 89.0424 73.3489 88.9309C73.3974 88.8193 73.4691 88.7194 73.5592 88.6379C73.7521 88.459 74.0076 88.3636 74.2702 88.3725C74.4639 88.3678 74.6543 88.4227 74.816 88.5298C74.9692 88.6339 75.092 88.7772 75.1715 88.9449C75.2556 89.1237 75.298 89.3195 75.2954 89.5172V90.0481L74.5174 89.2019H75.427C75.6308 88.8987 75.9063 88.6511 76.229 88.4812C76.5665 88.2983 76.9447 88.2041 77.3284 88.2073C77.7773 88.2067 78.2197 88.3148 78.6181 88.5226C79.0174 88.726 79.3674 89.0149 79.6432 89.3689H79.8084C80.0859 89.0112 80.4386 88.7194 80.8414 88.5142C81.238 88.311 81.6773 88.2058 82.1227 88.2073C82.656 88.2048 83.1796 88.3502 83.6356 88.6277C84.0983 88.904 84.4848 89.2919 84.7601 89.7562C85.0366 90.2139 85.1816 90.7394 85.1791 91.2746V95.8391C85.1808 95.9607 85.1567 96.0813 85.1083 96.1929C85.0599 96.3044 84.9883 96.4043 84.8984 96.4859C84.7055 96.665 84.45 96.7604 84.1874 96.7514C84.0088 96.7535 83.8325 96.7108 83.6745 96.627C83.5279 96.5512 83.4049 96.4363 83.319 96.2949C83.2365 96.1572 83.1936 95.9992 83.1951 95.8385V91.2739C83.2026 91.084 83.1695 90.8947 83.0982 90.7186C83.0269 90.5426 82.9189 90.3838 82.7816 90.2529C82.4775 89.9824 82.0797 89.8424 81.6738 89.8632C81.4819 89.8553 81.2903 89.8857 81.1101 89.9526C80.9299 90.0195 80.7647 90.1216 80.6241 90.2529C80.4889 90.385 80.3829 90.5442 80.3131 90.7201C80.2433 90.896 80.2112 91.0847 80.219 91.2739V95.8385C80.2207 95.9602 80.1965 96.0808 80.148 96.1924C80.0995 96.3039 80.0278 96.4038 79.9377 96.4853C79.7448 96.6644 79.4893 96.7598 79.2267 96.7507C79.0483 96.7528 78.8722 96.7101 78.7144 96.6264C78.5678 96.5506 78.4448 96.4357 78.3589 96.2943C78.2765 96.1565 78.2336 95.9986 78.235 95.8379V91.2733C78.2424 91.0834 78.2094 90.8941 78.138 90.7181C78.0667 90.542 77.9588 90.3832 77.8215 90.2523C77.5275 89.9852 77.1405 89.8451 76.7443 89.8625C76.5453 89.8487 76.3457 89.8778 76.1589 89.9479C75.9722 90.018 75.8025 90.1275 75.6615 90.2691C75.5205 90.4106 75.4114 90.5808 75.3415 90.7682C75.2716 90.9557 75.2426 91.156 75.2565 91.3556V95.8355C75.2582 95.9572 75.234 96.0778 75.1855 96.1894C75.137 96.3009 75.0653 96.4008 74.9752 96.4823C74.7823 96.6614 74.5268 96.7568 74.2642 96.7478" fill="#606060"/>
<path d="M90.8037 96.9171C90.1223 96.9281 89.4488 96.7686 88.8443 96.4529C88.2904 96.1661 87.8226 95.7366 87.4888 95.2084C87.1677 94.7029 86.9984 94.1154 87.001 93.516V91.6079C86.9985 91.0086 87.1678 90.4213 87.4888 89.916C87.8227 89.388 88.2905 88.9585 88.8443 88.6716C89.4525 88.3662 90.1233 88.2072 90.8034 88.2072C91.4835 88.2072 92.1542 88.3662 92.7625 88.6716C93.3162 88.9586 93.784 89.388 94.118 89.916C94.439 90.4213 94.6083 91.0086 94.6057 91.6079V92.3544C94.6075 92.4761 94.5832 92.5968 94.5347 92.7083C94.4862 92.8199 94.4145 92.9197 94.3245 93.0012C94.1317 93.1805 93.8761 93.276 93.6135 93.2667H88.3889L88.9843 92.6691V93.5154C88.9796 93.8296 89.0596 94.1392 89.2159 94.4114C89.3686 94.6751 89.5919 94.8905 89.8605 95.0331C90.1509 95.1862 90.4751 95.2632 90.8031 95.2571C91.1247 95.2615 91.4452 95.2168 91.7535 95.1243C92.0464 95.03 92.3227 94.89 92.5721 94.7093C92.7195 94.5889 92.8839 94.4911 93.0599 94.4193C93.2114 94.3672 93.3708 94.342 93.5309 94.3448C93.6314 94.3411 93.7316 94.3592 93.8245 94.3978C93.9175 94.4365 94.0011 94.4948 94.0695 94.5688C94.2036 94.7093 94.2777 94.8968 94.276 95.0913C94.2691 95.2923 94.207 95.4875 94.0964 95.6553C93.9587 95.8718 93.7787 96.0581 93.5674 96.203C93.2155 96.4442 92.8238 96.6211 92.4106 96.7255C91.8867 96.8602 91.3474 96.9244 90.8067 96.9165M88.9879 92.1544L88.3924 91.6902H93.2203L92.6248 92.1544V91.5905C92.63 91.2789 92.5499 90.9718 92.3932 90.7028C92.2385 90.4428 92.0155 90.2304 91.7486 90.089C91.4582 89.936 91.134 89.859 90.8061 89.865C90.4836 89.8602 90.1651 89.9372 89.8802 90.089C89.6103 90.233 89.3846 90.4481 89.2273 90.7112C89.0678 90.9763 88.9849 91.2807 88.9879 91.5905V92.1544Z" fill="#606060"/>
<path d="M101.88 96.8343C101.6 96.841 101.328 96.7402 101.12 96.5526C101.018 96.4642 100.937 96.3544 100.883 96.2311C100.829 96.1077 100.802 95.9739 100.805 95.8391V85.883C100.802 85.7482 100.829 85.6144 100.883 85.4911C100.937 85.3677 101.018 85.2579 101.12 85.1695C101.328 84.9819 101.6 84.8811 101.88 84.8878C102.064 84.8869 102.245 84.9295 102.409 85.0122C102.572 85.0925 102.709 85.2158 102.806 85.3689C102.905 85.522 102.956 85.7008 102.955 85.883V95.8385C102.958 95.9732 102.931 96.107 102.877 96.2304C102.823 96.3537 102.742 96.4635 102.641 96.552C102.432 96.7394 102.16 96.8401 101.88 96.8337M101.88 89.8668H108.989V91.8577H101.88V89.8668ZM108.989 96.8337C108.709 96.8401 108.438 96.7394 108.229 96.552C108.128 96.4635 108.047 96.3536 107.993 96.2303C107.938 96.107 107.912 95.9732 107.915 95.8385V85.883C107.912 85.7483 107.939 85.6145 107.993 85.4912C108.047 85.3679 108.128 85.2581 108.229 85.1695C108.438 84.9821 108.709 84.8814 108.989 84.8878C109.173 84.8868 109.354 84.9294 109.519 85.0122C109.681 85.0924 109.818 85.2158 109.916 85.3689C110.014 85.5221 110.066 85.7008 110.064 85.883V95.8385C110.067 95.9733 110.041 96.1071 109.987 96.2304C109.932 96.3537 109.852 96.4635 109.75 96.552C109.541 96.7395 109.269 96.8402 108.989 96.8337Z" fill="#606060"/>
<path d="M115.934 96.9171C115.253 96.9281 114.579 96.7686 113.975 96.4529C113.421 96.1661 112.953 95.7366 112.619 95.2084C112.298 94.7029 112.129 94.1154 112.131 93.516V91.6079C112.129 91.0086 112.298 90.4213 112.619 89.916C112.953 89.388 113.421 88.9585 113.975 88.6716C114.583 88.3662 115.254 88.2072 115.934 88.2072C116.614 88.2072 117.285 88.3662 117.893 88.6716C118.447 88.9586 118.914 89.388 119.248 89.916C119.569 90.4213 119.739 91.0086 119.736 91.6079V92.3544C119.738 92.4761 119.714 92.5968 119.665 92.7083C119.617 92.8199 119.545 92.9197 119.455 93.0012C119.262 93.1805 119.006 93.276 118.744 93.2667H113.519L114.115 92.6691V93.5154C114.11 93.8296 114.19 94.1392 114.346 94.4114C114.499 94.6751 114.722 94.8905 114.991 95.0331C115.281 95.1862 115.605 95.2632 115.933 95.2571C116.255 95.2615 116.576 95.2168 116.884 95.1243C117.177 95.03 117.453 94.89 117.703 94.7093C117.85 94.5889 118.014 94.4911 118.19 94.4193C118.342 94.3672 118.501 94.342 118.661 94.3448C118.762 94.3411 118.862 94.3592 118.955 94.3978C119.048 94.4365 119.131 94.4948 119.2 94.5688C119.334 94.7093 119.408 94.8968 119.406 95.0913C119.4 95.2923 119.337 95.4875 119.227 95.6553C119.089 95.8718 118.909 96.0581 118.698 96.203C118.346 96.4443 117.954 96.6212 117.54 96.7255C117.016 96.8602 116.477 96.9244 115.936 96.9165M114.118 92.1544L113.522 91.6902H118.35L117.755 92.1544V91.5905C117.76 91.2789 117.68 90.9718 117.523 90.7028C117.368 90.4428 117.145 90.2304 116.878 90.089C116.588 89.936 116.264 89.859 115.936 89.865C115.613 89.8602 115.295 89.9372 115.01 90.089C114.74 90.233 114.514 90.4481 114.357 90.7112C114.198 90.9763 114.115 91.2807 114.118 91.5905V92.1544Z" fill="#606060"/>
<path d="M123.787 96.9171C123.284 96.9259 122.787 96.8089 122.341 96.5766C121.933 96.3657 121.588 96.0511 121.34 95.6643C121.102 95.2966 120.975 94.867 120.976 94.4283C120.971 93.9363 121.112 93.4539 121.381 93.0427C121.673 92.6097 122.079 92.2675 122.555 92.0553C123.124 91.8003 123.742 91.6756 124.365 91.6902H126.863L126.268 92.2877V91.4415C126.271 91.1571 126.2 90.8768 126.061 90.6289C125.926 90.3885 125.725 90.1924 125.482 90.0644C125.214 89.927 124.915 89.8587 124.614 89.8656C124.382 89.8592 124.151 89.9016 123.936 89.9899C123.7 90.1085 123.487 90.2686 123.308 90.4625C123.165 90.6168 122.997 90.7458 122.812 90.8439C122.65 90.9141 122.475 90.9481 122.299 90.9436C122.081 90.9526 121.869 90.8783 121.704 90.7358C121.628 90.6685 121.568 90.5851 121.528 90.4917C121.488 90.3982 121.469 90.297 121.472 90.1953C121.481 89.94 121.574 89.6948 121.737 89.4986C121.937 89.245 122.177 89.0264 122.448 88.8517C122.755 88.6372 123.096 88.4749 123.456 88.3713C123.832 88.2607 124.222 88.2049 124.614 88.2055C125.266 88.1955 125.91 88.3464 126.49 88.6451C127.022 88.9153 127.47 89.3253 127.788 89.8313C128.092 90.3128 128.252 90.8711 128.251 91.4409V95.8379C128.252 95.9595 128.228 96.0802 128.18 96.1917C128.131 96.3033 128.06 96.4032 127.97 96.4847C127.777 96.6638 127.522 96.7592 127.259 96.7502C127.075 96.7541 126.895 96.7052 126.738 96.609C126.592 96.5175 126.472 96.3886 126.391 96.2354C126.31 96.0882 126.268 95.923 126.267 95.755V95.2072L126.862 95.9207H126.101C125.827 96.2342 125.485 96.4807 125.101 96.6414C124.687 96.8244 124.238 96.9177 123.785 96.9153M124.198 95.3388C124.587 95.3328 124.969 95.2363 125.314 95.0571C125.675 94.884 125.998 94.6416 126.265 94.3436V93.1832H124.364C123.992 93.1608 123.624 93.276 123.331 93.507C123.21 93.6096 123.114 93.7382 123.049 93.8832C122.985 94.0283 122.954 94.186 122.958 94.3448C122.954 94.4816 122.981 94.6176 123.037 94.7425C123.093 94.8674 123.176 94.9779 123.281 95.0655C123.544 95.2636 123.87 95.3602 124.198 95.3388Z" fill="#606060"/>
<path d="M131.309 96.7508C131.131 96.7528 130.955 96.7101 130.797 96.6264C130.65 96.5506 130.527 96.4357 130.441 96.2943C130.359 96.1565 130.316 95.9985 130.317 95.8378V85.8836C130.316 85.7619 130.34 85.6412 130.388 85.5297C130.437 85.4181 130.509 85.3182 130.599 85.2368C130.792 85.0576 131.047 84.9622 131.31 84.9713C131.488 84.9692 131.664 85.012 131.822 85.0956C131.969 85.1715 132.092 85.2864 132.178 85.4278C132.261 85.5655 132.303 85.7235 132.302 85.8842V95.8397C132.304 95.9614 132.28 96.082 132.231 96.1936C132.183 96.3052 132.111 96.405 132.021 96.4865C131.828 96.6656 131.572 96.761 131.31 96.7519" fill="#606060"/>
<path d="M134.617 90.1148C134.38 90.1212 134.15 90.0383 133.972 89.8824C133.889 89.8069 133.822 89.7148 133.777 89.6119C133.731 89.509 133.708 89.3977 133.708 89.2851C133.708 89.1725 133.731 89.0612 133.777 88.9583C133.822 88.8554 133.889 88.7633 133.972 88.6878C134.15 88.5321 134.38 88.4491 134.617 88.4554H138.915C139.152 88.4493 139.382 88.5322 139.56 88.6878C139.643 88.7633 139.71 88.8554 139.755 88.9583C139.801 89.0612 139.824 89.1725 139.824 89.2851C139.824 89.3977 139.801 89.509 139.755 89.6119C139.71 89.7148 139.643 89.8069 139.56 89.8824C139.382 90.0382 139.152 90.1211 138.915 90.1148H134.617ZM137.923 96.6685C137.408 96.675 136.901 96.5462 136.451 96.2949C136.017 96.0529 135.656 95.6979 135.406 95.2672C135.155 94.8365 135.025 94.3461 135.029 93.8475V87.2097C135.028 87.088 135.052 86.9674 135.1 86.8558C135.149 86.7443 135.221 86.6444 135.311 86.5629C135.504 86.3837 135.759 86.2883 136.022 86.2975C136.2 86.2952 136.376 86.338 136.534 86.4218C136.681 86.4976 136.804 86.6125 136.89 86.7539C136.972 86.8916 137.015 87.0496 137.013 87.2103V93.8469C136.995 94.156 137.092 94.4609 137.286 94.7015C137.376 94.8026 137.487 94.8825 137.611 94.9356C137.735 94.9886 137.87 95.0135 138.004 95.0085H139.41C139.521 94.9999 139.632 95.0155 139.736 95.0541C139.841 95.0928 139.935 95.1536 140.014 95.2324C140.092 95.3112 140.153 95.4061 140.191 95.5106C140.23 95.6151 140.245 95.7268 140.237 95.8379C140.241 95.948 140.223 96.058 140.183 96.1607C140.143 96.2635 140.083 96.3568 140.005 96.4348C139.927 96.5127 139.834 96.5736 139.732 96.6137C139.63 96.6537 139.52 96.672 139.41 96.6673L137.923 96.6685Z" fill="#606060"/>
<path d="M142.635 96.7508C142.456 96.7528 142.28 96.7101 142.123 96.6264C141.976 96.5506 141.853 96.4357 141.767 96.2943C141.685 96.1565 141.642 95.9985 141.643 95.8378V85.8836C141.641 85.7619 141.666 85.6412 141.714 85.5297C141.763 85.4181 141.834 85.3182 141.924 85.2368C142.117 85.0576 142.373 84.9622 142.635 84.9713C142.814 84.9692 142.99 85.0119 143.148 85.0956C143.295 85.1714 143.418 85.2863 143.504 85.4278C143.586 85.5655 143.629 85.7235 143.628 85.8842V89.2025H144.421L143.579 89.7004C143.7 89.2538 143.987 88.8707 144.381 88.6301C144.821 88.3445 145.336 88.198 145.861 88.2097C146.398 88.209 146.924 88.3583 147.381 88.6409C147.852 88.9252 148.24 89.3287 148.506 89.8109C148.783 90.3102 148.926 90.8735 148.919 91.4451V95.8421C148.921 95.9637 148.897 96.0843 148.849 96.1959C148.8 96.3074 148.729 96.4073 148.639 96.4889C148.446 96.668 148.19 96.7634 147.928 96.7543C147.749 96.7564 147.573 96.7137 147.415 96.63C147.268 96.5543 147.145 96.4394 147.06 96.2979C146.977 96.1601 146.935 96.0022 146.936 95.8415V91.4415C146.94 91.1571 146.868 90.8768 146.73 90.6289C146.595 90.3887 146.394 90.1927 146.151 90.0644C145.88 89.9334 145.584 89.8654 145.283 89.8654C144.983 89.8654 144.686 89.9334 144.415 90.0644C144.172 90.1923 143.971 90.3885 143.837 90.6289C143.697 90.8767 143.626 91.1571 143.629 91.4415V95.8384C143.631 95.9602 143.607 96.0808 143.559 96.1924C143.51 96.3039 143.438 96.4038 143.348 96.4853C143.155 96.6644 142.9 96.7599 142.637 96.7508" fill="#606060"/>
<path d="M159.086 97C158.424 96.9998 157.767 96.8848 157.143 96.6601C156.544 96.454 155.995 96.1231 155.532 95.6889C155.29 95.4642 155.084 95.2043 154.92 94.9177C154.787 94.6941 154.713 94.44 154.705 94.1796C154.701 94.0477 154.723 93.9163 154.772 93.7936C154.82 93.6709 154.893 93.5594 154.986 93.466C155.079 93.3727 155.19 93.2995 155.312 93.251C155.434 93.2024 155.565 93.1796 155.697 93.1838C155.862 93.1837 156.023 93.2328 156.16 93.325C156.346 93.4594 156.513 93.6186 156.656 93.7982C156.961 94.1831 157.341 94.5018 157.772 94.7352C158.184 94.9272 158.635 95.0209 159.089 95.009C159.561 95.0218 160.031 94.9488 160.477 94.7934C160.801 94.6854 161.088 94.4869 161.304 94.2211C161.476 93.9949 161.569 93.7178 161.568 93.4331C161.57 93.2889 161.54 93.1461 161.482 93.0143C161.423 92.8826 161.337 92.7651 161.23 92.6697C160.981 92.4456 160.692 92.271 160.378 92.155C160.036 92.0225 159.568 91.8675 158.973 91.6901C158.267 91.4872 157.574 91.2407 156.898 90.952C156.37 90.7191 155.901 90.3702 155.526 89.931C155.13 89.4456 154.927 88.8311 154.955 88.2049C154.95 87.5809 155.129 86.9692 155.468 86.4464C155.83 85.8979 156.336 85.4612 156.931 85.1851C157.632 84.861 158.399 84.7022 159.171 84.7209C159.84 84.7182 160.504 84.8389 161.13 85.077C161.702 85.2827 162.223 85.608 162.66 86.0314C162.88 86.244 163.064 86.4906 163.206 86.7617C163.319 86.9767 163.38 87.2153 163.385 87.4584C163.39 87.5896 163.368 87.7203 163.321 87.8429C163.274 87.9654 163.203 88.0773 163.112 88.1719C163.019 88.2662 162.906 88.34 162.783 88.3885C162.659 88.4369 162.527 88.4591 162.394 88.4536C162.228 88.4564 162.064 88.4103 161.923 88.3208C161.728 88.1791 161.553 88.0116 161.403 87.8229C161.118 87.4699 160.767 87.1768 160.369 86.9605C159.994 86.7862 159.585 86.7009 159.172 86.7112C158.783 86.7004 158.396 86.7652 158.031 86.9022C157.756 87.0045 157.515 87.1829 157.337 87.4169C157.187 87.6209 157.105 87.8682 157.106 88.122C157.104 88.2662 157.133 88.4091 157.192 88.5408C157.25 88.6725 157.336 88.7901 157.444 88.8854C157.693 89.1095 157.982 89.2839 158.295 89.3995C158.637 89.5324 159.106 89.6874 159.701 89.8644C160.407 90.0675 161.1 90.314 161.776 90.6025C162.304 90.8356 162.773 91.1845 163.148 91.6235C163.543 92.1088 163.746 92.723 163.719 93.349C163.725 94.0039 163.535 94.6456 163.173 95.191C162.776 95.7735 162.223 96.2315 161.578 96.5123C160.794 96.8556 159.945 97.0227 159.089 97.0018" fill="#606060"/>
<path d="M168.923 96.9171C168.241 96.9282 167.568 96.7687 166.964 96.4529C166.409 96.1661 165.941 95.7366 165.607 95.2084C165.286 94.7029 165.117 94.1154 165.12 93.516V91.6079C165.117 91.0086 165.286 90.4213 165.607 89.916C165.942 89.3879 166.41 88.9585 166.964 88.6716C167.572 88.3662 168.243 88.2072 168.923 88.2072C169.603 88.2072 170.273 88.3662 170.882 88.6716C171.435 88.9585 171.903 89.388 172.237 89.916C172.558 90.4213 172.728 91.0086 172.725 91.6079V92.3544C172.727 92.4761 172.703 92.5968 172.654 92.7083C172.605 92.8199 172.534 92.9197 172.444 93.0012C172.251 93.1804 171.995 93.2758 171.733 93.2667H166.507L167.102 92.6691V93.5154C167.098 93.8296 167.178 94.1392 167.334 94.4114C167.487 94.6752 167.71 94.8906 167.979 95.0331C168.269 95.1862 168.593 95.2632 168.921 95.2571C169.243 95.2616 169.564 95.2168 169.872 95.1243C170.165 95.03 170.441 94.89 170.691 94.7093C170.838 94.5889 171.003 94.4911 171.179 94.4193C171.33 94.3672 171.49 94.342 171.65 94.3448C171.751 94.341 171.851 94.3591 171.944 94.3977C172.037 94.4364 172.12 94.4948 172.189 94.5688C172.323 94.7092 172.397 94.8968 172.395 95.0913C172.388 95.2923 172.326 95.4875 172.216 95.6553C172.078 95.8717 171.898 96.058 171.687 96.203C171.335 96.4442 170.943 96.6211 170.53 96.7255C170.006 96.8603 169.467 96.9245 168.926 96.9165M167.107 92.1544L166.512 91.6902H171.34L170.744 92.1544V91.5905C170.749 91.2789 170.669 90.9718 170.512 90.7028C170.358 90.4428 170.135 90.2305 169.868 90.089C169.577 89.936 169.253 89.859 168.925 89.865C168.603 89.8602 168.284 89.9372 167.999 90.089C167.73 90.233 167.504 90.4481 167.347 90.7112C167.187 90.9763 167.104 91.2808 167.107 91.5905V92.1544Z" fill="#606060"/>
<path d="M175.536 96.7508C175.358 96.7528 175.182 96.7101 175.024 96.6264C174.877 96.5506 174.754 96.4357 174.668 96.2943C174.586 96.1565 174.543 95.9986 174.545 95.8379V89.2842C174.543 89.1625 174.567 89.0418 174.615 88.9303C174.664 88.8187 174.736 88.7188 174.826 88.6373C175.019 88.4583 175.274 88.3629 175.537 88.3719C175.676 88.3662 175.814 88.3906 175.942 88.4436C176.071 88.4966 176.187 88.5768 176.281 88.6788C176.448 88.8376 176.548 89.054 176.562 89.2842V89.5665L175.784 89.1184H176.693C176.864 88.8832 177.084 88.6879 177.338 88.5461C177.617 88.3768 177.937 88.2879 178.263 88.289H179.09C179.2 88.2842 179.309 88.3023 179.412 88.3422C179.514 88.3822 179.607 88.4431 179.685 88.5211C179.763 88.5992 179.823 88.6925 179.863 88.7954C179.903 88.8982 179.921 89.0082 179.916 89.1184C179.921 89.2279 179.903 89.3372 179.865 89.4398C179.826 89.5424 179.768 89.6363 179.693 89.716C179.614 89.7949 179.52 89.8563 179.416 89.8963C179.312 89.9363 179.201 89.9541 179.089 89.9484H178.098C177.818 89.9439 177.541 90.0124 177.296 90.1472C177.064 90.2748 176.87 90.4612 176.734 90.6878C176.596 90.915 176.524 91.1766 176.527 91.4427V95.8397C176.529 95.9614 176.505 96.082 176.456 96.1936C176.408 96.3052 176.336 96.405 176.246 96.4865C176.053 96.6657 175.798 96.7611 175.535 96.752" fill="#606060"/>
<path d="M184.465 96.9171C184.151 96.9291 183.843 96.8357 183.589 96.6517C183.348 96.4624 183.165 96.2095 183.06 95.9214L180.582 89.683C180.495 89.4844 180.477 89.2622 180.532 89.0524C180.586 88.855 180.706 88.6822 180.871 88.5629C181.053 88.4399 181.266 88.3735 181.486 88.372C181.705 88.3705 181.919 88.434 182.103 88.5545C182.284 88.6993 182.416 88.896 182.483 89.1184L184.384 94.2619H184.549L186.451 89.1184C186.517 88.8959 186.65 88.6992 186.831 88.5545C187.01 88.4295 187.225 88.3663 187.443 88.3743C187.658 88.3687 187.869 88.4318 188.047 88.5545C188.213 88.6707 188.335 88.84 188.394 89.0349C188.454 89.2311 188.446 89.4422 188.369 89.6325L185.872 95.9207C185.767 96.2088 185.583 96.4617 185.343 96.6511C185.088 96.8351 184.78 96.9285 184.467 96.9165" fill="#606060"/>
<path d="M190.746 86.8788C190.466 86.8855 190.194 86.7848 189.985 86.5971C189.887 86.5067 189.807 86.3965 189.753 86.2737C189.699 86.1508 189.671 86.018 189.671 85.8836C189.671 85.7493 189.699 85.6165 189.753 85.4936C189.807 85.3708 189.887 85.2606 189.985 85.1701C190.197 84.988 190.467 84.8879 190.746 84.8879C191.025 84.8879 191.295 84.988 191.507 85.1701C191.606 85.2606 191.685 85.3708 191.739 85.4936C191.793 85.6165 191.821 85.7493 191.821 85.8836C191.821 86.018 191.793 86.1508 191.739 86.2737C191.685 86.3965 191.606 86.5067 191.507 86.5971C191.298 86.7848 191.026 86.8855 190.746 86.8788ZM190.746 96.7514C190.568 96.7534 190.392 96.7107 190.234 96.6271C190.087 96.5512 189.964 96.4363 189.878 96.2949C189.796 96.1571 189.753 95.9992 189.754 95.8385V89.2848C189.753 89.1631 189.777 89.0424 189.825 88.9309C189.874 88.8193 189.946 88.7194 190.036 88.638C190.229 88.4589 190.484 88.3635 190.747 88.3725C190.925 88.3704 191.102 88.4132 191.26 88.4968C191.406 88.5726 191.529 88.6876 191.615 88.8289C191.698 88.9667 191.74 89.1247 191.739 89.2854V95.8397C191.741 95.9614 191.717 96.0821 191.668 96.1936C191.62 96.3052 191.548 96.405 191.458 96.4865C191.265 96.6657 191.009 96.7611 190.747 96.752" fill="#606060"/>
<path d="M197.444 96.9171C196.762 96.9282 196.089 96.7686 195.484 96.4529C194.931 96.1661 194.463 95.7366 194.129 95.2084C193.808 94.703 193.639 94.1154 193.641 93.516V91.6079C193.639 91.0087 193.808 90.4213 194.129 89.916C194.463 89.388 194.931 88.9585 195.484 88.6716C196.089 88.3558 196.762 88.1963 197.444 88.2073C197.968 88.2068 198.488 88.3088 198.974 88.5076C199.43 88.6844 199.844 88.9558 200.188 89.304C200.357 89.4803 200.496 89.6819 200.602 89.9016C200.698 90.0979 200.748 90.3131 200.75 90.5316C200.754 90.6332 200.735 90.7344 200.695 90.8278C200.655 90.9213 200.595 91.0047 200.519 91.0722C200.354 91.2143 200.141 91.2884 199.924 91.2794C199.746 91.2808 199.571 91.233 199.419 91.1412C199.219 91.0053 199.043 90.837 198.898 90.6433C198.715 90.398 198.484 90.1921 198.22 90.0379C197.979 89.9169 197.712 89.8571 197.442 89.8638C197.114 89.8577 196.79 89.9348 196.499 90.0878C196.231 90.2306 196.007 90.4462 195.855 90.71C195.699 90.9823 195.619 91.2919 195.623 91.6061V93.5142C195.619 93.8284 195.699 94.138 195.855 94.4103C196.008 94.6739 196.231 94.8893 196.499 95.0319C196.79 95.185 197.114 95.262 197.442 95.2559C197.752 95.2635 198.059 95.1922 198.335 95.0487C198.643 94.8619 198.913 94.6172 199.129 94.328C199.273 94.1373 199.443 93.967 199.632 93.8217C199.766 93.7292 199.925 93.6801 200.087 93.6811C200.305 93.6723 200.517 93.7464 200.683 93.8883C200.759 93.9557 200.819 94.0391 200.859 94.1326C200.899 94.226 200.918 94.3272 200.914 94.4289C200.912 94.7017 200.835 94.9685 200.691 95.2C200.518 95.4774 200.303 95.7263 200.054 95.9382C199.698 96.2516 199.286 96.4938 198.839 96.6517C198.393 96.8223 197.92 96.9122 197.442 96.9171" fill="#606060"/>
<path d="M206.04 96.9171C205.359 96.9282 204.685 96.7686 204.081 96.4529C203.527 96.1661 203.059 95.7366 202.725 95.2084C202.404 94.7029 202.234 94.1154 202.237 93.516V91.6079C202.234 91.0086 202.404 90.4213 202.725 89.916C203.059 89.3879 203.527 88.9585 204.081 88.6716C204.689 88.3661 205.36 88.207 206.04 88.207C206.72 88.207 207.391 88.3661 208 88.6716C208.553 88.9585 209.021 89.388 209.355 89.916C209.676 90.4213 209.845 91.0086 209.843 91.6079V92.3544C209.845 92.4761 209.82 92.5968 209.772 92.7083C209.723 92.8199 209.652 92.9197 209.562 93.0012C209.369 93.1804 209.113 93.2758 208.851 93.2667H203.626L204.221 92.6691V93.5154C204.217 93.8295 204.297 94.1392 204.453 94.4114C204.606 94.6752 204.829 94.8906 205.098 95.0331C205.388 95.1862 205.712 95.2632 206.04 95.2571C206.362 95.2616 206.683 95.2168 206.991 95.1243C207.284 95.03 207.56 94.89 207.81 94.7093C207.957 94.5888 208.121 94.4911 208.298 94.4193C208.449 94.3672 208.609 94.342 208.769 94.3448C208.87 94.341 208.97 94.3591 209.063 94.3977C209.156 94.4364 209.239 94.4947 209.308 94.5688C209.442 94.7092 209.516 94.8967 209.515 95.0913C209.508 95.2923 209.446 95.4875 209.335 95.6553C209.197 95.8717 209.018 96.058 208.806 96.203C208.454 96.4443 208.063 96.6211 207.649 96.7255C207.126 96.8603 206.586 96.9245 206.046 96.9165M204.227 92.1544L203.631 91.6902H208.453L207.858 92.1544V91.5904C207.863 91.2789 207.783 90.9718 207.626 90.7028C207.471 90.4428 207.248 90.2305 206.982 90.089C206.691 89.936 206.367 89.859 206.039 89.8649C205.716 89.8602 205.398 89.9372 205.113 90.089C204.843 90.233 204.617 90.4481 204.46 90.7112C204.301 90.9763 204.218 91.2807 204.221 91.5904L204.227 92.1544Z" fill="#606060"/>
<path d="M214.472 96.9171C213.947 96.9218 213.426 96.829 212.934 96.6432C212.491 96.4796 212.082 96.2352 211.727 95.9225C211.517 95.738 211.335 95.5226 211.189 95.2835C211.072 95.1025 211.007 94.8934 210.998 94.6781C210.995 94.5757 211.015 94.4739 211.056 94.3803C211.098 94.2867 211.16 94.2037 211.238 94.1376C211.401 93.998 211.61 93.924 211.824 93.9298C212.006 93.9256 212.185 93.9684 212.345 94.0541C212.538 94.176 212.709 94.3304 212.849 94.5105C213.042 94.7541 213.288 94.95 213.568 95.0829C213.852 95.2042 214.16 95.2635 214.469 95.2571C214.765 95.2649 215.059 95.217 215.337 95.1159C215.543 95.044 215.726 94.9179 215.866 94.7508C215.978 94.6123 216.039 94.4396 216.04 94.2613C216.04 94.1681 216.018 94.0763 215.976 93.9929C215.935 93.9096 215.875 93.837 215.801 93.7808C215.621 93.638 215.417 93.531 215.197 93.4655C214.955 93.3882 214.629 93.2997 214.222 93.2C213.69 93.068 213.166 92.9076 212.651 92.7196C212.248 92.5683 211.888 92.321 211.601 91.9989C211.296 91.636 211.139 91.1704 211.163 90.6962C211.168 90.2628 211.309 89.8421 211.568 89.495C211.867 89.0899 212.266 88.7697 212.725 88.5659C213.273 88.3183 213.869 88.1965 214.47 88.2091C214.978 88.2021 215.484 88.2834 215.966 88.4493C216.372 88.5874 216.75 88.7982 217.081 89.0716C217.281 89.2368 217.454 89.4328 217.594 89.6523C217.702 89.8148 217.764 90.004 217.773 90.1995C217.776 90.3019 217.757 90.4037 217.715 90.4973C217.674 90.5909 217.612 90.6739 217.534 90.74C217.37 90.8795 217.161 90.9534 216.947 90.9472C216.789 90.949 216.634 90.9149 216.492 90.8475C216.318 90.7553 216.16 90.638 216.021 90.4992C215.808 90.2977 215.562 90.1351 215.293 90.0187C215.03 89.9153 214.749 89.8645 214.467 89.8691C214.219 89.8628 213.972 89.9023 213.739 89.9857C213.565 90.0458 213.411 90.1519 213.292 90.2926C213.198 90.407 213.146 90.5506 213.144 90.6992C213.144 90.7924 213.166 90.8842 213.208 90.9675C213.249 91.0509 213.309 91.1235 213.383 91.1796C213.562 91.3227 213.767 91.4298 213.987 91.4949C214.229 91.5722 214.554 91.6607 214.962 91.7604C215.494 91.8929 216.018 92.0533 216.533 92.2409C216.936 92.3924 217.296 92.6397 217.583 92.9616C217.888 93.3244 218.044 93.7897 218.021 94.2637C218.018 94.7273 217.867 95.1778 217.591 95.5496C217.27 95.9812 216.843 96.3215 216.351 96.5369C215.758 96.8021 215.115 96.9324 214.466 96.9183" fill="#606060"/>
</g>
</g>
<defs>
<clipPath id="clip0_63_8327">
<rect width="219" height="97" fill="white"/>
</clipPath>
</defs>
</svg>
