
<svg width="29" height="38" viewBox="0 0 29 38" fill="none" xmlns="http://www.w3.org/2000/svg">
<path d="M18.0297 27.6437H10.6403V30.3649H18.0297V27.6437Z" fill="#6DB9CA"/>
<path d="M17.2982 24.4348H11.2958C11.2958 24.4348 11.4473 28.2234 10.7126 29.3271H17.9571C17.2224 28.2267 17.2982 24.4348 17.2982 24.4348Z" fill="#F4B88E"/>
<g style="mix-blend-mode:multiply">
<path d="M11.2201 27.2977C12.0734 27.8511 13.3582 28.1279 14.3828 28.1378C15.5062 28.1476 16.4945 27.8544 17.4466 27.4525C17.2687 26.0326 17.3016 24.4348 17.3016 24.4348H11.2992C11.2992 24.4348 11.3585 25.9173 11.2234 27.2977H11.2201Z" fill="#F5DCD6"/>
</g>
<path d="M25.9297 31.9527L17.2159 28.8329H11.4375L2.72371 31.9527C2.72371 31.9527 -0.326931 32.9575 0.0288678 37.8267H28.6213C29.0364 32.6577 25.9264 31.9527 25.9264 31.9527H25.9297Z" fill="#F4B88E"/>
<path d="M25.9297 31.9527L18.8104 29.4028L14.3333 32.5259L9.9616 29.3633L2.72701 31.956C2.72701 31.956 -0.323635 32.9608 0.0321636 37.83H28.6246C29.0397 32.661 25.9297 31.956 25.9297 31.956V31.9527Z" fill="#184892"/>
<path d="M20.9091 16.9861C20.7015 18.2643 21.0606 19.4042 21.7096 19.5261C22.3586 19.648 23.0504 18.7123 23.258 17.4308C23.4622 16.1526 23.1064 15.016 22.4542 14.8908C21.8051 14.7689 21.1133 15.7045 20.9091 16.9861Z" fill="#F4B88E"/>
<path d="M21.6865 16.6401C21.6865 16.6401 21.6964 16.5677 21.7227 16.4523C21.7458 16.3337 21.7985 16.169 21.8808 15.9911C21.9632 15.8198 22.0917 15.6222 22.2564 15.6123C22.2959 15.6123 22.3388 15.6156 22.3816 15.6287C22.3882 15.632 22.431 15.6518 22.4442 15.6617C22.4574 15.6749 22.4738 15.6815 22.4903 15.7012C22.5562 15.7671 22.6122 15.8659 22.6484 15.9812C22.688 16.0933 22.711 16.2184 22.7242 16.3436C22.7341 16.4688 22.744 16.6006 22.7275 16.7093C22.7077 16.8378 22.7012 16.9696 22.6781 17.0816C22.655 17.1969 22.6353 17.3023 22.6155 17.4011C22.5892 17.5 22.5694 17.5922 22.5496 17.6746C22.5331 17.7569 22.5068 17.8261 22.4903 17.8854C22.4574 18.0007 22.4409 18.0699 22.4409 18.0699C22.4409 18.0699 22.4738 18.0106 22.5265 17.9052C22.5529 17.8492 22.5891 17.7866 22.6188 17.7075C22.6517 17.6285 22.688 17.5395 22.7275 17.444C22.7638 17.3451 22.7934 17.2298 22.8296 17.1112C22.8659 16.9926 22.8823 16.8707 22.9087 16.739C22.9351 16.5907 22.9384 16.4491 22.9252 16.3008C22.912 16.1558 22.8889 16.0076 22.8428 15.8659C22.7967 15.7276 22.7242 15.5892 22.6155 15.4904C22.5924 15.464 22.5562 15.4443 22.5233 15.4245C22.487 15.4047 22.4771 15.4047 22.4343 15.3882C22.3684 15.3718 22.3058 15.3685 22.2399 15.3784C22.1049 15.4014 21.9929 15.5003 21.9204 15.6057C21.8446 15.7111 21.8018 15.8231 21.7655 15.9252C21.6996 16.1361 21.6865 16.3173 21.6799 16.4392C21.6766 16.5644 21.6832 16.6335 21.6832 16.6335L21.6865 16.6401Z" fill="#F2A57F"/>
<path d="M21.6865 16.6402C21.6865 16.6402 21.6271 16.5018 22.0554 16.4722C22.0554 16.4722 22.5331 16.5611 22.2531 17.1969C22.1938 17.3353 22.1411 17.477 22.1114 17.6252C22.0686 17.8394 22.1444 18.1293 22.0291 18.3171C21.8808 18.5608 21.5053 18.4225 21.4822 18.1424C21.4657 17.9283 21.6864 17.5593 21.7853 17.4078C21.7853 17.4078 22.0917 16.9433 21.6865 16.6369V16.6402Z" fill="#F2A57F"/>
<path d="M21.4822 18.1161C21.4822 18.1161 21.469 18.126 21.4492 18.149C21.4295 18.1721 21.4064 18.2149 21.3866 18.2676C21.3734 18.294 21.3702 18.3236 21.3636 18.3599C21.357 18.3928 21.3504 18.4291 21.357 18.4653C21.357 18.5015 21.3603 18.5411 21.3669 18.5806C21.3734 18.6168 21.3899 18.6498 21.4031 18.686C21.4196 18.719 21.4295 18.7585 21.4525 18.7816C21.4723 18.8079 21.4953 18.831 21.5151 18.854C21.5546 18.9035 21.6008 18.9331 21.6469 18.9463C21.7325 18.9825 21.7918 18.9825 21.7918 18.9825C21.7918 18.9825 21.7688 18.9068 21.726 18.8277C21.7161 18.8079 21.7029 18.7882 21.6897 18.7684C21.6798 18.7453 21.6732 18.719 21.6601 18.6992C21.6469 18.6761 21.6403 18.6531 21.6238 18.6333C21.6074 18.6135 21.6073 18.5839 21.5975 18.5608C21.5711 18.518 21.5612 18.4686 21.5448 18.4225C21.5349 18.3994 21.5316 18.3763 21.525 18.3533C21.5217 18.3302 21.5118 18.3072 21.5085 18.2841C21.492 18.1952 21.4822 18.1161 21.4822 18.1161Z" fill="#F2A57F"/>
<path d="M7.85646 16.9861C8.06401 18.2643 7.70492 19.4042 7.05592 19.5261C6.40691 19.648 5.71508 18.7123 5.50753 17.4308C5.30328 16.1526 5.65907 15.016 6.31137 14.8908C6.96037 14.7689 7.65221 15.7045 7.85646 16.9861Z" fill="#F4B88E"/>
<path d="M7.0757 16.6401C7.0757 16.6401 7.06583 16.5677 7.03947 16.4523C7.01311 16.3337 6.96369 16.169 6.88133 15.9911C6.79897 15.8198 6.67048 15.6222 6.50576 15.6123C6.46623 15.6123 6.42341 15.6156 6.38058 15.6287C6.37399 15.632 6.33117 15.6518 6.31799 15.6617C6.30481 15.6749 6.28833 15.6815 6.27186 15.7012C6.20597 15.7671 6.14996 15.8659 6.11372 15.9812C6.07419 16.0933 6.05114 16.2184 6.03796 16.3436C6.02808 16.4688 6.01819 16.6006 6.03466 16.7093C6.05443 16.8378 6.06101 16.9696 6.08408 17.0816C6.10714 17.1969 6.1269 17.3023 6.14667 17.4011C6.17303 17.5 6.1928 17.5922 6.21256 17.6746C6.22904 17.7569 6.25539 17.8261 6.27186 17.8854C6.30481 18.0007 6.32128 18.0699 6.32128 18.0699C6.32128 18.0699 6.28833 18.0106 6.23233 17.9052C6.20597 17.8492 6.16974 17.7866 6.14009 17.7075C6.10714 17.6285 6.0709 17.5395 6.03136 17.444C5.99512 17.3451 5.96548 17.2298 5.92924 17.1112C5.893 16.9926 5.87653 16.8707 5.85017 16.739C5.82382 16.5907 5.82052 16.4491 5.8337 16.3008C5.84688 16.1558 5.86994 16.0076 5.91607 15.8659C5.96219 15.7276 6.03467 15.5892 6.14338 15.4904C6.16644 15.464 6.20268 15.4443 6.23563 15.4245C6.27187 15.4047 6.28175 15.4047 6.32457 15.3882C6.39046 15.3718 6.45305 15.3685 6.51894 15.3784C6.65402 15.4014 6.76603 15.5003 6.8385 15.6057C6.91428 15.7111 6.9571 15.8231 6.99334 15.9252C7.05923 16.1361 7.07241 16.3173 7.08229 16.4392C7.08558 16.5644 7.079 16.6335 7.079 16.6335L7.0757 16.6401Z" fill="#F2A57F"/>
<path d="M7.07568 16.6402C7.07568 16.6402 7.13498 16.5018 6.7067 16.4722C6.7067 16.4722 6.22901 16.5611 6.50904 17.1969C6.56834 17.3353 6.62104 17.477 6.65069 17.6252C6.69352 17.8394 6.61775 18.1293 6.73306 18.3171C6.8813 18.5608 7.25687 18.4225 7.27993 18.1424C7.2964 17.9283 7.07568 17.5593 6.97685 17.4078C6.97685 17.4078 6.67046 16.9433 7.07568 16.6369V16.6402Z" fill="#F2A57F"/>
<path d="M7.28319 18.1161C7.28319 18.1161 7.29637 18.126 7.31613 18.149C7.3359 18.1721 7.35896 18.2149 7.37873 18.2676C7.39191 18.294 7.39519 18.3236 7.40178 18.3599C7.40837 18.3928 7.41497 18.4291 7.40838 18.4653C7.40838 18.5015 7.40508 18.5411 7.3985 18.5806C7.39191 18.6168 7.37543 18.6498 7.36225 18.686C7.34578 18.719 7.3359 18.7585 7.31284 18.7816C7.29307 18.8079 7.27001 18.831 7.25024 18.854C7.21071 18.9035 7.16459 18.9331 7.11847 18.9463C7.03281 18.9825 6.97351 18.9825 6.97351 18.9825C6.97351 18.9825 6.99658 18.9068 7.0394 18.8277C7.04929 18.8079 7.06246 18.7882 7.07564 18.7684C7.08552 18.7453 7.09211 18.719 7.10529 18.6992C7.11517 18.6761 7.12506 18.6531 7.14153 18.6333C7.158 18.6135 7.158 18.5839 7.16788 18.5608C7.19424 18.518 7.20412 18.4686 7.22059 18.4225C7.23048 18.3994 7.23377 18.3763 7.24036 18.3533C7.24365 18.3302 7.25353 18.3072 7.25683 18.2841C7.2733 18.1952 7.28319 18.1161 7.28319 18.1161Z" fill="#F2A57F"/>
<path d="M14.4617 3.1825C14.4288 3.1825 14.3926 3.1825 14.3596 3.1825C14.3267 3.1825 14.2904 3.1825 14.2575 3.1825C9.09839 3.22862 6.20259 4.69793 6.99325 14.1003L7.88276 21.5885C7.88276 21.5885 8.04089 22.9557 9.53986 23.7727L12.3401 25.8482C12.3401 25.8482 13.6711 26.4379 14.3629 26.3819C15.0514 26.4412 16.3824 25.8482 16.3824 25.8482L19.1827 23.7727C20.6816 22.9557 20.8398 21.5885 20.8398 21.5885L21.7754 14.2716C22.566 4.86924 19.6208 3.22862 14.4617 3.1825Z" fill="#F4B88E"/>
<path d="M10.5579 14.713C10.5612 15.2006 10.8346 15.5959 11.1707 15.5926C11.5067 15.5926 11.7768 15.194 11.7735 14.7031C11.7735 14.2155 11.4968 13.8202 11.1608 13.8202C10.8247 13.8202 10.5546 14.2188 10.5579 14.7097V14.713Z" fill="#2F1807"/>
<path d="M10.9236 14.4296C10.9236 14.5745 10.805 14.6931 10.66 14.6931C10.5151 14.6931 10.3965 14.5745 10.3965 14.4296C10.3965 14.2846 10.5151 14.166 10.66 14.166C10.805 14.166 10.9236 14.2846 10.9236 14.4296Z" fill="white"/>
<path d="M18.2042 14.713C18.2042 15.2006 17.9275 15.5959 17.5914 15.5926C17.2554 15.5926 16.9853 15.194 16.9886 14.7031C16.9886 14.2155 17.2653 13.8202 17.6013 13.8202C17.9374 13.8202 18.2075 14.2188 18.2042 14.7097V14.713Z" fill="#2F1807"/>
<path d="M17.8386 14.4296C17.8386 14.5745 17.9572 14.6931 18.1022 14.6931C18.2471 14.6931 18.3657 14.5745 18.3657 14.4296C18.3657 14.2846 18.2471 14.166 18.1022 14.166C17.9572 14.166 17.8386 14.2846 17.8386 14.4296Z" fill="white"/>
<path d="M15.2755 19.4701C15.1372 19.6052 14.9691 19.7106 14.7879 19.793C14.6068 19.8754 14.4091 19.9281 14.2048 19.9511C14.0006 19.9808 13.7864 19.9643 13.5756 19.9182C13.4702 19.8984 13.368 19.8655 13.2659 19.8259C13.1638 19.7897 13.0715 19.7337 12.976 19.6843L12.8409 19.6151L12.8278 19.4207C12.8146 19.2198 12.8113 19.0386 12.8179 18.8508C12.8179 18.663 12.8409 18.4818 12.8541 18.294C12.8706 18.1095 12.9035 17.9283 12.9332 17.7439C12.9595 17.5594 13.0057 17.3815 13.0518 17.2036C13.1374 16.8445 13.2659 16.4986 13.4043 16.1559C13.4669 15.9846 13.5591 15.8199 13.6448 15.6585C13.7337 15.4971 13.826 15.3356 13.9281 15.1808C13.9215 15.3686 13.905 15.5531 13.8853 15.731C13.8655 15.9122 13.8359 16.0868 13.8194 16.2647C13.8029 16.4426 13.7798 16.6205 13.7535 16.7951C13.7271 16.9697 13.7173 17.1476 13.6942 17.3222C13.6711 17.4968 13.6481 17.6714 13.6316 17.846C13.6184 18.0206 13.5855 18.1919 13.5756 18.3665C13.5591 18.5411 13.5393 18.7124 13.5262 18.887C13.5097 19.0583 13.4998 19.2362 13.4899 19.3944L13.3417 19.1308C13.4076 19.1703 13.4669 19.2264 13.5361 19.2593C13.6052 19.2955 13.6711 19.3384 13.7436 19.368C13.8128 19.4043 13.8919 19.424 13.9676 19.4504C14.0467 19.4668 14.1258 19.4932 14.2081 19.5031C14.2905 19.5196 14.3761 19.5261 14.4618 19.5294C14.5475 19.536 14.6364 19.536 14.7254 19.5327C14.9033 19.5229 15.0877 19.5031 15.2755 19.4636V19.4701Z" fill="#EBA17D"/>
<path d="M12.4389 12.9109C12.3829 13.1382 12.1655 13.2733 11.958 13.237C11.1146 13.0822 10.2679 13.1613 9.5036 13.4413C9.31582 13.5105 9.08521 13.4083 8.97979 13.2008C8.87437 12.9932 8.96331 12.7396 9.19393 12.6539C10.0966 12.3179 11.0948 12.2223 12.0832 12.3969C12.3335 12.4398 12.495 12.6836 12.4389 12.9109Z" fill="#693D34"/>
<path d="M16.0925 12.9109C16.1485 13.1382 16.366 13.2733 16.5735 13.237C17.4169 13.0822 18.2636 13.1613 19.0279 13.4413C19.2157 13.5105 19.4463 13.4083 19.5517 13.2008C19.6571 12.9932 19.5682 12.7396 19.3376 12.6539C18.4349 12.3179 17.4367 12.2223 16.4483 12.3969C16.198 12.4398 16.0365 12.6836 16.0925 12.9109Z" fill="#693D34"/>
<path d="M14.3334 32.5227L13.747 29.5215L10.6403 27.6437L10.1857 29.5347L14.3334 32.5227Z" fill="#6DB9CA"/>
<path d="M13.7469 29.5215L12.2776 32.2164L8.68335 29.7752L10.6402 27.6437L13.7469 29.5215Z" fill="#BFE5E5"/>
<path d="M14.3333 32.5227L14.9197 29.5215L18.0296 27.6437L18.4809 29.5347L14.3333 32.5227Z" fill="#6DB9CA"/>
<path d="M14.9197 29.5215L16.389 32.2164L19.9832 29.7752L18.0296 27.6437L14.9197 29.5215Z" fill="#BFE5E5"/>
<path d="M14.6364 22.7711C14.6364 22.7711 14.33 22.8667 13.9116 22.781" stroke="#E89780" stroke-linecap="round" stroke-linejoin="round"/>
<path d="M12.6367 21.2689L13.0584 22.0991C13.0584 22.0991 14.9428 23.1566 16.2738 21.3117C16.2738 21.3117 14.2049 21.4073 12.6367 21.2689Z" fill="white"/>
<path d="M20.5071 10.842C20.5071 10.842 21.1824 11.2637 21.0342 12.8845L20.965 16.0966H21.5218C21.5218 16.0966 21.4822 14.881 22.4541 14.8908L22.9351 7.70898C22.9351 7.70898 23.3139 4.84282 20.8497 3.17913C20.8497 3.17913 18.7841 2.63555 18.2043 0.942209C18.2043 0.942209 18.0297 1.88112 18.2043 2.44447C18.2043 2.44447 16.5406 1.97337 16.9886 0C16.9886 0 15.661 0.536994 15.6511 1.88112C15.6511 1.88112 15.5918 0.283321 14.6331 0C14.6331 0 14.9823 1.22224 13.9083 1.69005C13.9083 1.69005 9.28953 1.50226 7.91246 3.75895C7.91246 3.75895 5.41857 4.98448 5.82708 10.2062L6.30807 14.8876C6.30807 14.8876 6.96036 15.1972 7.40841 16.09H7.91246V11.8402C7.91246 11.8402 7.8861 10.8387 8.68335 10.8387C8.68335 10.8387 7.91245 7.07974 10.1856 6.51639C10.1856 6.51639 13.5855 5.60713 14.4552 7.30706C14.4552 7.30706 14.5936 5.92998 18.7544 6.46039C18.7544 6.46039 21.3537 6.82936 20.5071 10.8387V10.842Z" fill="#693D34"/>
</svg>
