<svg width="175" height="53" viewBox="0 0 175 53" fill="none" xmlns="http://www.w3.org/2000/svg">
<path d="M2.33991 52.01C9.79991 39.16 15.0999 25.11 17.9399 10.53L15.4799 10.2C14.7899 21.54 14.8199 32.92 15.5699 44.25C15.6299 45.19 16.5899 45.82 17.4499 45.33C24.4299 41.37 28.5499 34.03 31.9699 27.05C35.9299 18.95 38.9299 10.4 40.8899 1.60002C41.1799 0.29002 39.2599 -0.69998 38.6099 0.64002C34.8399 8.32002 32.7899 16.79 32.7799 25.35C32.7799 29.26 33.2299 33.45 35.4699 36.78C37.4699 39.76 40.6599 41.84 44.3399 41.71C48.2299 41.57 51.8299 39.41 54.7899 37.04C57.7499 34.67 60.0399 31.89 61.8199 28.71C62.6899 27.16 63.4199 25.51 63.9799 23.82C64.4499 22.4 64.7399 20.59 63.5199 19.45C62.2999 18.31 60.5899 18.75 59.4999 19.85C58.2099 21.15 57.6199 23.06 57.0299 24.74C55.7399 28.35 55.1199 32.58 57.5899 35.85C59.5699 38.47 63.0299 39.83 66.0299 38.05C67.4299 37.22 68.4399 35.88 69.8299 35.05C71.6899 33.94 74.0399 34.88 75.9699 35.37C79.7899 36.34 83.8599 37.45 87.7999 36.53C91.4099 35.69 93.9499 33.08 95.8999 30.08C96.8599 28.59 97.6999 27.03 98.6099 25.52C99.0599 24.78 99.5599 23.69 100.57 23.78C101.63 23.87 102.6 25 103.31 25.7C106.31 28.67 108.9 32.03 111.01 35.69C111.88 37.2 112.71 38.82 114 40.03C115.39 41.34 117.15 41.93 119.05 41.97C123.05 42.06 126.85 40.36 130.38 38.66C134.19 36.82 137.95 35.14 142.06 34.07C150.31 31.93 158.91 31.76 167.38 31.93C169.47 31.97 171.55 32.04 173.64 32.11C175.25 32.16 175.25 29.66 173.64 29.61C166.12 29.36 158.57 29.14 151.07 29.95C147.37 30.35 143.7 30.98 140.12 32C136.54 33.02 133.21 34.49 129.89 36.11C126.57 37.73 123.17 39.4 119.47 39.46C117.61 39.49 116.15 38.88 115 37.4C113.98 36.07 113.26 34.52 112.38 33.1C110.43 29.96 108.13 27.03 105.54 24.4C104.38 23.22 103.1 21.87 101.45 21.4C99.7999 20.93 98.3399 21.63 97.3399 22.92C95.3799 25.44 94.2799 28.53 92.1599 30.96C89.7899 33.69 86.6799 34.63 83.1299 34.3C79.5799 33.97 75.9099 32.32 72.2099 32.05C70.5999 31.93 69.1499 32.42 67.8699 33.38C66.6899 34.27 65.6799 35.54 64.3099 36.14C61.1099 37.53 58.5099 33.62 58.3899 30.88C58.3099 28.93 58.8699 27.02 59.5299 25.2C59.6899 24.77 61.0399 20.81 61.8599 21.31C62.5399 21.73 60.7899 25.27 60.5699 25.74C59.8899 27.2 59.0699 28.6 58.1399 29.92C56.2199 32.64 53.7499 35 50.9399 36.78C47.9899 38.65 44.1699 40.22 40.8099 38.45C37.6999 36.81 36.1799 33.4 35.6199 30.09C34.9899 26.34 35.2499 22.34 35.7399 18.59C36.2299 14.84 37.1899 10.92 38.5099 7.26002C39.1699 5.44002 39.9299 3.67002 40.7899 1.93002L38.5099 0.97002C36.6299 9.41002 33.8199 17.63 30.0499 25.41C26.7899 32.13 22.9499 39.39 16.2199 43.21L18.0999 44.29C17.3499 32.95 17.3199 21.58 18.0099 10.24C18.0899 8.85002 15.8299 8.52002 15.5499 9.91002C12.7199 24.25 7.53991 38.08 0.179911 50.75C-0.630089 52.14 1.52991 53.4 2.33991 52.01Z" fill="#231F20"/>
</svg>
